<svg xmlns="http://www.w3.org/2000/svg">
<defs>
<font id="EksellDisplay-Stencil" horiz-adv-x="0" >
  <font-face 
    font-family="Eksell Display Stencil"
    font-weight="400"
    font-stretch="normal"
    units-per-em="1000"
    panose-1="2 0 5 3 0 0 0 0 0 0"
    ascent="800"
    descent="-200"
    x-height="500"
    cap-height="700"
    bbox="-40 -209 1588 895"
    underline-thickness="0"
    underline-position="0"
    unicode-range="U+0020-U+FB02"
  />
<missing-glyph horiz-adv-x="1688" 
d="M1586 571q0 -9 2 -14q-4 -4 -8.5 -12.5t-9.5 -10.5v-14q-6 -8 -23 -8q-4 0 -7.5 0.5t-4.5 0.5l-3 1q-2 1 -3 0.5t-2.5 -1.5t-3.5 -3q-4 4 -9 4q-10 0 -30.5 -2t-26.5 -2h-38q-3 -3 -9 -3l-62 -6h-4q0 -15 -9 -89q4 -6 4 -15q-4 0 -4 -4q0 -3 1 -11t1 -12l-2 -13v-2
q0 -2 -2.5 -14t-2.5 -24q0 -2 2.5 -6.5t2.5 -7.5q0 -4 -2.5 -16.5t-2.5 -20.5q0 -3 1.5 -9.5t1.5 -10.5q0 -3 -3 -9q0 -2 1.5 -11.5t1.5 -15.5q0 -9 -3 -15v-38v-3q1 -4 1.5 -7.5t0.5 -7.5t-2 -5q0 -6 -1 -20t-1 -22q0 -13 2 -19q26 -35 61 -43q5 -7 22 -13t21 -10
q8 -2 30 -14t35 -15q1 -2 14 -7t10 -16q-10 0 -37 19q-2 -1 -5 -1q-2 0 -6.5 2.5t-7.5 2.5q-5 6 -19.5 11t-19.5 9q-1 -4 -4.5 -2t-4.5 2q-5 3 -22.5 11.5t-28.5 16.5q-2 0 -7 2t-7 2q-3 5 -12.5 10t-11.5 9q-2 -1 -2 -6q0 -4 1 -10t1 -7q-2 -8 -2 -10q0 -4 2.5 -18
t-0.5 -15q-10 0 -14 10q0 4 1 15t1 18q0 11 -0.5 32t-0.5 31q0 27 3 49q-2 32 -2 48t1 43t1 37v19v37q0 8 2.5 22t2.5 21v13q0 19 5 24q-2 14 -2 20q0 12 3.5 37.5t3.5 41.5q-5 1 -11 1q-5 0 -14 -1t-13 -1q-6 0 -9 1q-6 0 -9 -1t-6.5 -9t-3.5 -23q0 -14 -5 -19v-37
q0 -2 -1 -5t-1 -5q0 -3 1 -9.5t1 -9.5q-3 -9 -4 -23.5t-3 -18.5v-31q0 -8 -2 -16q0 -3 -2.5 -22t-2.5 -30q0 -2 -2 -2t-2.5 -0.5t-0.5 -2.5q0 -11 -2.5 -35t-2.5 -36v-32q-9 -31 -9 -37q0 -24 -4 -39q0 -18 -5 -28q0 -9 -5 -13q0 -9 -9 -43q-5 -5 -9 -5q-3 16 5 37t8 34
q-21 -16 -32 -33q-5 0 -8.5 -2.5t-6.5 -2.5q-5 -9 -23 -9q0 -3 -3 -6.5t-7 -3.5l-4 -5q-8 -2 -20.5 -9.5t-16.5 -9.5q-20 0 -20 -9q-6 2 -18.5 -4.5t-15.5 -6.5q-7 0 -8 7q0 2 2.5 2t2.5 2q26 15 46 19q14 5 35 17.5t27 15.5l42 28v5q10 4 17.5 13t10.5 16.5t8 24t7 21.5

<glyph glyph-name=".notdef" horiz-adv-x="1688" 
d="M1586 571q0 -9 2 -14q-4 -4 -8.5 -12.5t-9.5 -10.5v-14q-6 -8 -23 -8q-4 0 -7.5 0.5t-4.5 0.5l-3 1q-2 1 -3 0.5t-2.5 -1.5t-3.5 -3q-4 4 -9 4q-10 0 -30.5 -2t-26.5 -2h-38q-3 -3 -9 -3l-62 -6h-4q0 -15 -9 -89q4 -6 4 -15q-4 0 -4 -4q0 -3 1 -11t1 -12l-2 -13v-2
q0 -2 -2.5 -14t-2.5 -24q0 -2 2.5 -6.5t2.5 -7.5q0 -4 -2.5 -16.5t-2.5 -20.5q0 -3 1.5 -9.5t1.5 -10.5q0 -3 -3 -9q0 -2 1.5 -11.5t1.5 -15.5q0 -9 -3 -15v-38v-3q1 -4 1.5 -7.5t0.5 -7.5t-2 -5q0 -6 -1 -20t-1 -22q0 -13 2 -19q26 -35 61 -43q5 -7 22 -13t21 -10
q8 -2 30 -14t35 -15q1 -2 14 -7t10 -16q-10 0 -37 19q-2 -1 -5 -1q-2 0 -6.5 2.5t-7.5 2.5q-5 6 -19.5 11t-19.5 9q-1 -4 -4.5 -2t-4.5 2q-5 3 -22.5 11.5t-28.5 16.5q-2 0 -7 2t-7 2q-3 5 -12.5 10t-11.5 9q-2 -1 -2 -6q0 -4 1 -10t1 -7q-2 -8 -2 -10q0 -4 2.5 -18
t-0.5 -15q-10 0 -14 10q0 4 1 15t1 18q0 11 -0.5 32t-0.5 31q0 27 3 49q-2 32 -2 48t1 43t1 37v19v37q0 8 2.5 22t2.5 21v13q0 19 5 24q-2 14 -2 20q0 12 3.5 37.5t3.5 41.5q-5 1 -11 1q-5 0 -14 -1t-13 -1q-6 0 -9 1q-6 0 -9 -1t-6.5 -9t-3.5 -23q0 -14 -5 -19v-37
q0 -2 -1 -5t-1 -5q0 -3 1 -9.5t1 -9.5q-3 -9 -4 -23.5t-3 -18.5v-31q0 -8 -2 -16q0 -3 -2.5 -22t-2.5 -30q0 -2 -2 -2t-2.5 -0.5t-0.5 -2.5q0 -11 -2.5 -35t-2.5 -36v-32q-9 -31 -9 -37q0 -24 -4 -39q0 -18 -5 -28q0 -9 -5 -13q0 -9 -9 -43q-5 -5 -9 -5q-3 16 5 37t8 34
q-21 -16 -32 -33q-5 0 -8.5 -2.5t-6.5 -2.5q-5 -9 -23 -9q0 -3 -3 -6.5t-7 -3.5l-4 -5q-8 -2 -20.5 -9.5t-16.5 -9.5q-20 0 -20 -9q-6 2 -18.5 -4.5t-15.5 -6.5q-7 0 -8 7q0 2 2.5 2t2.5 2q26 15 46 19q14 5 35 17.5t27 15.5l42 28v5q10 4 17.5 13t10.5 16.5t8 24t7 21.5
q-5 0 -5 5q5 6 6.5 20.5t2.5 17.5q-2 8 -2 12t1 11t1 10q1 7 5 41.5t9 57.5v37q0 4 5 9q0 6 -1 17.5t-1 16.5q0 9 2 13v10q0 24 5 28q-3 12 -3 22q0 7 2 21.5t2 23.5t-1 13q-5 0 -5 5l-42 -9q-12 0 -38 -3t-38 -3t-35 3t-35 3q-2 0 -2 -3t-3 -3t-11 0.5t-11 0.5
q-10 0 -15 -5q-23 7 -48 0q-8 0 -20.5 -1t-18.5 -1q-7 0 -21 2q-6 0 -21 -1t-22 -1q-10 0 -18 2q-6 -2 -23 -3t-25 -6q-13 4 -51 4q-39 3 -41 3q-14 0 -44.5 -1.5t-46.5 -1.5h-28q-9 3 -33 3t-34 2q-56 0 -74 10q-4 -2 -7 -2q-4 0 -9.5 3t-7.5 3q-4 -2 -14 -2q-12 0 -31 8
t-26 8q-9 15 -47 15q-12 5 -43.5 7t-45.5 6q-2 -1 -7 -1q-4 0 -10.5 1t-9.5 1t-6 -1q-5 8 -15 8q-4 0 -13 -1.5t-14 -1.5h-9q-8 -3 -14 -3q-14 0 -38 8q-4 -2 -10 -2q-15 0 -24 11q0 5 10 5q5 4 5 10q5 0 23 4q0 -3 6 -3q5 0 8 3h14q7 3 24 7.5t24 6.5q1 0 11 1.5t12 -1.5
q9 5 30.5 10t30.5 9q4 -1 9 -1t12 1t9.5 1t7.5 -1q3 0 5 2.5t5 2.5q16 0 43 7t41 7q61 16 65 18v10q5 4 13 4q10 0 15 -4q2 2 4 4.5t3.5 3.5t3.5 1h10q13 0 13 15q0 2 2 2t6 -1t6 -1q2 3 9.5 7.5t9.5 6.5q0 4 4 9q3 5 12.5 12t11.5 11q5 6 5 15q4 0 4 4q4 4 6.5 10t5.5 15
l3 14q2 0 2 -5.5t2 -5.5q-5 -39 -43 -75q2 -1 4 -1t6 3t5 3l43 42q1 2 4 7t5 7.5t4 0.5q-2 -10 -14 -24t-14 -23q5 0 5 4q8 0 16 7.5t12 7.5q9 9 14 9q1 1 7 8t10.5 10t11.5 5q-4 -12 -29 -28v-4q-4 -4 -15.5 -14t-16.5 -15q9 5 13 10q8 2 16.5 6.5t17.5 11.5t14 10q4 0 4 4
h9q0 -5 -8.5 -11.5t-9.5 -7.5q-11 -9 -15 -9l-19 -12q-19 -12 -28 -20q-6 0 -12.5 -3.5t-16.5 -11.5t-12 -9q2 -1 5 -1t11 2.5t12 2.5q4 5 4 9q9 4 47 22t57 26q2 0 2 -2.5t2 -2.5q-14 -5 -37.5 -18.5t-37.5 -18.5q-5 -5 -17 -12.5t-16 -11.5v-4h5q18 3 27 3q6 0 20 -3v4
q8 -2 12 -2t12 1t13 1q3 0 5.5 -2t4.5 -2l5 4l4 -4l5 4q1 0 13 -2t21 -2h9h23h61v4q13 0 33 2.5t28 2.5q19 0 28 -5h19q5 -1 13 -1q6 0 17 1t16 1q8 0 10 -1q6 3 25 3q21 0 27 2q2 -2 6 -2q2 0 7 1t6 1q5 -1 15 -1q7 0 21 1t22 1q12 0 18 -1q3 0 44.5 4t58.5 9q3 -5 12.5 -4
t16.5 0q23 4 80 4h28q12 5 30.5 7.5t41.5 4.5t31 3q9 0 14 -4q2 0 2 2t2 2l11 -1q6 0 17.5 1.5t16.5 1.5q18 0 31 -11q0 -3 0.5 -6.5t1 -5.5t0 -4t-1.5 -3q3 -9 3 -16t-2.5 -23t-2.5 -25q0 -3 2 -13.5t2 -12.5zM440 609q0 4 2 10.5t1 10.5q-20 -2 -27 -9q6 -2 6 -9
q0 -5 -5.5 -10t-12.5 -4q-4 4 -4 8q0 10 15 15q-27 -4 -34 -7h-10q-23 0 -80 -15q-14 0 -39.5 -5.5t-38.5 -5.5q-1 -1 -3 -2.5t-3 -3t-2 -4t-1 -5.5l-1 -2q-1 -2 -1.5 -6t-0.5 -8q0 -8 2 -9q4 2 18 1.5t18 -0.5q23 -9 31 -5q2 -6 26 -6q5 0 17 -3t19 -3t11 2q54 -30 97 -26
q-2 4 -3.5 10.5t-3.5 10.5q2 12 2 16q0 11 -3 24q7 9 7 16q0 6 -5 13q-1 4 6 7v4zM182 563q-2 1 -4 0t-2 0q1 2 4 3h3q-1 5 -7 8q-2 -2 -6 -2q1 -3 2 -8t2 -7q2 0 5 1q2 1 3 -1v6z" />
    <glyph glyph-name="glyph1" 
 />
    <glyph glyph-name="glyph2" horiz-adv-x="333" 
 />
    <glyph glyph-name="space" unicode=" " horiz-adv-x="170" 
 />
    <glyph glyph-name="exclam" unicode="!" horiz-adv-x="232" 
d="M115 202q-3 15 -24.5 76.5t-38.5 137.5t-17 153v60q0 34 23.5 57.5t57.5 23.5t57.5 -23.5t23.5 -57.5v-59q0 -77 -16.5 -153t-38.5 -138.5t-25 -76.5h-2zM116 -12q-34 0 -57.5 23.5t-23.5 57.5q0 33 23.5 56.5t57.5 23.5q33 0 56.5 -23.5t23.5 -56.5q0 -34 -23.5 -57.5
t-56.5 -23.5z" />
    <glyph glyph-name="quotedbl" unicode="&#x22;" horiz-adv-x="330" 
d="M82 421q-64 159 -64 218q0 32 18.5 51.5t46.5 19.5t46.5 -19.5t18.5 -51.5q0 -59 -64 -218h-2zM246 421q-64 159 -64 218q0 32 18.5 51.5t46.5 19.5t46.5 -19.5t18.5 -51.5q0 -59 -64 -218h-2z" />
    <glyph glyph-name="numbersign" unicode="#" horiz-adv-x="558" 
d="M527 451h-138l-43 -210h138l-3 -13h-138l-47 -228h-15l47 228h-147l-47 -228h-15l47 228h-138l3 13h138l43 210h-138l3 13h137l49 236h15l-49 -236h147l49 236h15l-49 -236h139zM331 241l43 210h-147l-43 -210h147z" />
    <glyph glyph-name="dollar" unicode="$" horiz-adv-x="532" 
d="M304 412q98 -38 148 -85t50 -122q0 -56 -19.5 -99.5t-51 -67.5t-66 -36t-70.5 -13v2q54 8 88 43t34 86t-35.5 83t-109.5 65v-373h-14v379q-34 14 -38 16q-102 37 -142 87.5t-40 117.5q0 96 57.5 152t139.5 62v-2q-46 -14 -79.5 -48t-33.5 -80q0 -52 31.5 -82.5
t104.5 -63.5v345h14v-352q10 -4 32 -14zM471 464l-30 63l-26.5 51t-28.5 50l-27 35q-16 20 -31.5 29.5t-32.5 14.5v2q19 -2 58.5 -8t66.5 -6q21 0 41 5l12 -236h-2zM52 267l24 -57q8 -19 28.5 -61t37.5 -66.5t42 -50t51 -36.5v-2q-97 16 -105 16q-49 1 -80 -19v276h2z" />
    <glyph glyph-name="percent" unicode="%" horiz-adv-x="621" 
d="M180 356q14 13 24.5 57.5t10.5 96.5q0 72 -17.5 126t-39.5 75v2h1q56 0 100.5 -46t44.5 -136q0 -80 -38 -124t-86 -53v2zM155 353q-47 1 -91 46.5t-44 125.5q0 78 33.5 127t82.5 59v-2q-27 -47 -27 -154q0 -53 12.5 -115t33.5 -85v-2zM97 0l404 700h16l-404 -700h-16z
M477 -4q14 13 24.5 57.5t10.5 96.5q0 72 -17.5 126t-39.5 75v2h1q56 0 100.5 -46t44.5 -136q0 -80 -38 -124t-86 -53v2zM452 -7q-47 1 -91 46.5t-44 125.5q0 78 33.5 127t82.5 59v-2q-27 -47 -27 -154q0 -53 12.5 -115t33.5 -85v-2z" />
    <glyph glyph-name="ampersand" unicode="&#x26;" horiz-adv-x="633" 
d="M297 705q67 -8 111 -49t44 -98q0 -51 -36.5 -81.5t-78.5 -42.5h-2q17 39 17 112q0 45 -16 90t-39 67v2zM237 702q-30 -34 -30 -90q0 -67 83 -181l258 -353q46 -61 78 -76v-2h-198l-281 392q-21 30 -32 47.5t-21.5 45.5t-10.5 56q0 63 42 108t112 55v-2zM528 222
q22 68 -3.5 112t-97.5 59v3h206l-102 -174h-3zM148 317q-8 -36 -8 -77q0 -60 25 -116.5t71 -89.5t98 -23v-2q-40 -15 -89 -15q-31 0 -66 9.5t-70 29t-58 55.5t-23 82q0 51 33 89.5t85 57.5h2z" />
    <glyph glyph-name="quotesingle" unicode="'" horiz-adv-x="166" 
d="M82 421q-64 159 -64 218q0 32 18.5 51.5t46.5 19.5t46.5 -19.5t18.5 -51.5q0 -59 -64 -218h-2z" />
    <glyph glyph-name="parenleft" unicode="(" horiz-adv-x="328" 
d="M294 -196q-99 60 -161.5 186t-62.5 280t62.5 280t161.5 186l4 -2q-47 -64 -77 -194t-30 -270t30 -270t77 -194z" />
    <glyph glyph-name="parenright" unicode=")" horiz-adv-x="328" 
d="M34 -196l-4 2q47 64 77 194t30 270t-30 270t-77 194l4 2q99 -60 161.5 -186t62.5 -280t-62.5 -280t-161.5 -186z" />
    <glyph glyph-name="asterisk" unicode="*" horiz-adv-x="335" 
d="M167 577l-32 87q-13 34 16 45q24 11 42 -7q14 -14 6 -38l-30 -87h-2zM143 562l-91 17q-35 7 -31 38q4 25 26 32q20 7 37 -14l59 -72v-1zM190 562l-1 1l59 72q25 29 49 8q20 -18 13 -41q-6 -18 -30 -23zM85 466q-25 -28 -50 -6q-21 18 -13 41q6 17 30 21l92 15l1 -1z
M247 466l-59 70v1l92 -15q34 -6 32 -34q-2 -25 -24 -34.5t-41 12.5zM134 438l33 87h2l30 -87q12 -35 -18 -46q-26 -9 -43 9q-13 14 -4 37z" />
    <glyph glyph-name="plus" unicode="+" horiz-adv-x="516" 
d="M486 328v-14h-221v-221h-15v221h-220v14h220v221h15v-221h221z" />
    <glyph glyph-name="comma" unicode="," horiz-adv-x="197" 
d="M99 149q35 0 57.5 -24.5t22.5 -64.5q0 -56 -39 -116.5t-91 -86.5l-2 1q59 59 73 133q-40 -10 -71 14t-31 64q0 33 23.5 56.5t57.5 23.5z" />
    <glyph glyph-name="hyphen" unicode="-" horiz-adv-x="336" 
d="M30 243v106h276v-106h-276z" />
    <glyph glyph-name="period" unicode="." horiz-adv-x="197" 
d="M99 -12q-34 0 -57.5 23.5t-23.5 57.5q0 33 23.5 56.5t57.5 23.5q33 0 56.5 -23.5t23.5 -56.5q0 -34 -23.5 -57.5t-56.5 -23.5z" />
    <glyph glyph-name="slash" unicode="/" horiz-adv-x="239" 
d="M5 -80l214 824h15l-214 -824h-15z" />
    <glyph glyph-name="zero" unicode="0" horiz-adv-x="516" 
d="M319 2q9 28 15 116t6 161q0 137 -26 265t-57 161v2q39 -1 78 -21.5t74 -61.5t57 -113t22 -164q0 -141 -50 -229t-119 -118v2zM259 -2h-1q-33 0 -70.5 20t-74.5 59t-61 108.5t-24 155.5q0 144 48 236.5t121 122.5v-2q-21 -82 -21 -281q0 -120 22.5 -250t60.5 -167v-2z" />
    <glyph glyph-name="one" unicode="1" horiz-adv-x="325" 
d="M52 0v2q33 18 41.5 45t8.5 75v375q0 37 -18 56t-72 30v2l226 124v-587q0 -48 8.5 -75t41.5 -45v-2h-236z" />
    <glyph glyph-name="two" unicode="2" horiz-adv-x="442" 
d="M123 178q135 205 135 339q0 93 -111 93q-66 0 -145 -25v3q40 44 115 85t146 41q69 0 105.5 -35t36.5 -95q0 -45 -26 -99t-73 -112.5t-86.5 -100.5t-93.5 -94h-3zM83 120h226q29 0 49 10t30 22t29 40h3l-39 -192h-387z" />
    <glyph glyph-name="three" unicode="3" horiz-adv-x="480" 
d="M351 580h-205q-29 0 -49 -10t-29.5 -21.5t-29.5 -40.5h-3l39 192h377zM322 9q26 32 26 104q0 90 -61 164t-139 108l92 95q89 -33 150.5 -101t61.5 -157q0 -75 -34.5 -132.5t-95.5 -82.5v2zM262 -6q-8 -1 -23 -1q-150 0 -221 140l130 79q40 -154 114 -216v-2z" />
    <glyph glyph-name="four" unicode="4" horiz-adv-x="511" 
d="M477 177h-76v-55q0 -48 8.5 -75t41.5 -45v-2h-234v2q33 18 41.5 45t8.5 75v55h-257l59 120h198v403h134v-403h4q28 0 41.5 8t27.5 34h3v-162z" />
    <glyph glyph-name="five" unicode="5" horiz-adv-x="482" 
d="M133 700h274q21 0 32 4.5t25 19.5h3l-47 -144h-321zM315 7q31 44 31 130q0 38 -17 81t-50.5 85.5t-94 70.5t-136.5 28l28 98q194 -4 286 -79.5t92 -200.5q0 -75 -37 -132.5t-102 -82.5v2zM255 -8q-8 -1 -23 -1q-150 0 -221 140l130 79q16 -74 47 -135.5t67 -80.5v-2z" />
    <glyph glyph-name="six" unicode="6" horiz-adv-x="495" 
d="M172 302q0 -96 21.5 -181.5t49.5 -125.5v-2q-92 10 -153.5 98t-61.5 200q0 174 104 295t275 121q29 0 54 -5v-3q-38 -8 -75 -25t-77 -49.5t-69.5 -75t-48.5 -107t-19 -140.5zM263 513q80 -8 142 -73.5t62 -175.5q0 -97 -45.5 -172.5t-118.5 -94.5v2q21 63 21 200
q0 216 -61 312v2z" />
    <glyph glyph-name="seven" unicode="7" horiz-adv-x="432" 
d="M398 580h-276q-29 0 -49 -10t-29.5 -21.5t-29.5 -40.5h-3l39 192h389zM379 524l-128 -376q-17 -52 4.5 -85.5t80.5 -59.5v-3h-278l318 524h3z" />
    <glyph glyph-name="eight" unicode="8" horiz-adv-x="500" 
d="M300 -1q26 13 44 47t18 86q0 40 -22 76t-55 62l-72 56l-72 57q-33 27 -55 65.5t-22 81.5q0 74 49 120t115 57v-2q-54 -47 -54 -104q0 -37 31 -72.5t75 -66.5l88 -64q44 -33 75 -80.5t31 -103.5q0 -89 -51.5 -148t-122.5 -69v2zM341 455q13 36 13 99q0 102 -66 151v2
q62 -9 102.5 -49.5t40.5 -88.5q0 -41 -25 -70.5t-63 -43.5h-2zM148 333q-27 -57 -27 -130q0 -66 33 -125t87 -80v-2q-78 -2 -144.5 56.5t-66.5 133.5q0 52 32 89.5t84 57.5h2z" />
    <glyph glyph-name="nine" unicode="9" horiz-adv-x="495" 
d="M321 399q0 96 -21.5 181.5t-49.5 125.5v2q92 -10 153.5 -98t61.5 -200q0 -174 -104 -295t-275 -121q-29 0 -54 5v3q38 8 75 25t77 49.5t69.5 75t48.5 107t19 140.5zM230 188q-80 8 -142 73.5t-62 175.5q0 97 45.5 172.5t118.5 94.5v-2q-21 -63 -21 -200q0 -216 61 -312
v-2z" />
    <glyph glyph-name="colon" unicode=":" horiz-adv-x="211" 
d="M106 349q-34 0 -57.5 23.5t-23.5 57.5q0 33 23.5 56.5t57.5 23.5q33 0 56.5 -23.5t23.5 -56.5q0 -34 -23.5 -57.5t-56.5 -23.5zM106 -12q-34 0 -57.5 23.5t-23.5 57.5q0 33 23.5 56.5t57.5 23.5q33 0 56.5 -23.5t23.5 -56.5q0 -34 -23.5 -57.5t-56.5 -23.5z" />
    <glyph glyph-name="semicolon" unicode=";" horiz-adv-x="211" 
d="M106 349q-34 0 -57.5 23.5t-23.5 57.5q0 33 23.5 56.5t57.5 23.5q33 0 56.5 -23.5t23.5 -56.5q0 -34 -23.5 -57.5t-56.5 -23.5zM106 149q35 0 57.5 -24.5t22.5 -64.5q0 -56 -39 -116.5t-91 -86.5l-2 1q59 59 73 133q-40 -10 -71 14t-31 64q0 33 23.5 56.5t57.5 23.5z" />
    <glyph glyph-name="less" unicode="&#x3c;" horiz-adv-x="516" 
d="M486 127l-456 189v10l456 189v-16l-429 -178l429 -178v-16z" />
    <glyph glyph-name="equal" unicode="=" horiz-adv-x="516" 
d="M30 396v14h456v-14h-456zM30 232v14h456v-14h-456z" />
    <glyph glyph-name="greater" unicode="&#x3e;" horiz-adv-x="516" 
d="M30 127v16l429 178l-429 178v16l456 -189v-10z" />
    <glyph glyph-name="question" unicode="?" horiz-adv-x="352" 
d="M5 563l26 136q90 9 113 9q52 0 95.5 -13.5t75.5 -49.5t32 -90q0 -43 -17 -82t-43.5 -69.5t-54 -58.5t-52.5 -63t-35 -70h-2q-14 54 0.5 107t36 108t21.5 101q0 87 -82 87q-68 0 -113 -53zM145 -12q-34 0 -57.5 23.5t-23.5 57.5q0 33 23.5 56.5t57.5 23.5q33 0 56.5 -23.5
t23.5 -56.5q0 -34 -23.5 -57.5t-56.5 -23.5z" />
    <glyph glyph-name="at" unicode="@" horiz-adv-x="939" 
d="M528 296l54 197h117l-70 -258q-23 -98 -7.5 -132.5t69.5 -34.5q88 0 145 76.5t57 197.5q0 164 -112.5 260.5t-275.5 96.5q-190 0 -324.5 -133.5t-134.5 -334.5q0 -98 37 -178t99 -129.5t139 -76t160 -26.5q152 0 255 84l10 -12q-48 -43 -121.5 -65t-143.5 -22
q-121 0 -222 48t-165 146.5t-64 230.5q0 207 138.5 345t336.5 138q108 0 198.5 -42t148 -128t57.5 -200q0 -128 -61 -211t-171 -83q-99 0 -140.5 62t-8.5 184zM457 89q-40 -39 -98 -39q-56 0 -88 34t-32 100q0 114 78.5 205.5t221.5 102.5v-2q-81 -28 -133 -124.5
t-52 -199.5q0 -37 16 -61.5t43 -24.5q25 0 43 11z" />
    <glyph glyph-name="A" unicode="A" horiz-adv-x="652" 
d="M555 156q53 -123 107 -154v-2h-319v2q92 34 52 130l-30 74h-254l5 14h243l-124 306l77 190h2zM95 154q-19 -55 -9 -94.5t60 -57.5v-2h-156v2q64 57 102 152h3z" />
    <glyph glyph-name="B" unicode="B" horiz-adv-x="620" 
d="M18 698v2h231v-700h-231v2q35 16 55 48t20 72v456q0 40 -20 72t-55 48zM398 387q96 -18 145.5 -69.5t49.5 -124.5q0 -90 -59.5 -141.5t-158.5 -51.5h-66v2q67 9 98 48t31 123q0 91 -39 144t-90 64v2q104 13 104 135q0 68 -31.5 117.5t-72.5 62.5v2h75q76 0 124 -42
t48 -110q0 -56 -39.5 -98.5t-118.5 -62.5z" />
    <glyph glyph-name="C" unicode="C" horiz-adv-x="635" 
d="M376 712q40 0 89 -4.5t75 -4.5q30 0 47 5l14 -240h-2q-102 187 -223 242v2zM317 704q-127 -66 -127 -273q0 -142 65 -228.5t166 -86.5q118 0 201 115h2q-43 -117 -107.5 -180t-162.5 -63q-53 0 -108 23t-104 65.5t-80.5 114t-31.5 158.5q0 79 25 144.5t67.5 107.5
t91.5 68.5t103 36.5v-2z" />
    <glyph glyph-name="D" unicode="D" horiz-adv-x="724" 
d="M309 -1q213 26 213 295q0 148 -60.5 262t-151.5 143v2q17 1 45 1q60 0 118 -21.5t108.5 -62.5t81.5 -110.5t31 -156.5q0 -70 -21.5 -129.5t-57 -100t-81 -69.5t-92.5 -42.5t-93 -13.5q-25 0 -40 1v2zM250 0h-232v2q35 16 55 48t20 72v456q0 40 -20 72t-55 48v2h232v-700z
" />
    <glyph glyph-name="E" unicode="E" horiz-adv-x="599" 
d="M249 700v-700h-231v2q35 16 55 48t20 72v456q0 40 -20 72t-55 48v2h231zM310 700h235l14 -214h-2q-37 117 -91 159.5t-156 51.5v3zM310 381q39 8 64 37.5t47 83.5h2v-264h-2q-38 123 -111 141v2zM310 3q109 8 166 54.5t98 174.5h2l-15 -232h-251v3z" />
    <glyph glyph-name="F" unicode="F" horiz-adv-x="572" 
d="M18 0v2q35 16 55 48t20 72v456q0 40 -20 72t-55 48v2h232v-578q0 -40 20 -72t54 -48v-2h-306zM311 700h235l14 -214h-2q-37 117 -91 159.5t-156 51.5v3zM311 381q39 8 64 37.5t47 83.5h2v-264h-2q-38 123 -111 141v2z" />
    <glyph glyph-name="G" unicode="G" horiz-adv-x="719" 
d="M391 713q30 1 89.5 -3t83.5 -4q36 0 59 6l13 -240h-2q-52 101 -114.5 163t-128.5 76v2zM428 -7q-10 -2 -22 -2q-70 -1 -135.5 21.5t-120 65.5t-87.5 113.5t-33 158.5q0 77 25.5 142t69 108.5t96.5 71t111 36.5v-2q-62 -38 -97 -105t-35 -185q0 -99 34 -195.5t87 -158
t107 -67.5v-2zM480 238q0 40 -20 72t-55 48v2h292v-2q-65 -37 -65 -120v-173q-85 -45 -152 -65v238z" />
    <glyph glyph-name="H" unicode="H" horiz-adv-x="748" 
d="M18 0v2q35 16 55 48t20 72v456q0 40 -20 72t-55 48v2h305v-2q-34 -16 -54 -48t-20 -72v-456q0 -40 20 -72t54 -48v-2h-305zM425 0v2q35 16 55 48t20 72v456q0 40 -20 72t-55 48v2h305v-2q-34 -16 -54 -48t-20 -72v-456q0 -40 20 -72t54 -48v-2h-305zM299 373v14h151v-14
h-151z" />
    <glyph glyph-name="I" unicode="I" horiz-adv-x="342" 
d="M18 0v2q35 16 55 48t20 72v456q0 40 -20 72t-55 48v2h306v-2q-34 -16 -54 -48t-20 -72v-456q0 -40 20 -72t54 -48v-2h-306z" />
    <glyph glyph-name="J" unicode="J" horiz-adv-x="510" 
d="M195 700h306v-2q-34 -16 -54 -48t-20 -72v-345q0 -210 -166 -240v2q17 22 17 86q0 13 -4 110.5t-4 166.5v220q0 40 -20 72t-55 48v2zM106 231q14 -71 43 -150t59 -89v-2q-125 3 -208 80l104 161h2z" />
    <glyph glyph-name="K" unicode="K" horiz-adv-x="716" 
d="M572 158q93 -128 141 -156v-2h-301v2q60 36 1 120l-163 233v-233q0 -40 20 -72t54 -48v-2h-306v2q35 16 55 48t20 72v456q0 40 -20 72t-55 48v2h306v-2q-34 -16 -54 -48t-20 -72v-221l109 93zM468 550q38 46 25.5 83t-68.5 65v2h281v-2q-85 -30 -235 -148h-3z" />
    <glyph glyph-name="L" unicode="L" horiz-adv-x="623" 
d="M18 0v2q35 16 55 48t20 72v456q0 40 -20 72t-55 48v2h306v-2q-34 -16 -54 -48t-20 -72v-578h-232zM310 3q122 2 187 65.5t112 203.5h2l-21 -272h-280v3z" />
    <glyph glyph-name="M" unicode="M" horiz-adv-x="884" 
d="M141 527q-67 151 -123 171v2h215l221 -512l-79 -188h-2zM866 700v-2q-34 -16 -54 -48t-20 -72v-456q0 -40 20 -72t54 -48v-2h-306v2q35 16 55 48t20 72v578h231zM104 154q1 -57 25.5 -96.5t64.5 -55.5v-2h-176v2q36 16 59 56t24 96h3z" />
    <glyph glyph-name="N" unicode="N" horiz-adv-x="703" 
d="M611 -14l-484 605q-77 95 -109 107v2h227l369 -470v-244h-3zM603 546q-1 58 -25.5 97t-64.5 55v2h176v-2q-36 -17 -59 -56t-24 -96h-3zM104 154q1 -57 25.5 -96.5t64.5 -55.5v-2h-176v2q36 16 59 56t24 96h3z" />
    <glyph glyph-name="O" unicode="O" horiz-adv-x="749" 
d="M433 -6q43 21 77.5 98t34.5 194q0 148 -52.5 272.5t-119.5 151.5v2q44 1 90.5 -12t92.5 -42.5t82 -70.5t58.5 -102.5t22.5 -132.5q0 -77 -24.5 -142t-66 -108.5t-91 -71.5t-104.5 -38v2zM373 -11q-55 -1 -113 21t-110.5 64.5t-86 114.5t-33.5 160q0 149 83.5 243
t199.5 116v-2q-42 -23 -75.5 -99.5t-33.5 -191.5q0 -147 52 -273.5t117 -150.5v-2z" />
    <glyph glyph-name="P" unicode="P" horiz-adv-x="592" 
d="M18 0v2q35 16 55 48t20 72v456q0 40 -20 72t-55 48v2h232v-578q0 -40 20 -72t54 -48v-2h-306zM310 324q48 7 77.5 52.5t29.5 123.5q0 66 -30.5 124.5t-76.5 73.5v2h57q87 0 150 -50.5t63 -139.5q0 -86 -62.5 -137t-186.5 -51h-21v2z" />
    <glyph glyph-name="Q" unicode="Q" horiz-adv-x="749" 
d="M472 -32q0 -43 68 -87t166 -57v-3q-62 -15 -137 -15q-109 0 -159 29t-50 64q0 23 17 42.5t74 66.5q94 77 94 278q0 148 -52.5 272.5t-119.5 151.5v2q44 1 90.5 -12t92.5 -42.5t82 -70.5t58.5 -102.5t22.5 -132.5q0 -70 -18.5 -126t-45.5 -88.5t-59.5 -59t-59.5 -41.5
t-45.5 -33t-18.5 -36zM373 -11q-55 -1 -113 21t-110.5 64.5t-86 114.5t-33.5 160q0 149 83.5 243t199.5 116v-2q-42 -23 -75.5 -99.5t-33.5 -191.5q0 -147 52 -273.5t117 -150.5v-2z" />
    <glyph glyph-name="R" unicode="R" horiz-adv-x="676" 
d="M250 122q0 -40 20 -72t54 -48v-2h-306v2q35 16 55 48t20 72v456q0 40 -20 72t-55 48v2h232v-578zM563 154q82 -130 123 -152v-2h-209l-204 354v2h23q60 0 96.5 36t36.5 109q0 67 -34.5 125.5t-84.5 71.5v2h64q85 0 150.5 -49.5t65.5 -138.5q0 -59 -39.5 -100.5
t-113.5 -57.5z" />
    <glyph glyph-name="S" unicode="S" horiz-adv-x="567" 
d="M304 709q30 -1 76.5 -7.5t73.5 -6.5q23 0 45 5l13 -236h-2q-115 219 -206 243v2zM349 -6q44 13 72.5 48t28.5 85q0 22 -11 40.5t-27.5 32.5t-47 29t-57.5 25l-73 27q-113 38 -156.5 88t-43.5 126q0 97 63 150.5t147 62.5v-2q-52 -14 -84.5 -48t-32.5 -86q0 -51 42.5 -79
t156.5 -70q110 -38 164 -86.5t54 -131.5q0 -100 -57.5 -152t-137.5 -61v2zM289 -10q-26 1 -78 10t-76 10q-53 1 -88 -19v276h2q105 -239 240 -275v-2z" />
    <glyph glyph-name="T" unicode="T" horiz-adv-x="653" 
d="M188 700v-2q-57 -14 -98 -55.5t-76 -124.5h-2l16 182h160zM405 700v-578q0 -40 20 -72t54 -48v-2h-306v2q35 16 55 48t20 72v578h157zM465 700h159l17 -182h-2q-35 83 -76 124.5t-98 55.5v2z" />
    <glyph glyph-name="U" unicode="U" horiz-adv-x="666" 
d="M530 70q-53 -82 -180 -82q-118 0 -191.5 59.5t-73.5 167.5v363q0 40 -20 72t-54 48v2h306v-2q-35 -16 -55 -48t-20 -72v-348q0 -211 153 -211q77 0 133 51h2zM573 546q-3 119 -84 152v2h168v-2q-78 -36 -81 -152h-3z" />
    <glyph glyph-name="V" unicode="V" horiz-adv-x="660" 
d="M344 -14h-2l-245 558q-55 124 -107 154v2h320v-2q-92 -34 -52 -130l162 -396zM565 546q19 57 8.5 95.5t-59.5 56.5v2h156v-2q-63 -55 -102 -152h-3z" />
    <glyph glyph-name="W" unicode="W" horiz-adv-x="994" 
d="M323 -14l-230 558q-52 124 -103 154v2h314v-2q-90 -34 -52 -130l152 -388l-79 -194h-2zM695 -14l-228 558q-52 124 -103 154v2h316v-2q-91 -34 -53 -130l148 -382l-78 -200h-2zM905 546q19 57 6 95t-63 57v2h156v-2q-54 -47 -96 -152h-3z" />
    <glyph glyph-name="X" unicode="X" horiz-adv-x="686" 
d="M366 0v2q35 16 46.5 51.5t-9.5 68.5l-286 453q-60 98 -102 123v2h306v-2q-34 -16 -43.5 -51.5t11.5 -68.5l286 -454q49 -79 97 -122v-2h-306zM481 546q36 51 33.5 91.5t-43.5 60.5l1 2h156l-1 -2q-35 -21 -143 -152h-3zM171 154q-34 -51 -30.5 -91t43.5 -61v-2h-158v2
q69 58 142 152h3z" />
    <glyph glyph-name="Y" unicode="Y" horiz-adv-x="608" 
d="M382 122q0 -40 20.5 -72t55.5 -48v-2h-308v2q35 16 55.5 48t20.5 72v188l-115 235q-62 125 -111 153v2h319v-2q-92 -34 -48 -129l111 -237v-210zM447 700h150v-2q-39 -30 -109 -152h-3q27 56 19.5 95t-57.5 57v2z" />
    <glyph glyph-name="Z" unicode="Z" horiz-adv-x="610" 
d="M5 0v3l410 697h173v-2l-409 -698h-174zM339 697q-77 -5 -121 -21.5t-82 -62t-77 -135.5h-2l20 222h262v-3zM257 3q40 2 58 3q21 1 48 4t40.5 6.5t33 11.5t29 16t24.5 23.5t24 31.5l23 41q14 26 25 52l28 65h2l-30 -257h-305v3z" />
    <glyph glyph-name="bracketleft" unicode="[" horiz-adv-x="345" 
d="M315 712l-123 -57v-786l123 -57v-2h-225v904h225v-2z" />
    <glyph glyph-name="backslash" unicode="\" horiz-adv-x="239" 
d="M234 -80h-15l-214 824h15z" />
    <glyph glyph-name="bracketright" unicode="]" horiz-adv-x="345" 
d="M255 714v-904h-225v2l123 57v786l-123 57v2h225z" />
    <glyph glyph-name="underscore" unicode="_" horiz-adv-x="600" 
d="M-5 -190v45h610v-45h-610z" />
    <glyph glyph-name="a" unicode="a" horiz-adv-x="471" 
d="M247 506q11 1 32 1q69 0 100.5 -32.5t31.5 -84.5v-268q0 -48 9 -75t44 -45v-2h-193v419q0 72 -24 85v2zM202 501q-37 -18 -88 -57.5t-78 -66.5l-2 2l83 111q35 7 85 13v-2zM140 -5q-62 0 -94.5 36.5t-32.5 82.5q0 52 29 83t102 74q36 21 67 42l1 -2q-65 -69 -65 -165
q0 -52 17 -85t47 -41v-2q-41 -23 -71 -23z" />
    <glyph glyph-name="b" unicode="b" horiz-adv-x="515" 
d="M63 0v578q0 48 -9 75t-44 45v2h195v-700h-142zM266 2q81 32 81 196q0 85 -23 170.5t-58 129.5v2q105 -7 165.5 -65.5t60.5 -169.5q0 -118 -65.5 -184.5t-160.5 -80.5v2z" />
    <glyph glyph-name="c" unicode="c" horiz-adv-x="445" 
d="M270 508q51 -4 93 -34t67 -83l-159 -79l-2 1q12 36 12.5 97.5t-11.5 95.5v2zM210 500q-47 -68 -47 -192q0 -103 42.5 -153t99.5 -50q77 0 133 62l2 -1q-20 -62 -76 -117.5t-122 -55.5q-86 0 -152.5 66.5t-66.5 187.5q0 104 55 171.5t132 83.5v-2z" />
    <glyph glyph-name="d" unicode="d" horiz-adv-x="514" 
d="M309 0v578q0 48 -9 75t-44 45v2h195v-578q0 -48 9 -75t44 -45v-2h-195zM249 498q-81 -32 -81 -196q0 -85 23 -170.5t58 -129.5v-2q-105 7 -165.5 65.5t-60.5 169.5q0 118 65.5 184.5t160.5 80.5v-2z" />
    <glyph glyph-name="e" unicode="e" horiz-adv-x="466" 
d="M204 306h113q-2 64 -14.5 119.5t-32.5 80.5v2q73 -6 123 -64t55 -152h-244v14zM305 103q67 0 133 64l2 -1q-22 -70 -74 -122.5t-125 -52.5q-86 0 -152 67t-66 191q0 106 54.5 172t132.5 83v-2q-24 -21 -42 -71t-18 -124q0 -103 47 -153.5t108 -50.5z" />
    <glyph glyph-name="f" unicode="f" horiz-adv-x="300" 
d="M329 698q-77 -42 -100 -76.5t-23 -96.5v-25h88v-14h-88v-364q0 -48 9 -75t44 -45v-2h-248v2q34 18 43.5 45t9.5 75v364h-59v14h59v16q0 172 265 184v-2z" />
    <glyph glyph-name="g" unicode="g" horiz-adv-x="489" 
d="M279 165q23 35 23 140q0 60 -16.5 111.5t-41.5 81.5v2h238v-2l-94 -50q53 -44 53 -108q0 -70 -46.5 -115.5t-115.5 -61.5v2zM219 156q-48 0 -91.5 17t-75 56t-31.5 94q0 67 48.5 113.5t114.5 59.5v-2q-22 -44 -22 -137q0 -59 16.5 -118.5t40.5 -80.5v-2zM396 109
q87 0 87 -47q0 -33 -49 -85h-2q2 7 0.5 11.5t-13 7t-33.5 2.5h-259q-102 0 -102 53q0 27 27 51.5t71 41.5l2 -1q-6 -6 -6 -15q0 -19 52 -19h225zM183 -103q43 0 104.5 9t94.5 22h4q-132 -115 -274 -115q-56 0 -84 19t-28 52q0 40 45 78h4q0 -33 40 -49t94 -16z" />
    <glyph glyph-name="h" unicode="h" horiz-adv-x="525" 
d="M10 0v2q35 18 44 45t9 75v456q0 48 -9 75t-44 45v2h195v-578q0 -48 8 -76t36 -44v-2h-239zM265 480q63 26 110 26t68.5 -23t21.5 -60v-301q0 -48 9 -75t44 -45v-2h-240v2q27 16 36 45t9 75v292q0 34 -15 50t-43 14v2z" />
    <glyph glyph-name="i" unicode="i" horiz-adv-x="268" 
d="M130 554q-33 0 -56.5 22.5t-23.5 54.5q0 31 23.5 53.5t56.5 22.5t56.5 -22.5t23.5 -53.5q0 -32 -23.5 -54.5t-56.5 -22.5zM10 0v2q35 18 44 45t9 75v256q0 48 -9 75t-44 45v2h195v-378q0 -48 9 -75t44 -45v-2h-248z" />
    <glyph glyph-name="j" unicode="j" horiz-adv-x="259" 
d="M127 554q-33 0 -56.5 22.5t-23.5 54.5q0 31 23.5 53.5t56.5 22.5t56.5 -22.5t23.5 -53.5q0 -32 -23.5 -54.5t-56.5 -22.5zM-38 -182v2q61 38 79.5 76.5t18.5 103.5v378q0 48 -9.5 75t-43.5 45v2h195v-474q0 -174 -240 -208z" />
    <glyph glyph-name="k" unicode="k" horiz-adv-x="533" 
d="M448 139q82 -122 110 -137v-2h-236v2q19 13 19.5 33t-8 35.5t-30.5 51.5l-98 156v-156q0 -48 9 -75t44 -45v-2h-248v2q35 18 44 45t9 75v456q0 48 -9 75t-44 45v2h195v-417l93 81zM338 397q29 38 17 63t-55 38v2h228v-2q-93 -27 -187 -101h-3z" />
    <glyph glyph-name="l" unicode="l" horiz-adv-x="268" 
d="M10 0v2q35 18 44 45t9 75v456q0 48 -9 75t-44 45v2h195v-578q0 -48 9 -75t44 -45v-2h-248z" />
    <glyph glyph-name="m" unicode="m" horiz-adv-x="784" 
d="M265 480q63 26 110 26t68.5 -23t21.5 -60v-301q0 -48 7.5 -75.5t36.5 -44.5v-2h-231v2q27 16 36 45t9 75v291q0 37 -16 52t-42 13v2zM524 480q63 26 110 26t68.5 -23t21.5 -60v-301q0 -48 9 -75t44 -45v-2h-240v2q27 16 36 45t9 75v291q0 37 -16 52t-42 13v2zM10 0v2
q35 18 44 45t9 75v256q0 48 -9 75t-44 45v2h195v-378q0 -48 8 -76t36 -44v-2h-239z" />
    <glyph glyph-name="n" unicode="n" horiz-adv-x="525" 
d="M265 480q63 26 110 26t68.5 -23t21.5 -60v-301q0 -48 9 -75t44 -45v-2h-240v2q27 16 36 45t9 75v292q0 34 -15 50t-43 14v2zM10 0v2q35 18 44 45t9 75v256q0 48 -9 75t-44 45v2h195v-378q0 -48 8 -76t36 -44v-2h-239z" />
    <glyph glyph-name="o" unicode="o" horiz-adv-x="533" 
d="M323 -2q39 68 39 196q0 98 -24.5 186t-69.5 127v2q40 0 81 -16.5t78 -47t60 -81.5t23 -114q0 -102 -54 -168.5t-133 -85.5v2zM265 -11q-40 0 -81 16.5t-78 46.5t-60 81.5t-23 114.5q0 102 53.5 168t133.5 86v-2q-38 -73 -38 -201q0 -96 24.5 -182t68.5 -126v-2z" />
    <glyph glyph-name="p" unicode="p" horiz-adv-x="514" 
d="M10 -180v2q35 18 44 45t9 75v436q0 48 -9 75t-44 45v2h195v-558q0 -48 9 -75t44 -45v-2h-248zM265 2q81 32 81 196q0 85 -23 170.5t-58 129.5v2q105 -7 165.5 -65.5t60.5 -169.5q0 -118 -65.5 -184.5t-160.5 -80.5v2z" />
    <glyph glyph-name="q" unicode="q" horiz-adv-x="504" 
d="M249 498q-81 -32 -81 -196q0 -85 23 -170.5t58 -129.5v-2q-105 7 -165.5 65.5t-60.5 169.5q0 118 65.5 184.5t160.5 80.5v-2zM256 -180v2q35 18 44 45t9 75v558h142v-558q0 -48 9 -75t44 -45v-2h-248z" />
    <glyph glyph-name="r" unicode="r" horiz-adv-x="389" 
d="M10 0v2q35 18 44 45t9 75v256q0 48 -9 75t-44 45v2h195v-378q0 -48 9 -75t44 -45v-2h-248zM255 500q121 -4 139 -127l-120 -66q4 59 -1.5 116t-17.5 75v2z" />
    <glyph glyph-name="s" unicode="s" horiz-adv-x="435" 
d="M232 508q50 -2 152 -28l8 -164h-2q-89 170 -158 190v2zM270 -7q27 9 47 32.5t20 58.5q0 14 -4.5 25.5t-17.5 22t-23 17.5t-34 16.5l-37 14.5l-44 15q-86 30 -118 66t-32 92q0 66 41 104t104 49v-2q-64 -31 -64 -85q0 -15 8 -27t17.5 -20.5t32 -18.5t37 -15.5t47.5 -16.5
q84 -28 125.5 -66.5t41.5 -106.5q0 -71 -41.5 -109t-105.5 -48v2zM210 -10q-48 2 -169 27l-12 202h1q17 -37 29 -60t36 -61.5t53 -65t62 -40.5v-2z" />
    <glyph glyph-name="t" unicode="t" horiz-adv-x="311" 
d="M321 0q-94 -5 -149 4t-78 39t-27.5 55.5t-4.5 82.5v3v302h-57v12q49 2 105.5 51t91.5 119h2v-168h88v-14h-88v-319q0 -66 20 -99.5t97 -65.5v-2z" />
    <glyph glyph-name="u" unicode="u" horiz-adv-x="524" 
d="M260 20q-63 -26 -110 -26t-68.5 23t-21.5 60v301q0 48 -9 75t-44 45v2h195v-414q0 -36 14.5 -49.5t43.5 -14.5v-2zM319 0v378q0 48 -8 76t-36 44v2h186v-378q0 -48 9.5 -75t43.5 -45v-2h-195z" />
    <glyph glyph-name="v" unicode="v" horiz-adv-x="446" 
d="M232 0h-2l-157 378q-43 103 -66 120v2h239v-2q-40 -14 -46 -40.5t12 -64.5l87 -222zM367 369q38 106 -34 129v2h106v-2q-27 -25 -69 -129h-3z" />
    <glyph glyph-name="w" unicode="w" horiz-adv-x="687" 
d="M226 0l-155 378q-42 100 -64 120v2h237v-2q-40 -14 -46 -40.5t12 -64.5l84 -218l-66 -175h-2zM481 0l-153 378q-41 102 -64 120v2h237v-2q-40 -14 -46 -39.5t12 -65.5l81 -217l-65 -176h-2zM611 369q38 105 -37 129v2h106v-2q-19 -18 -66 -129h-3z" />
    <glyph glyph-name="x" unicode="x" horiz-adv-x="479" 
d="M226 0v2q38 14 41 40.5t-21 64.5l-153 271q-57 102 -81 120v2h238v-2q-38 -14 -41 -40.5t21 -64.5l153 -271q57 -102 81 -120v-2h-238zM334 369q70 100 -13 129v2h133v-2q-19 -14 -55.5 -54.5t-61.5 -74.5h-3zM130 131q-61 -92 26 -129v-2h-149v2q22 18 60 58t60 71h3z
" />
    <glyph glyph-name="y" unicode="y" horiz-adv-x="446" 
d="M228 5l-156 373q-44 104 -65 120v2h240v-2q-41 -14 -47.5 -40.5t11.5 -64.5l85 -220zM367 369q20 49 13.5 81.5t-47.5 47.5v2h106v-2q-25 -22 -69 -129h-3zM220 -19q-33 -93 -67.5 -132.5t-96.5 -39.5q-18 0 -26 2l-10 171h2q39 -44 99 -44q61 0 97 43h2z" />
    <glyph glyph-name="z" unicode="z" horiz-adv-x="471" 
d="M0 0v2l304 498h147v-2l-304 -498h-147zM235 497q-71 -5 -112.5 -41t-86.5 -137h-2l28 181h173v-3zM216 3q40 2 63 4.5t46 11.5t35.5 20t28 36t27 53.5t29.5 78.5h2l-16 -207h-215v3z" />
    <glyph glyph-name="braceleft" unicode="{" horiz-adv-x="329" 
d="M307 -191q-107 16 -155.5 73t-48.5 193q0 98 -14 138.5t-59 57.5v3q45 17 59 57.5t14 138.5q0 136 48.5 193t155.5 73l2 -4q-56 -22 -70.5 -72.5t-14.5 -189.5q0 -86 -28 -132.5t-110 -64.5v-1q82 -18 110 -64.5t28 -132.5q0 -139 14.5 -189.5t70.5 -72.5z" />
    <glyph glyph-name="bar" unicode="|" horiz-adv-x="215" 
d="M100 -90v824h15v-824h-15z" />
    <glyph glyph-name="braceright" unicode="}" horiz-adv-x="329" 
d="M22 736q107 -16 155.5 -73t48.5 -193q0 -98 14 -138.5t59 -57.5v-3q-45 -17 -59 -57.5t-14 -138.5q0 -136 -48.5 -193t-155.5 -73l-2 4q56 22 70.5 72.5t14.5 189.5q0 86 28 132.5t110 64.5v1q-82 18 -110 64.5t-28 132.5q0 139 -14.5 189.5t-70.5 72.5z" />
    <glyph glyph-name="exclamdown" unicode="&#xa1;" horiz-adv-x="232" 
d="M116 513q34 0 57.5 -23.5t23.5 -57.5q0 -33 -23.5 -56.5t-57.5 -23.5q-33 0 -56.5 23.5t-23.5 56.5q0 34 23.5 57.5t56.5 23.5zM117 299q3 -15 24.5 -76.5t38.5 -137.5t17 -153v-60q0 -34 -23.5 -57.5t-57.5 -23.5t-57.5 23.5t-23.5 57.5v59q0 77 16.5 153t38.5 138.5
t25 76.5h2z" />
    <glyph glyph-name="cent" unicode="&#xa2;" horiz-adv-x="443" 
 />
    <glyph glyph-name="sterling" unicode="&#xa3;" horiz-adv-x="472" 
d="M126 480q0 112 76.5 169.5t253.5 57.5v-2q-63 -16 -102 -35.5t-58 -48t-24.5 -56t-5.5 -72.5v-106h135v-14h-135v-108q0 -101 -67.5 -171t-189.5 -94v2q22 10 34 17t30 26.5t28 44.5t17.5 69t7.5 103v111h-93v14h93v93zM182 3q43 2 66.5 4t52 9.5t44.5 20t35 35
t33.5 54.5t31.5 80h2l-14 -206h-251v3z" />
    <glyph glyph-name="yen" unicode="&#xa5;" horiz-adv-x="591" 
 />
    <glyph glyph-name="section" unicode="&#xa7;" horiz-adv-x="502" 
 />
    <glyph glyph-name="copyright" unicode="&#xa9;" horiz-adv-x="783" 
 />
    <glyph glyph-name="guillemotleft" unicode="&#xab;" horiz-adv-x="397" 
 />
    <glyph glyph-name="registered" unicode="&#xae;" horiz-adv-x="429" 
 />
    <glyph glyph-name="degree" unicode="&#xb0;" horiz-adv-x="268" 
 />
    <glyph glyph-name="uni00B2" unicode="&#xb2;" horiz-adv-x="344" 
 />
    <glyph glyph-name="uni00B3" unicode="&#xb3;" horiz-adv-x="350" 
 />
    <glyph glyph-name="paragraph" unicode="&#xb6;" horiz-adv-x="581" 
 />
    <glyph glyph-name="periodcentered" unicode="&#xb7;" horiz-adv-x="233" 
 />
    <glyph glyph-name="uni00B9" unicode="&#xb9;" horiz-adv-x="244" 
 />
    <glyph glyph-name="guillemotright" unicode="&#xbb;" horiz-adv-x="397" 
 />
    <glyph glyph-name="onequarter" unicode="&#xbc;" horiz-adv-x="655" 
 />
    <glyph glyph-name="onehalf" unicode="&#xbd;" horiz-adv-x="718" 
 />
    <glyph glyph-name="threequarters" unicode="&#xbe;" horiz-adv-x="731" 
 />
    <glyph glyph-name="questiondown" unicode="&#xbf;" horiz-adv-x="305" 
d="M207 513q34 0 57.5 -23.5t23.5 -57.5q0 -33 -23.5 -56.5t-57.5 -23.5q-33 0 -56.5 23.5t-23.5 56.5q0 34 23.5 57.5t56.5 23.5zM347 -62l-26 -136q-90 -9 -113 -9q-52 0 -95.5 13.5t-75.5 49.5t-32 90q0 43 17 82t43.5 69.5t54 58.5t52.5 63t35 70h2q14 -54 -0.5 -107
t-36 -108t-21.5 -101q0 -87 82 -87q68 0 113 53z" />
    <glyph glyph-name="Agrave" unicode="&#xc0;" horiz-adv-x="652" 
d="M366 718q-141 53 -193 158h134q3 -38 22.5 -86t40.5 -72h-4zM555 156q53 -123 107 -154v-2h-319v2q92 34 52 130l-30 74h-254l5 14h243l-124 306l77 190h2zM95 154q-19 -55 -9 -94.5t60 -57.5v-2h-156v2q64 57 102 152h3z" />
    <glyph glyph-name="Aacute" unicode="&#xc1;" horiz-adv-x="652" 
d="M455 876q-52 -105 -193 -158h-4q21 24 40.5 72t22.5 86h134zM555 156q53 -123 107 -154v-2h-319v2q92 34 52 130l-30 74h-254l5 14h243l-124 306l77 190h2zM95 154q-19 -55 -9 -94.5t60 -57.5v-2h-156v2q64 57 102 152h3z" />
    <glyph glyph-name="Acircumflex" unicode="&#xc2;" horiz-adv-x="652" 
d="M314 820q-65 -71 -150 -102h-4q27 30 57.5 78t35.5 80h121q5 -32 35.5 -80t57.5 -78h-4q-85 31 -149 102zM555 156q53 -123 107 -154v-2h-319v2q92 34 52 130l-30 74h-254l5 14h243l-124 306l77 190h2zM95 154q-19 -55 -9 -94.5t60 -57.5v-2h-156v2q64 57 102 152h3z" />
    <glyph glyph-name="Atilde" unicode="&#xc3;" horiz-adv-x="652" 
d="M243 775q-28 0 -42.5 -9t-27.5 -36h-3q16 126 89 126q32 0 75 -13t67 -13q27 0 41.5 8.5t27.5 36.5h3q-16 -126 -89 -126q-31 0 -73.5 13t-67.5 13zM555 156q53 -123 107 -154v-2h-319v2q92 34 52 130l-30 74h-254l5 14h243l-124 306l77 190h2zM95 154q-19 -55 -9 -94.5
t60 -57.5v-2h-156v2q64 57 102 152h3z" />
    <glyph glyph-name="Adieresis" unicode="&#xc4;" horiz-adv-x="652" 
d="M217 735q-29 0 -50.5 21.5t-21.5 50.5t21.5 50.5t50.5 21.5q30 0 50.5 -21t20.5 -51t-20.5 -51t-50.5 -21zM410 735q-30 0 -50.5 21t-20.5 51t20.5 51t50.5 21q29 0 50.5 -21.5t21.5 -50.5t-21.5 -50.5t-50.5 -21.5zM555 156q53 -123 107 -154v-2h-319v2q92 34 52 130
l-30 74h-254l5 14h243l-124 306l77 190h2zM95 154q-19 -55 -9 -94.5t60 -57.5v-2h-156v2q64 57 102 152h3z" />
    <glyph glyph-name="Aring" unicode="&#xc5;" horiz-adv-x="652" 
d="M555 156q53 -123 107 -154v-2h-319v2q92 34 52 130l-30 74h-254l5 14h243l-124 306l72 177q-34 3 -56 27t-22 57q0 35 24.5 59.5t60.5 24.5t60.5 -24.5t24.5 -59.5q0 -33 -22.5 -57.5t-56.5 -26.5zM244 787q0 -30 20 -50.5t50 -20.5t50 20.5t20 50.5t-20 50.5t-50 20.5
t-50 -20.5t-20 -50.5zM95 154q-19 -55 -9 -94.5t60 -57.5v-2h-156v2q64 57 102 152h3z" />
    <glyph glyph-name="AE" unicode="&#xc6;" horiz-adv-x="928" 
d="M422 220v480h156v-700h-231v2q35 16 55 48t20 72v84h-277l8 14h269zM886 486q-37 117 -91 159.5t-156 51.5v3h235l14 -214h-2zM750 238q-38 123 -111 141v2q39 8 64 37.5t47 83.5h2v-264h-2zM903 232h2l-15 -232h-251v3q109 8 166 54.5t98 174.5zM119 154
q-27 -59 -24 -97t51 -55v-2h-156v2q72 62 126 152h3z" />
    <glyph glyph-name="Ccedilla" unicode="&#xc7;" horiz-adv-x="635" 
d="M376 712q40 0 89 -4.5t75 -4.5q30 0 47 5l14 -240h-2q-102 187 -223 242v2zM317 704q-127 -66 -127 -273q0 -142 65 -228.5t166 -86.5q118 0 201 115h2q-43 -117 -107.5 -180t-162.5 -63q-53 0 -108 23t-104 65.5t-80.5 114t-31.5 158.5q0 79 25 144.5t67.5 107.5
t91.5 68.5t103 36.5v-2zM324 -194q-36 0 -61 16t-36 36l1 2q26 -21 63 -21q58 0 58 45q0 19 -15 29t-39 10q-16 0 -28 -3l-1 1q28 33 77 33q33 0 56.5 -18t23.5 -51q0 -36 -27.5 -57.5t-71.5 -21.5z" />
    <glyph glyph-name="Egrave" unicode="&#xc8;" horiz-adv-x="599" 
d="M368 728q-141 53 -193 158h134q3 -38 22.5 -86t40.5 -72h-4zM249 700v-700h-231v2q35 16 55 48t20 72v456q0 40 -20 72t-55 48v2h231zM310 700h235l14 -214h-2q-37 117 -91 159.5t-156 51.5v3zM310 381q39 8 64 37.5t47 83.5h2v-264h-2q-38 123 -111 141v2zM310 3
q109 8 166 54.5t98 174.5h2l-15 -232h-251v3z" />
    <glyph glyph-name="Eacute" unicode="&#xc9;" horiz-adv-x="599" 
d="M260 728q21 24 40.5 72t22.5 86h134q-52 -105 -193 -158h-4zM249 700v-700h-231v2q35 16 55 48t20 72v456q0 40 -20 72t-55 48v2h231zM310 700h235l14 -214h-2q-37 117 -91 159.5t-156 51.5v3zM310 381q39 8 64 37.5t47 83.5h2v-264h-2q-38 123 -111 141v2zM310 3
q109 8 166 54.5t98 174.5h2l-15 -232h-251v3z" />
    <glyph glyph-name="Ecircumflex" unicode="&#xca;" horiz-adv-x="599" 
d="M162 728q27 30 57.5 78t35.5 80h121q5 -32 35.5 -80t57.5 -78h-4q-85 31 -149 102q-65 -71 -150 -102h-4zM249 700v-700h-231v2q35 16 55 48t20 72v456q0 40 -20 72t-55 48v2h231zM310 700h235l14 -214h-2q-37 117 -91 159.5t-156 51.5v3zM310 381q39 8 64 37.5t47 83.5
h2v-264h-2q-38 123 -111 141v2zM310 3q109 8 166 54.5t98 174.5h2l-15 -232h-251v3z" />
    <glyph glyph-name="Edieresis" unicode="&#xcb;" horiz-adv-x="599" 
d="M219 745q-29 0 -50.5 21.5t-21.5 50.5t21.5 50.5t50.5 21.5q30 0 50.5 -21t20.5 -51t-20.5 -51t-50.5 -21zM412 745q-30 0 -50.5 21t-20.5 51t20.5 51t50.5 21q29 0 50.5 -21.5t21.5 -50.5t-21.5 -50.5t-50.5 -21.5zM249 700v-700h-231v2q35 16 55 48t20 72v456
q0 40 -20 72t-55 48v2h231zM310 700h235l14 -214h-2q-37 117 -91 159.5t-156 51.5v3zM310 381q39 8 64 37.5t47 83.5h2v-264h-2q-38 123 -111 141v2zM310 3q109 8 166 54.5t98 174.5h2l-15 -232h-251v3z" />
    <glyph glyph-name="Igrave" unicode="&#xcc;" horiz-adv-x="342" 
d="M223 728q-141 53 -193 158h134q3 -38 22.5 -86t40.5 -72h-4zM18 0v2q35 16 55 48t20 72v456q0 40 -20 72t-55 48v2h306v-2q-34 -16 -54 -48t-20 -72v-456q0 -40 20 -72t54 -48v-2h-306z" />
    <glyph glyph-name="Iacute" unicode="&#xcd;" horiz-adv-x="342" 
d="M115 728q21 24 40.5 72t22.5 86h134q-52 -105 -193 -158h-4zM18 0v2q35 16 55 48t20 72v456q0 40 -20 72t-55 48v2h306v-2q-34 -16 -54 -48t-20 -72v-456q0 -40 20 -72t54 -48v-2h-306z" />
    <glyph glyph-name="Icircumflex" unicode="&#xce;" horiz-adv-x="342" 
d="M17 728q27 30 57.5 78t35.5 80h121q5 -32 35.5 -80t57.5 -78h-4q-85 31 -149 102q-65 -71 -150 -102h-4zM18 0v2q35 16 55 48t20 72v456q0 40 -20 72t-55 48v2h306v-2q-34 -16 -54 -48t-20 -72v-456q0 -40 20 -72t54 -48v-2h-306z" />
    <glyph glyph-name="Idieresis" unicode="&#xcf;" horiz-adv-x="342" 
d="M74 745q-29 0 -50.5 21.5t-21.5 50.5t21.5 50.5t50.5 21.5q30 0 50.5 -21t20.5 -51t-20.5 -51t-50.5 -21zM267 745q-30 0 -50.5 21t-20.5 51t20.5 51t50.5 21q29 0 50.5 -21.5t21.5 -50.5t-21.5 -50.5t-50.5 -21.5zM18 0v2q35 16 55 48t20 72v456q0 40 -20 72t-55 48v2
h306v-2q-34 -16 -54 -48t-20 -72v-456q0 -40 20 -72t54 -48v-2h-306z" />
    <glyph glyph-name="Eth" unicode="&#xd0;" horiz-adv-x="738" 
 />
    <glyph glyph-name="Ntilde" unicode="&#xd1;" horiz-adv-x="703" 
d="M228 740q16 126 89 126q32 0 75 -13t67 -13q27 0 41.5 8.5t27.5 36.5h3q-16 -126 -89 -126q-31 0 -73.5 13t-67.5 13q-28 0 -42.5 -9t-27.5 -36h-3zM611 -14l-484 605q-77 95 -109 107v2h227l369 -470v-244h-3zM603 546q-1 58 -25.5 97t-64.5 55v2h176v-2
q-36 -17 -59 -56t-24 -96h-3zM104 154q1 -57 25.5 -96.5t64.5 -55.5v-2h-176v2q36 16 59 56t24 96h3z" />
    <glyph glyph-name="Ograve" unicode="&#xd2;" horiz-adv-x="749" 
 />
    <glyph glyph-name="Oacute" unicode="&#xd3;" horiz-adv-x="749" 
d="M319 734q21 24 40.5 72t22.5 86h134q-52 -105 -193 -158h-4zM433 -6q43 21 77.5 98t34.5 194q0 148 -52.5 272.5t-119.5 151.5v2q44 1 90.5 -12t92.5 -42.5t82 -70.5t58.5 -102.5t22.5 -132.5q0 -77 -24.5 -142t-66 -108.5t-91 -71.5t-104.5 -38v2zM373 -11
q-55 -1 -113 21t-110.5 64.5t-86 114.5t-33.5 160q0 149 83.5 243t199.5 116v-2q-42 -23 -75.5 -99.5t-33.5 -191.5q0 -147 52 -273.5t117 -150.5v-2z" />
    <glyph glyph-name="Ocircumflex" unicode="&#xd4;" horiz-adv-x="749" 
d="M221 734q27 30 57.5 78t35.5 80h121q5 -32 35.5 -80t57.5 -78h-4q-85 31 -149 102q-65 -71 -150 -102h-4zM433 -6q43 21 77.5 98t34.5 194q0 148 -52.5 272.5t-119.5 151.5v2q44 1 90.5 -12t92.5 -42.5t82 -70.5t58.5 -102.5t22.5 -132.5q0 -77 -24.5 -142t-66 -108.5
t-91 -71.5t-104.5 -38v2zM373 -11q-55 -1 -113 21t-110.5 64.5t-86 114.5t-33.5 160q0 149 83.5 243t199.5 116v-2q-42 -23 -75.5 -99.5t-33.5 -191.5q0 -147 52 -273.5t117 -150.5v-2z" />
    <glyph glyph-name="Otilde" unicode="&#xd5;" horiz-adv-x="749" 
d="M231 746q16 126 89 126q32 0 75 -13t67 -13q27 0 41.5 8.5t27.5 36.5h3q-16 -126 -89 -126q-31 0 -73.5 13t-67.5 13q-28 0 -42.5 -9t-27.5 -36h-3zM433 -6q43 21 77.5 98t34.5 194q0 148 -52.5 272.5t-119.5 151.5v2q44 1 90.5 -12t92.5 -42.5t82 -70.5t58.5 -102.5
t22.5 -132.5q0 -77 -24.5 -142t-66 -108.5t-91 -71.5t-104.5 -38v2zM373 -11q-55 -1 -113 21t-110.5 64.5t-86 114.5t-33.5 160q0 149 83.5 243t199.5 116v-2q-42 -23 -75.5 -99.5t-33.5 -191.5q0 -147 52 -273.5t117 -150.5v-2z" />
    <glyph glyph-name="Odieresis" unicode="&#xd6;" horiz-adv-x="749" 
d="M278 751q-29 0 -50.5 21.5t-21.5 50.5t21.5 50.5t50.5 21.5q30 0 50.5 -21t20.5 -51t-20.5 -51t-50.5 -21zM471 751q-30 0 -50.5 21t-20.5 51t20.5 51t50.5 21q29 0 50.5 -21.5t21.5 -50.5t-21.5 -50.5t-50.5 -21.5zM433 -6q43 21 77.5 98t34.5 194q0 148 -52.5 272.5
t-119.5 151.5v2q44 1 90.5 -12t92.5 -42.5t82 -70.5t58.5 -102.5t22.5 -132.5q0 -77 -24.5 -142t-66 -108.5t-91 -71.5t-104.5 -38v2zM373 -11q-55 -1 -113 21t-110.5 64.5t-86 114.5t-33.5 160q0 149 83.5 243t199.5 116v-2q-42 -23 -75.5 -99.5t-33.5 -191.5
q0 -147 52 -273.5t117 -150.5v-2z" />
    <glyph glyph-name="multiply" unicode="&#xd7;" horiz-adv-x="472" 
 />
    <glyph glyph-name="Oslash" unicode="&#xd8;" horiz-adv-x="749" 
d="M614 612q105 -102 105 -260q0 -77 -24.5 -142t-66 -108.5t-91 -71.5t-104.5 -38v2q43 21 77.5 98t34.5 194q0 107 -31 211l-273 -314q24 -75 59.5 -127t72.5 -65v-2q-55 -1 -115.5 21.5t-109.5 65.5l-67 -76h-21l76 87q-106 101 -106 262q0 149 83.5 243t199.5 116v-2
q-42 -23 -75.5 -99.5t-33.5 -191.5q0 -108 31 -214l274 314q-25 75 -61 127t-75 68v2q56 2 118 -21t112 -68l67 77h21z" />
    <glyph glyph-name="Ugrave" unicode="&#xd9;" horiz-adv-x="666" 
d="M451 728q-141 53 -193 158h134q3 -38 22.5 -86t40.5 -72h-4zM530 70q-53 -82 -180 -82q-118 0 -191.5 59.5t-73.5 167.5v363q0 40 -20 72t-54 48v2h306v-2q-35 -16 -55 -48t-20 -72v-348q0 -211 153 -211q77 0 133 51h2zM573 546q-3 119 -84 152v2h168v-2
q-78 -36 -81 -152h-3z" />
    <glyph glyph-name="Uacute" unicode="&#xda;" horiz-adv-x="666" 
d="M343 728q21 24 40.5 72t22.5 86h134q-52 -105 -193 -158h-4zM530 70q-53 -82 -180 -82q-118 0 -191.5 59.5t-73.5 167.5v363q0 40 -20 72t-54 48v2h306v-2q-35 -16 -55 -48t-20 -72v-348q0 -211 153 -211q77 0 133 51h2zM573 546q-3 119 -84 152v2h168v-2
q-78 -36 -81 -152h-3z" />
    <glyph glyph-name="Ucircumflex" unicode="&#xdb;" horiz-adv-x="666" 
d="M245 728q27 30 57.5 78t35.5 80h121q5 -32 35.5 -80t57.5 -78h-4q-85 31 -149 102q-65 -71 -150 -102h-4zM530 70q-53 -82 -180 -82q-118 0 -191.5 59.5t-73.5 167.5v363q0 40 -20 72t-54 48v2h306v-2q-35 -16 -55 -48t-20 -72v-348q0 -211 153 -211q77 0 133 51h2z
M573 546q-3 119 -84 152v2h168v-2q-78 -36 -81 -152h-3z" />
    <glyph glyph-name="Udieresis" unicode="&#xdc;" horiz-adv-x="666" 
d="M302 745q-29 0 -50.5 21.5t-21.5 50.5t21.5 50.5t50.5 21.5q30 0 50.5 -21t20.5 -51t-20.5 -51t-50.5 -21zM495 745q-30 0 -50.5 21t-20.5 51t20.5 51t50.5 21q29 0 50.5 -21.5t21.5 -50.5t-21.5 -50.5t-50.5 -21.5zM530 70q-53 -82 -180 -82q-118 0 -191.5 59.5
t-73.5 167.5v363q0 40 -20 72t-54 48v2h306v-2q-35 -16 -55 -48t-20 -72v-348q0 -211 153 -211q77 0 133 51h2zM573 546q-3 119 -84 152v2h168v-2q-78 -36 -81 -152h-3z" />
    <glyph glyph-name="Yacute" unicode="&#xdd;" horiz-adv-x="608" 
 />
    <glyph glyph-name="Thorn" unicode="&#xde;" horiz-adv-x="600" 
 />
    <glyph glyph-name="germandbls" unicode="&#xdf;" horiz-adv-x="568" 
d="M347 472q21 -8 39.5 -17t50 -30t53 -45.5t38.5 -63.5t17 -84q0 -111 -69.5 -171.5t-166.5 -60.5h-40v2q145 35 145 174q0 75 -58 136.5t-131 103.5v2q76 37 120.5 82.5t44.5 111.5q0 70 -42 97v2q153 0 153 -91q0 -83 -154 -148zM194 122q0 -48 8.5 -75t41.5 -45v-2h-234
v2q33 18 41.5 45t8.5 75v362q0 96 67.5 151.5t161.5 70.5v-2q-95 -50 -95 -206v-376z" />
    <glyph glyph-name="agrave" unicode="&#xe0;" horiz-adv-x="471" 
d="M294 542q-141 53 -193 158h134q3 -38 22.5 -86t40.5 -72h-4zM247 506q11 1 32 1q69 0 100.5 -32.5t31.5 -84.5v-268q0 -48 9 -75t44 -45v-2h-193v419q0 72 -24 85v2zM202 501q-37 -18 -88 -57.5t-78 -66.5l-2 2l83 111q35 7 85 13v-2zM140 -5q-62 0 -94.5 36.5
t-32.5 82.5q0 52 29 83t102 74q36 21 67 42l1 -2q-65 -69 -65 -165q0 -52 17 -85t47 -41v-2q-41 -23 -71 -23z" />
    <glyph glyph-name="aacute" unicode="&#xe1;" horiz-adv-x="471" 
d="M186 542q21 24 40.5 72t22.5 86h134q-52 -105 -193 -158h-4zM247 506q11 1 32 1q69 0 100.5 -32.5t31.5 -84.5v-268q0 -48 9 -75t44 -45v-2h-193v419q0 72 -24 85v2zM202 501q-37 -18 -88 -57.5t-78 -66.5l-2 2l83 111q35 7 85 13v-2zM140 -5q-62 0 -94.5 36.5
t-32.5 82.5q0 52 29 83t102 74q36 21 67 42l1 -2q-65 -69 -65 -165q0 -52 17 -85t47 -41v-2q-41 -23 -71 -23z" />
    <glyph glyph-name="acircumflex" unicode="&#xe2;" horiz-adv-x="471" 
d="M88 542q27 30 57.5 78t35.5 80h121q5 -32 35.5 -80t57.5 -78h-4q-85 31 -149 102q-65 -71 -150 -102h-4zM247 506q11 1 32 1q69 0 100.5 -32.5t31.5 -84.5v-268q0 -48 9 -75t44 -45v-2h-193v419q0 72 -24 85v2zM202 501q-37 -18 -88 -57.5t-78 -66.5l-2 2l83 111
q35 7 85 13v-2zM140 -5q-62 0 -94.5 36.5t-32.5 82.5q0 52 29 83t102 74q36 21 67 42l1 -2q-65 -69 -65 -165q0 -52 17 -85t47 -41v-2q-41 -23 -71 -23z" />
    <glyph glyph-name="atilde" unicode="&#xe3;" horiz-adv-x="471" 
d="M98 554q16 126 89 126q32 0 75 -13t67 -13q27 0 41.5 8.5t27.5 36.5h3q-16 -126 -89 -126q-31 0 -73.5 13t-67.5 13q-28 0 -42.5 -9t-27.5 -36h-3zM247 506q11 1 32 1q69 0 100.5 -32.5t31.5 -84.5v-268q0 -48 9 -75t44 -45v-2h-193v419q0 72 -24 85v2zM202 501
q-37 -18 -88 -57.5t-78 -66.5l-2 2l83 111q35 7 85 13v-2zM140 -5q-62 0 -94.5 36.5t-32.5 82.5q0 52 29 83t102 74q36 21 67 42l1 -2q-65 -69 -65 -165q0 -52 17 -85t47 -41v-2q-41 -23 -71 -23z" />
    <glyph glyph-name="adieresis" unicode="&#xe4;" horiz-adv-x="471" 
d="M145 559q-29 0 -50.5 21.5t-21.5 50.5t21.5 50.5t50.5 21.5q30 0 50.5 -21t20.5 -51t-20.5 -51t-50.5 -21zM338 559q-30 0 -50.5 21t-20.5 51t20.5 51t50.5 21q29 0 50.5 -21.5t21.5 -50.5t-21.5 -50.5t-50.5 -21.5zM247 506q11 1 32 1q69 0 100.5 -32.5t31.5 -84.5v-268
q0 -48 9 -75t44 -45v-2h-193v419q0 72 -24 85v2zM202 501q-37 -18 -88 -57.5t-78 -66.5l-2 2l83 111q35 7 85 13v-2zM140 -5q-62 0 -94.5 36.5t-32.5 82.5q0 52 29 83t102 74q36 21 67 42l1 -2q-65 -69 -65 -165q0 -52 17 -85t47 -41v-2q-41 -23 -71 -23z" />
    <glyph glyph-name="aring" unicode="&#xe5;" horiz-adv-x="471" 
d="M225 710q-23 -6 -38 -25t-15 -44t15 -44t38 -25v-13q-30 6 -49 29t-19 53t19 53t49 29v-13zM259 710v13q30 -6 49 -29t19 -53t-19 -53t-49 -29v13q23 6 38 25t15 44t-15 44t-38 25zM247 506q11 1 32 1q69 0 100.5 -32.5t31.5 -84.5v-268q0 -48 9 -75t44 -45v-2h-193v419
q0 72 -24 85v2zM202 501q-37 -18 -88 -57.5t-78 -66.5l-2 2l83 111q35 7 85 13v-2zM140 -5q-62 0 -94.5 36.5t-32.5 82.5q0 52 29 83t102 74q36 21 67 42l1 -2q-65 -69 -65 -165q0 -52 17 -85t47 -41v-2q-41 -23 -71 -23z" />
    <glyph glyph-name="ae" unicode="&#xe6;" horiz-adv-x="713" 
d="M451 306h113q-2 64 -14.5 119.5t-32.5 80.5v2q73 -6 123 -64t55 -152h-244v14zM552 103q67 0 133 64l2 -1q-22 -70 -74 -122.5t-125 -52.5q-86 0 -151.5 67t-65.5 191v170q0 72 -24 85v2q11 1 32 1q70 0 96 -38q40 26 82 35v-2q-24 -21 -42 -71t-18 -124
q0 -103 47 -153.5t108 -50.5zM202 501q-37 -18 -88 -57.5t-78 -66.5l-2 2l83 111q35 7 85 13v-2zM211 313l1 -2q-65 -69 -65 -165q0 -52 17 -85t47 -41v-2q-41 -23 -71 -23q-62 0 -94.5 36.5t-32.5 82.5q0 52 29 83t102 74q36 21 67 42z" />
    <glyph glyph-name="ccedilla" unicode="&#xe7;" horiz-adv-x="445" 
d="M270 508q51 -4 93 -34t67 -83l-159 -79l-2 1q12 36 12.5 97.5t-11.5 95.5v2zM210 500q-47 -68 -47 -192q0 -103 42.5 -153t99.5 -50q77 0 133 62l2 -1q-20 -62 -76 -117.5t-122 -55.5q-86 0 -152.5 66.5t-66.5 187.5q0 104 55 171.5t132 83.5v-2zM222 -194q-36 0 -61 16
t-36 36l1 2q26 -21 63 -21q58 0 58 45q0 19 -15 29t-39 10q-16 0 -28 -3l-1 1q28 33 77 33q33 0 56.5 -18t23.5 -51q0 -36 -27.5 -57.5t-71.5 -21.5z" />
    <glyph glyph-name="egrave" unicode="&#xe8;" horiz-adv-x="466" 
d="M301 542q-141 53 -193 158h134q3 -38 22.5 -86t40.5 -72h-4zM270 506v2q73 -6 123 -64t55 -152h-244v14h113q-2 64 -14.5 119.5t-32.5 80.5zM305 103q67 0 133 64l2 -1q-22 -70 -74 -122.5t-125 -52.5q-86 0 -152 67t-66 191q0 106 54.5 172t132.5 83v-2q-24 -21 -42 -71
t-18 -124q0 -103 47 -153.5t108 -50.5z" />
    <glyph glyph-name="eacute" unicode="&#xe9;" horiz-adv-x="466" 
d="M390 700q-52 -105 -193 -158h-4q21 24 40.5 72t22.5 86h134zM204 292v14h113q-2 64 -14.5 119.5t-32.5 80.5v2q73 -6 123 -64t55 -152h-244zM305 103q67 0 133 64l2 -1q-22 -70 -74 -122.5t-125 -52.5q-86 0 -152 67t-66 191q0 106 54.5 172t132.5 83v-2q-24 -21 -42 -71
t-18 -124q0 -103 47 -153.5t108 -50.5z" />
    <glyph glyph-name="ecircumflex" unicode="&#xea;" horiz-adv-x="466" 
d="M249 644q-65 -71 -150 -102h-4q27 30 57.5 78t35.5 80h121q5 -32 35.5 -80t57.5 -78h-4q-85 31 -149 102zM204 292v14h113q-2 64 -14.5 119.5t-32.5 80.5v2q73 -6 123 -64t55 -152h-244zM305 103q67 0 133 64l2 -1q-22 -70 -74 -122.5t-125 -52.5q-86 0 -152 67t-66 191
q0 106 54.5 172t132.5 83v-2q-24 -21 -42 -71t-18 -124q0 -103 47 -153.5t108 -50.5z" />
    <glyph glyph-name="edieresis" unicode="&#xeb;" horiz-adv-x="466" 
d="M152 559q-29 0 -50.5 21.5t-21.5 50.5t21.5 50.5t50.5 21.5q30 0 50.5 -21t20.5 -51t-20.5 -51t-50.5 -21zM345 559q-30 0 -50.5 21t-20.5 51t20.5 51t50.5 21q29 0 50.5 -21.5t21.5 -50.5t-21.5 -50.5t-50.5 -21.5zM204 306h113q-2 64 -14.5 119.5t-32.5 80.5v2
q73 -6 123 -64t55 -152h-244v14zM305 103q67 0 133 64l2 -1q-22 -70 -74 -122.5t-125 -52.5q-86 0 -152 67t-66 191q0 106 54.5 172t132.5 83v-2q-24 -21 -42 -71t-18 -124q0 -103 47 -153.5t108 -50.5z" />
    <glyph glyph-name="igrave" unicode="&#xec;" horiz-adv-x="268" 
d="M181 542q-141 53 -193 158h134q3 -38 22.5 -86t40.5 -72h-4zM10 0v2q35 18 44 45t9 75v256q0 48 -9 75t-44 45v2h195v-378q0 -48 9 -75t44 -45v-2h-248z" />
    <glyph glyph-name="iacute" unicode="&#xed;" horiz-adv-x="268" 
d="M73 542q21 24 40.5 72t22.5 86h134q-52 -105 -193 -158h-4zM10 0v2q35 18 44 45t9 75v256q0 48 -9 75t-44 45v2h195v-378q0 -48 9 -75t44 -45v-2h-248z" />
    <glyph glyph-name="icircumflex" unicode="&#xee;" horiz-adv-x="268" 
d="M-25 542q27 30 57.5 78t35.5 80h121q5 -32 35.5 -80t57.5 -78h-4q-85 31 -149 102q-65 -71 -150 -102h-4zM10 0v2q35 18 44 45t9 75v256q0 48 -9 75t-44 45v2h195v-378q0 -48 9 -75t44 -45v-2h-248z" />
    <glyph glyph-name="idieresis" unicode="&#xef;" horiz-adv-x="268" 
d="M32 559q-29 0 -50.5 21.5t-21.5 50.5t21.5 50.5t50.5 21.5q30 0 50.5 -21t20.5 -51t-20.5 -51t-50.5 -21zM225 559q-30 0 -50.5 21t-20.5 51t20.5 51t50.5 21q29 0 50.5 -21.5t21.5 -50.5t-21.5 -50.5t-50.5 -21.5zM10 0v2q35 18 44 45t9 75v256q0 48 -9 75t-44 45v2h195
v-378q0 -48 9 -75t44 -45v-2h-248z" />
    <glyph glyph-name="eth" unicode="&#xf0;" horiz-adv-x="536" 
 />
    <glyph glyph-name="ntilde" unicode="&#xf1;" horiz-adv-x="525" 
d="M119 554q16 126 89 126q32 0 75 -13t67 -13q27 0 41.5 8.5t27.5 36.5h3q-16 -126 -89 -126q-31 0 -73.5 13t-67.5 13q-28 0 -42.5 -9t-27.5 -36h-3zM265 480q63 26 110 26t68.5 -23t21.5 -60v-301q0 -48 9 -75t44 -45v-2h-240v2q27 16 36 45t9 75v292q0 34 -15 50t-43 14
v2zM10 0v2q35 18 44 45t9 75v256q0 48 -9 75t-44 45v2h195v-378q0 -48 8 -76t36 -44v-2h-239z" />
    <glyph glyph-name="ograve" unicode="&#xf2;" horiz-adv-x="533" 
d="M319 542q-141 53 -193 158h134q3 -38 22.5 -86t40.5 -72h-4zM323 -2q39 68 39 196q0 98 -24.5 186t-69.5 127v2q40 0 81 -16.5t78 -47t60 -81.5t23 -114q0 -102 -54 -168.5t-133 -85.5v2zM265 -11q-40 0 -81 16.5t-78 46.5t-60 81.5t-23 114.5q0 102 53.5 168t133.5 86
v-2q-38 -73 -38 -201q0 -96 24.5 -182t68.5 -126v-2z" />
    <glyph glyph-name="oacute" unicode="&#xf3;" horiz-adv-x="533" 
d="M211 542q21 24 40.5 72t22.5 86h134q-52 -105 -193 -158h-4zM323 -2q39 68 39 196q0 98 -24.5 186t-69.5 127v2q40 0 81 -16.5t78 -47t60 -81.5t23 -114q0 -102 -54 -168.5t-133 -85.5v2zM265 -11q-40 0 -81 16.5t-78 46.5t-60 81.5t-23 114.5q0 102 53.5 168t133.5 86
v-2q-38 -73 -38 -201q0 -96 24.5 -182t68.5 -126v-2z" />
    <glyph glyph-name="ocircumflex" unicode="&#xf4;" horiz-adv-x="533" 
d="M113 542q27 30 57.5 78t35.5 80h121q5 -32 35.5 -80t57.5 -78h-4q-85 31 -149 102q-65 -71 -150 -102h-4zM323 -2q39 68 39 196q0 98 -24.5 186t-69.5 127v2q40 0 81 -16.5t78 -47t60 -81.5t23 -114q0 -102 -54 -168.5t-133 -85.5v2zM265 -11q-40 0 -81 16.5t-78 46.5
t-60 81.5t-23 114.5q0 102 53.5 168t133.5 86v-2q-38 -73 -38 -201q0 -96 24.5 -182t68.5 -126v-2z" />
    <glyph glyph-name="otilde" unicode="&#xf5;" horiz-adv-x="533" 
d="M123 554q16 126 89 126q32 0 75 -13t67 -13q27 0 41.5 8.5t27.5 36.5h3q-16 -126 -89 -126q-31 0 -73.5 13t-67.5 13q-28 0 -42.5 -9t-27.5 -36h-3zM323 -2q39 68 39 196q0 98 -24.5 186t-69.5 127v2q40 0 81 -16.5t78 -47t60 -81.5t23 -114q0 -102 -54 -168.5
t-133 -85.5v2zM265 -11q-40 0 -81 16.5t-78 46.5t-60 81.5t-23 114.5q0 102 53.5 168t133.5 86v-2q-38 -73 -38 -201q0 -96 24.5 -182t68.5 -126v-2z" />
    <glyph glyph-name="odieresis" unicode="&#xf6;" horiz-adv-x="533" 
d="M170 559q-29 0 -50.5 21.5t-21.5 50.5t21.5 50.5t50.5 21.5q30 0 50.5 -21t20.5 -51t-20.5 -51t-50.5 -21zM363 559q-30 0 -50.5 21t-20.5 51t20.5 51t50.5 21q29 0 50.5 -21.5t21.5 -50.5t-21.5 -50.5t-50.5 -21.5zM323 -2q39 68 39 196q0 98 -24.5 186t-69.5 127v2
q40 0 81 -16.5t78 -47t60 -81.5t23 -114q0 -102 -54 -168.5t-133 -85.5v2zM265 -11q-40 0 -81 16.5t-78 46.5t-60 81.5t-23 114.5q0 102 53.5 168t133.5 86v-2q-38 -73 -38 -201q0 -96 24.5 -182t68.5 -126v-2z" />
    <glyph glyph-name="divide" unicode="&#xf7;" horiz-adv-x="516" 
 />
    <glyph glyph-name="oslash" unicode="&#xf8;" horiz-adv-x="533" 
d="M434 439q76 -73 76 -189q0 -102 -54 -168.5t-133 -85.5v2q39 68 39 196q0 71 -14 143l-159 -190q24 -107 76 -156v-2q-88 0 -157 62l-43 -51h-20l51 61q-73 75 -73 187q0 102 53.5 168t133.5 86v-2q-38 -73 -38 -201q0 -71 13 -133l159 190q-27 107 -76 151v2
q84 0 154 -60l46 55h20z" />
    <glyph glyph-name="ugrave" unicode="&#xf9;" horiz-adv-x="524" 
d="M314 542q-141 53 -193 158h134q3 -38 22.5 -86t40.5 -72h-4zM260 20q-63 -26 -110 -26t-68.5 23t-21.5 60v301q0 48 -9 75t-44 45v2h195v-414q0 -36 14.5 -49.5t43.5 -14.5v-2zM319 0v378q0 48 -8 76t-36 44v2h186v-378q0 -48 9.5 -75t43.5 -45v-2h-195z" />
    <glyph glyph-name="uacute" unicode="&#xfa;" horiz-adv-x="524" 
d="M206 542q21 24 40.5 72t22.5 86h134q-52 -105 -193 -158h-4zM260 20q-63 -26 -110 -26t-68.5 23t-21.5 60v301q0 48 -9 75t-44 45v2h195v-414q0 -36 14.5 -49.5t43.5 -14.5v-2zM319 0v378q0 48 -8 76t-36 44v2h186v-378q0 -48 9.5 -75t43.5 -45v-2h-195z" />
    <glyph glyph-name="ucircumflex" unicode="&#xfb;" horiz-adv-x="524" 
d="M108 542q27 30 57.5 78t35.5 80h121q5 -32 35.5 -80t57.5 -78h-4q-85 31 -149 102q-65 -71 -150 -102h-4zM260 20q-63 -26 -110 -26t-68.5 23t-21.5 60v301q0 48 -9 75t-44 45v2h195v-414q0 -36 14.5 -49.5t43.5 -14.5v-2zM319 0v378q0 48 -8 76t-36 44v2h186v-378
q0 -48 9.5 -75t43.5 -45v-2h-195z" />
    <glyph glyph-name="udieresis" unicode="&#xfc;" horiz-adv-x="524" 
d="M165 559q-29 0 -50.5 21.5t-21.5 50.5t21.5 50.5t50.5 21.5q30 0 50.5 -21t20.5 -51t-20.5 -51t-50.5 -21zM358 559q-30 0 -50.5 21t-20.5 51t20.5 51t50.5 21q29 0 50.5 -21.5t21.5 -50.5t-21.5 -50.5t-50.5 -21.5zM260 20q-63 -26 -110 -26t-68.5 23t-21.5 60v301
q0 48 -9 75t-44 45v2h195v-414q0 -36 14.5 -49.5t43.5 -14.5v-2zM319 0v378q0 48 -8 76t-36 44v2h186v-378q0 -48 9.5 -75t43.5 -45v-2h-195z" />
    <glyph glyph-name="yacute" unicode="&#xfd;" horiz-adv-x="446" 
 />
    <glyph glyph-name="thorn" unicode="&#xfe;" horiz-adv-x="514" 
 />
    <glyph glyph-name="ydieresis" unicode="&#xff;" horiz-adv-x="446" 
d="M140 559q-29 0 -50.5 21.5t-21.5 50.5t21.5 50.5t50.5 21.5q30 0 50.5 -21t20.5 -51t-20.5 -51t-50.5 -21zM333 559q-30 0 -50.5 21t-20.5 51t20.5 51t50.5 21q29 0 50.5 -21.5t21.5 -50.5t-21.5 -50.5t-50.5 -21.5zM228 5l-156 373q-44 104 -65 120v2h240v-2
q-41 -14 -47.5 -40.5t11.5 -64.5l85 -220zM367 369q20 49 13.5 81.5t-47.5 47.5v2h106v-2q-25 -22 -69 -129h-3zM220 -19q-33 -93 -67.5 -132.5t-96.5 -39.5q-18 0 -26 2l-10 171h2q39 -44 99 -44q61 0 97 43h2z" />
    <glyph glyph-name="Amacron" unicode="&#x100;" horiz-adv-x="652" 
 />
    <glyph glyph-name="amacron" unicode="&#x101;" horiz-adv-x="471" 
 />
    <glyph glyph-name="Abreve" unicode="&#x102;" horiz-adv-x="652" 
 />
    <glyph glyph-name="abreve" unicode="&#x103;" horiz-adv-x="471" 
 />
    <glyph glyph-name="Aogonek" unicode="&#x104;" horiz-adv-x="652" 
 />
    <glyph glyph-name="aogonek" unicode="&#x105;" horiz-adv-x="471" 
 />
    <glyph glyph-name="Cacute" unicode="&#x106;" horiz-adv-x="635" 
 />
    <glyph glyph-name="cacute" unicode="&#x107;" horiz-adv-x="445" 
 />
    <glyph glyph-name="Cdotaccent" unicode="&#x10a;" horiz-adv-x="635" 
 />
    <glyph glyph-name="cdotaccent" unicode="&#x10b;" horiz-adv-x="445" 
 />
    <glyph glyph-name="Ccaron" unicode="&#x10c;" horiz-adv-x="635" 
 />
    <glyph glyph-name="ccaron" unicode="&#x10d;" horiz-adv-x="445" 
 />
    <glyph glyph-name="Dcaron" unicode="&#x10e;" horiz-adv-x="724" 
 />
    <glyph glyph-name="dcaron" unicode="&#x10f;" horiz-adv-x="514" 
 />
    <glyph glyph-name="Dcroat" unicode="&#x110;" horiz-adv-x="738" 
 />
    <glyph glyph-name="dcroat" unicode="&#x111;" horiz-adv-x="514" 
 />
    <glyph glyph-name="Emacron" unicode="&#x112;" horiz-adv-x="599" 
 />
    <glyph glyph-name="emacron" unicode="&#x113;" horiz-adv-x="466" 
 />
    <glyph glyph-name="Edotaccent" unicode="&#x116;" horiz-adv-x="599" 
 />
    <glyph glyph-name="edotaccent" unicode="&#x117;" horiz-adv-x="466" 
 />
    <glyph glyph-name="Eogonek" unicode="&#x118;" horiz-adv-x="599" 
 />
    <glyph glyph-name="eogonek" unicode="&#x119;" horiz-adv-x="466" 
 />
    <glyph glyph-name="Ecaron" unicode="&#x11a;" horiz-adv-x="599" 
 />
    <glyph glyph-name="ecaron" unicode="&#x11b;" horiz-adv-x="466" 
 />
    <glyph glyph-name="Gbreve" unicode="&#x11e;" horiz-adv-x="719" 
 />
    <glyph glyph-name="gbreve" unicode="&#x11f;" horiz-adv-x="489" 
 />
    <glyph glyph-name="Gdotaccent" unicode="&#x120;" horiz-adv-x="719" 
 />
    <glyph glyph-name="gdotaccent" unicode="&#x121;" horiz-adv-x="489" 
 />
    <glyph glyph-name="uni0122" unicode="&#x122;" horiz-adv-x="719" 
 />
    <glyph glyph-name="uni0123" unicode="&#x123;" horiz-adv-x="489" 
 />
    <glyph glyph-name="Hbar" unicode="&#x126;" horiz-adv-x="748" 
 />
    <glyph glyph-name="hbar" unicode="&#x127;" horiz-adv-x="525" 
 />
    <glyph glyph-name="Imacron" unicode="&#x12a;" horiz-adv-x="342" 
 />
    <glyph glyph-name="imacron" unicode="&#x12b;" horiz-adv-x="268" 
 />
    <glyph glyph-name="Iogonek" unicode="&#x12e;" horiz-adv-x="342" 
 />
    <glyph glyph-name="iogonek" unicode="&#x12f;" horiz-adv-x="268" 
 />
    <glyph glyph-name="Idotaccent" unicode="&#x130;" horiz-adv-x="342" 
 />
    <glyph glyph-name="dotlessi" unicode="&#x131;" horiz-adv-x="268" 
 />
    <glyph glyph-name="uni0136" unicode="&#x136;" horiz-adv-x="716" 
 />
    <glyph glyph-name="uni0137" unicode="&#x137;" horiz-adv-x="533" 
 />
    <glyph glyph-name="Lacute" unicode="&#x139;" horiz-adv-x="623" 
 />
    <glyph glyph-name="lacute" unicode="&#x13a;" horiz-adv-x="268" 
 />
    <glyph glyph-name="uni013B" unicode="&#x13b;" horiz-adv-x="623" 
 />
    <glyph glyph-name="uni013C" unicode="&#x13c;" horiz-adv-x="268" 
 />
    <glyph glyph-name="Lcaron" unicode="&#x13d;" horiz-adv-x="623" 
 />
    <glyph glyph-name="lcaron" unicode="&#x13e;" horiz-adv-x="268" 
 />
    <glyph glyph-name="Lslash" unicode="&#x141;" horiz-adv-x="645" 
 />
    <glyph glyph-name="lslash" unicode="&#x142;" horiz-adv-x="291" 
 />
    <glyph glyph-name="Nacute" unicode="&#x143;" horiz-adv-x="703" 
 />
    <glyph glyph-name="nacute" unicode="&#x144;" horiz-adv-x="525" 
 />
    <glyph glyph-name="uni0145" unicode="&#x145;" horiz-adv-x="703" 
 />
    <glyph glyph-name="uni0146" unicode="&#x146;" horiz-adv-x="525" 
 />
    <glyph glyph-name="Ncaron" unicode="&#x147;" horiz-adv-x="703" 
 />
    <glyph glyph-name="ncaron" unicode="&#x148;" horiz-adv-x="525" 
 />
    <glyph glyph-name="Eng" unicode="&#x14a;" horiz-adv-x="703" 
 />
    <glyph glyph-name="eng" unicode="&#x14b;" horiz-adv-x="517" 
 />
    <glyph glyph-name="Omacron" unicode="&#x14c;" horiz-adv-x="749" 
 />
    <glyph glyph-name="omacron" unicode="&#x14d;" horiz-adv-x="533" 
 />
    <glyph glyph-name="Ohungarumlaut" unicode="&#x150;" horiz-adv-x="749" 
 />
    <glyph glyph-name="ohungarumlaut" unicode="&#x151;" horiz-adv-x="533" 
 />
    <glyph glyph-name="OE" unicode="&#x152;" horiz-adv-x="1051" 
d="M372 708q12 0 84 -4t180 -4h65v-700h-139q-50 0 -128 -5v2q43 17 77 92.5t34 196.5q0 150 -52 271t-121 149v2zM204 415q0 -147 50 -265t119 -155v-2q-56 0 -113.5 22t-110 63t-86 112t-33.5 159q0 149 84 241.5t200 114.5v-2q-110 -78 -110 -288zM1009 486
q-37 117 -91 159.5t-156 51.5v3h235l14 -214h-2zM873 238q-38 123 -111 141v2q39 8 64 37.5t47 83.5h2v-264h-2zM1026 232h2l-15 -232h-251v3q109 8 166 54.5t98 174.5z" />
    <glyph glyph-name="oe" unicode="&#x153;" horiz-adv-x="825" 
d="M664 103q67 0 133 64l2 -1q-22 -70 -74 -122.5t-125 -52.5q-94 0 -158 74q-50 -53 -119 -69v2q16 27 27.5 80.5t11.5 113.5q0 110 -27 195t-67 120v2q104 -2 175 -80q50 58 126 75v-2q-24 -21 -42 -71t-18 -124q0 -103 47 -153.5t108 -50.5zM563 306h113
q-2 64 -14.5 119.5t-32.5 80.5v2q73 -6 123 -64t55 -152h-244v14zM171 306q0 -108 28 -194t66 -121v-2q-40 0 -81 16.5t-78 46.5t-60 81.5t-23 114.5q0 102 53.5 168t133.5 86v-2q-39 -76 -39 -194z" />
    <glyph glyph-name="Racute" unicode="&#x154;" horiz-adv-x="676" 
 />
    <glyph glyph-name="racute" unicode="&#x155;" horiz-adv-x="389" 
 />
    <glyph glyph-name="uni0156" unicode="&#x156;" horiz-adv-x="676" 
 />
    <glyph glyph-name="uni0157" unicode="&#x157;" horiz-adv-x="389" 
 />
    <glyph glyph-name="Rcaron" unicode="&#x158;" horiz-adv-x="676" 
 />
    <glyph glyph-name="rcaron" unicode="&#x159;" horiz-adv-x="389" 
 />
    <glyph glyph-name="Sacute" unicode="&#x15a;" horiz-adv-x="567" 
 />
    <glyph glyph-name="sacute" unicode="&#x15b;" horiz-adv-x="435" 
 />
    <glyph glyph-name="Scedilla" unicode="&#x15e;" horiz-adv-x="567" 
 />
    <glyph glyph-name="scedilla" unicode="&#x15f;" horiz-adv-x="435" 
 />
    <glyph glyph-name="Scaron" unicode="&#x160;" horiz-adv-x="567" 
 />
    <glyph glyph-name="scaron" unicode="&#x161;" horiz-adv-x="435" 
 />
    <glyph glyph-name="uni0162" unicode="&#x162;" horiz-adv-x="653" 
 />
    <glyph glyph-name="uni0163" unicode="&#x163;" horiz-adv-x="311" 
 />
    <glyph glyph-name="Tcaron" unicode="&#x164;" horiz-adv-x="653" 
 />
    <glyph glyph-name="tcaron" unicode="&#x165;" horiz-adv-x="311" 
 />
    <glyph glyph-name="Tbar" unicode="&#x166;" horiz-adv-x="653" 
 />
    <glyph glyph-name="tbar" unicode="&#x167;" horiz-adv-x="311" 
 />
    <glyph glyph-name="Umacron" unicode="&#x16a;" horiz-adv-x="666" 
 />
    <glyph glyph-name="umacron" unicode="&#x16b;" horiz-adv-x="524" 
 />
    <glyph glyph-name="Uring" unicode="&#x16e;" horiz-adv-x="666" 
 />
    <glyph glyph-name="uring" unicode="&#x16f;" horiz-adv-x="524" 
 />
    <glyph glyph-name="Uhungarumlaut" unicode="&#x170;" horiz-adv-x="666" 
 />
    <glyph glyph-name="uhungarumlaut" unicode="&#x171;" horiz-adv-x="524" 
 />
    <glyph glyph-name="Uogonek" unicode="&#x172;" horiz-adv-x="681" 
 />
    <glyph glyph-name="uogonek" unicode="&#x173;" horiz-adv-x="524" 
 />
    <glyph glyph-name="Wcircumflex" unicode="&#x174;" horiz-adv-x="994" 
 />
    <glyph glyph-name="wcircumflex" unicode="&#x175;" horiz-adv-x="687" 
 />
    <glyph glyph-name="Ycircumflex" unicode="&#x176;" horiz-adv-x="608" 
 />
    <glyph glyph-name="ycircumflex" unicode="&#x177;" horiz-adv-x="446" 
 />
    <glyph glyph-name="Ydieresis" unicode="&#x178;" horiz-adv-x="608" 
d="M238 745q-29 0 -50.5 21.5t-21.5 50.5t21.5 50.5t50.5 21.5q30 0 50.5 -21t20.5 -51t-20.5 -51t-50.5 -21zM431 745q-30 0 -50.5 21t-20.5 51t20.5 51t50.5 21q29 0 50.5 -21.5t21.5 -50.5t-21.5 -50.5t-50.5 -21.5zM382 122q0 -40 20.5 -72t55.5 -48v-2h-308v2
q35 16 55.5 48t20.5 72v188l-115 235q-62 125 -111 153v2h319v-2q-92 -34 -48 -129l111 -237v-210zM447 700h150v-2q-39 -30 -109 -152h-3q27 56 19.5 95t-57.5 57v2z" />
    <glyph glyph-name="Zacute" unicode="&#x179;" horiz-adv-x="610" 
 />
    <glyph glyph-name="zacute" unicode="&#x17a;" horiz-adv-x="471" 
 />
    <glyph glyph-name="Zdotaccent" unicode="&#x17b;" horiz-adv-x="610" 
 />
    <glyph glyph-name="zdotaccent" unicode="&#x17c;" horiz-adv-x="471" 
 />
    <glyph glyph-name="Zcaron" unicode="&#x17d;" horiz-adv-x="610" 
 />
    <glyph glyph-name="zcaron" unicode="&#x17e;" horiz-adv-x="471" 
 />
    <glyph glyph-name="uni0218" unicode="&#x218;" horiz-adv-x="567" 
 />
    <glyph glyph-name="uni0219" unicode="&#x219;" horiz-adv-x="435" 
 />
    <glyph glyph-name="uni021A" unicode="&#x21a;" horiz-adv-x="653" 
 />
    <glyph glyph-name="uni021B" unicode="&#x21b;" horiz-adv-x="311" 
 />
    <glyph glyph-name="gravecomb" unicode="&#x300;" 
 />
    <glyph glyph-name="acutecomb" unicode="&#x301;" 
 />
    <glyph glyph-name="uni0302" unicode="&#x302;" 
 />
    <glyph glyph-name="tildecomb" unicode="&#x303;" 
 />
    <glyph glyph-name="uni0304" unicode="&#x304;" 
 />
    <glyph glyph-name="uni0306" unicode="&#x306;" 
 />
    <glyph glyph-name="uni0307" unicode="&#x307;" 
 />
    <glyph glyph-name="uni0308" unicode="&#x308;" 
 />
    <glyph glyph-name="uni030A" unicode="&#x30a;" 
 />
    <glyph glyph-name="uni030B" unicode="&#x30b;" 
 />
    <glyph glyph-name="uni030C" unicode="&#x30c;" 
 />
    <glyph glyph-name="uni0312" unicode="&#x312;" 
 />
    <glyph glyph-name="uni0326" unicode="&#x326;" 
 />
    <glyph glyph-name="uni0327" unicode="&#x327;" 
 />
    <glyph glyph-name="uni0328" unicode="&#x328;" 
 />
    <glyph glyph-name="uni0335" unicode="&#x335;" 
 />
    <glyph glyph-name="uni0336" unicode="&#x336;" 
 />
    <glyph glyph-name="Wgrave" unicode="&#x1e80;" horiz-adv-x="994" 
 />
    <glyph glyph-name="wgrave" unicode="&#x1e81;" horiz-adv-x="687" 
 />
    <glyph glyph-name="Wacute" unicode="&#x1e82;" horiz-adv-x="994" 
 />
    <glyph glyph-name="wacute" unicode="&#x1e83;" horiz-adv-x="687" 
 />
    <glyph glyph-name="Wdieresis" unicode="&#x1e84;" horiz-adv-x="994" 
 />
    <glyph glyph-name="wdieresis" unicode="&#x1e85;" horiz-adv-x="687" 
 />
    <glyph glyph-name="Ygrave" unicode="&#x1ef2;" horiz-adv-x="608" 
 />
    <glyph glyph-name="ygrave" unicode="&#x1ef3;" horiz-adv-x="446" 
 />
    <glyph glyph-name="endash" unicode="&#x2013;" horiz-adv-x="596" 
 />
    <glyph glyph-name="emdash" unicode="&#x2014;" horiz-adv-x="996" 
 />
    <glyph glyph-name="quoteleft" unicode="&#x2018;" horiz-adv-x="197" 
 />
    <glyph glyph-name="quoteright" unicode="&#x2019;" horiz-adv-x="197" 
d="M99 710q35 0 57.5 -24.5t22.5 -64.5q0 -56 -39 -116.5t-91 -86.5l-2 1q59 59 73 133q-40 -10 -71 14t-31 64q0 33 23.5 56.5t57.5 23.5z" />
    <glyph glyph-name="quotesinglbase" unicode="&#x201a;" horiz-adv-x="197" 
 />
    <glyph glyph-name="quotedblleft" unicode="&#x201c;" horiz-adv-x="387" 
d="M77 577q40 10 71 -14t31 -64q0 -33 -23.5 -56.5t-57.5 -23.5q-35 0 -57.5 24.5t-22.5 64.5q0 56 39 116.5t91 86.5l2 -1q-59 -59 -73 -133zM267 577q40 10 71 -14t31 -64q0 -33 -23.5 -56.5t-57.5 -23.5q-35 0 -57.5 24.5t-22.5 64.5q0 56 39 116.5t91 86.5l2 -1
q-59 -59 -73 -133z" />
    <glyph glyph-name="quotedblright" unicode="&#x201d;" horiz-adv-x="387" 
d="M99 710q35 0 57.5 -24.5t22.5 -64.5q0 -56 -39 -116.5t-91 -86.5l-2 1q59 59 73 133q-40 -10 -71 14t-31 64q0 33 23.5 56.5t57.5 23.5zM289 710q35 0 57.5 -24.5t22.5 -64.5q0 -56 -39 -116.5t-91 -86.5l-2 1q59 59 73 133q-40 -10 -71 14t-31 64q0 33 23.5 56.5
t57.5 23.5z" />
    <glyph glyph-name="quotedblbase" unicode="&#x201e;" horiz-adv-x="387" 
 />
    <glyph glyph-name="dagger" unicode="&#x2020;" horiz-adv-x="457" 
 />
    <glyph glyph-name="daggerdbl" unicode="&#x2021;" horiz-adv-x="457" 
 />
    <glyph glyph-name="bullet" unicode="&#x2022;" horiz-adv-x="548" 
 />
    <glyph glyph-name="ellipsis" unicode="&#x2026;" horiz-adv-x="585" 
d="M99 -12q-34 0 -57.5 23.5t-23.5 57.5q0 33 23.5 56.5t57.5 23.5q33 0 56.5 -23.5t23.5 -56.5q0 -34 -23.5 -57.5t-56.5 -23.5zM293 -12q-34 0 -57.5 23.5t-23.5 57.5q0 33 23.5 56.5t57.5 23.5q33 0 56.5 -23.5t23.5 -56.5q0 -34 -23.5 -57.5t-56.5 -23.5zM487 -12
q-34 0 -57.5 23.5t-23.5 57.5q0 33 23.5 56.5t57.5 23.5q33 0 56.5 -23.5t23.5 -56.5q0 -34 -23.5 -57.5t-56.5 -23.5z" />
    <glyph glyph-name="perthousand" unicode="&#x2030;" horiz-adv-x="947" 
 />
    <glyph glyph-name="guilsinglleft" unicode="&#x2039;" horiz-adv-x="267" 
 />
    <glyph glyph-name="guilsinglright" unicode="&#x203a;" horiz-adv-x="267" 
 />
    <glyph glyph-name="fraction" unicode="&#x2044;" horiz-adv-x="160" 
 />
    <glyph glyph-name="uni2074" unicode="&#x2074;" horiz-adv-x="371" 
 />
    <glyph glyph-name="Euro" unicode="&#x20ac;" horiz-adv-x="580" 
d="M542 468q-89 210 -161 242v2q24 0 58.5 -4.5t55.5 -4.5q24 0 37 5l11 -240h-1zM560 231h2q-19 -113 -75 -178t-138 -65q-95 0 -170 90.5t-79 253.5h-82v14h82v3q0 34 3 64h-85v14h87q15 118 74.5 190t141.5 90v-2q-89 -57 -94 -278h209v-14h-209v-8q0 -31 3 -59h206v-14
h-204q13 -100 59.5 -156t110.5 -56q81 0 158 111z" />
    <glyph glyph-name="uni20BA" unicode="&#x20ba;" horiz-adv-x="526" 
 />
    <glyph glyph-name="trademark" unicode="&#x2122;" horiz-adv-x="795" 
 />
    <glyph glyph-name="minus" unicode="&#x2212;" horiz-adv-x="516" 
 />
    <glyph glyph-name="notequal" unicode="&#x2260;" horiz-adv-x="516" 
 />
    <glyph glyph-name="uniFB01" unicode="&#xfb01;" horiz-adv-x="540" 
d="M406 554q-33 0 -56.5 22.5t-23.5 54.5q0 31 23.5 53.5t56.5 22.5t56.5 -22.5t23.5 -53.5q0 -32 -23.5 -54.5t-56.5 -22.5zM477 122q0 -48 9 -75t44 -45v-2h-248v2q35 18 44 45t9 75v364h-129v-364q0 -48 9 -75t44 -45v-2h-248v2q34 18 43.5 45t9.5 75v364h-59v14h59v16
q0 172 265 184v-2q-77 -42 -100 -76.5t-23 -96.5v-25h271v-378z" />
    <glyph glyph-name="uniFB02" unicode="&#xfb02;" horiz-adv-x="550" 
d="M487 122q0 -48 9 -75t44 -45v-2h-248v2q35 18 44 45t9 75v456q0 48 -9 75t-44 45q-58 -39 -72 -73t-14 -100v-25h88v-14h-88v-364q0 -48 9 -75t44 -45v-2h-248v2q34 18 43.5 45t9.5 75v364h-59v14h59v16q0 172 228 184h195v-578z" />
    <glyph glyph-name="glyph330" horiz-adv-x="652" 
 />
    <glyph glyph-name="glyph331" horiz-adv-x="666" 
 />
    <glyph glyph-name="glyph332" horiz-adv-x="471" 
 />
    <glyph glyph-name="glyph333" horiz-adv-x="471" 
 />
    <glyph glyph-name="glyph334" horiz-adv-x="265" 
 />
    <glyph glyph-name="glyph335" horiz-adv-x="268" 
 />
    <glyph glyph-name="glyph336" horiz-adv-x="524" 
 />
    <glyph glyph-name="glyph337" horiz-adv-x="797" 
 />
    <glyph glyph-name="glyph338" horiz-adv-x="560" 
 />
    <glyph glyph-name="glyph339" horiz-adv-x="1077" 
 />
    <glyph glyph-name="glyph340" horiz-adv-x="1087" 
 />
    <glyph glyph-name="glyph341" horiz-adv-x="800" 
 />
    <glyph glyph-name="glyph342" horiz-adv-x="798" 
 />
    <glyph glyph-name="glyph343" horiz-adv-x="1095" 
 />
    <glyph glyph-name="glyph344" horiz-adv-x="820" 
 />
    <glyph glyph-name="glyph345" horiz-adv-x="807" 
 />
    <glyph glyph-name="glyph346" horiz-adv-x="538" 
 />
    <glyph glyph-name="glyph347" horiz-adv-x="815" 
 />
    <glyph glyph-name="glyph348" 
 />
    <glyph glyph-name="glyph349" 
 />
    <glyph glyph-name="glyph350" 
 />
  </font>
</defs>
</svg>
