<svg width="168" height="57" viewBox="0 0 168 57" fill="none" xmlns="http://www.w3.org/2000/svg">
<g clip-path="url(#clip0)">
<path d="M154.189 0.50006H13.3486C12.8352 0.50006 12.328 0.50006 11.8159 0.50286C11.3873 0.50566 10.9621 0.513794 10.5294 0.52064C9.58932 0.531702 8.65145 0.614407 7.72394 0.768034C6.79773 0.925006 5.90054 1.22094 5.06271 1.64583C4.2259 2.07432 3.46128 2.63109 2.7966 3.29596C2.12842 3.95895 1.57145 4.72528 1.14709 5.56548C0.72156 6.40401 0.426497 7.30257 0.27209 8.23013C0.116215 9.15652 0.0323377 10.0936 0.02121 11.0329C0.008218 11.4622 0.006846 11.8928 0 12.3221V44.6821C0.006846 45.1168 0.008218 45.5379 0.02121 45.9728C0.0323411 46.9121 0.116219 47.8491 0.27209 48.7754C0.42607 49.7035 0.721151 50.6026 1.14709 51.4414C1.57126 52.2789 2.12831 53.0422 2.7966 53.7015C3.45876 54.3693 4.22387 54.9264 5.06271 55.3516C5.90054 55.7777 6.79763 56.0754 7.72394 56.2348C8.65161 56.3872 9.58938 56.4699 10.5294 56.4823C10.9621 56.4918 11.3873 56.4973 11.8159 56.4973C12.3279 56.5001 12.8352 56.5001 13.3486 56.5001H154.189C154.692 56.5001 155.203 56.5001 155.706 56.4973C156.133 56.4973 156.57 56.4918 156.997 56.4823C157.935 56.4706 158.871 56.3878 159.797 56.2348C160.726 56.0742 161.627 55.7766 162.468 55.3516C163.306 54.9262 164.071 54.369 164.732 53.7015C165.399 53.0396 165.957 52.2769 166.387 51.4414C166.809 50.602 167.102 49.703 167.253 48.7754C167.41 47.8489 167.496 46.9121 167.513 45.9728C167.519 45.5379 167.519 45.1168 167.519 44.6821C167.53 44.1735 167.53 43.6677 167.53 43.1508V13.8506C167.53 13.3379 167.53 12.8294 167.519 12.3221C167.519 11.8928 167.519 11.4622 167.513 11.0329C167.496 10.0935 167.41 9.15659 167.253 8.23008C167.101 7.30305 166.809 6.40456 166.387 5.56543C165.523 3.88133 164.152 2.5105 162.468 1.64571C161.627 1.22185 160.726 0.925997 159.797 0.767908C158.871 0.613604 157.935 0.530871 156.997 0.520444C156.57 0.513612 156.133 0.505408 155.706 0.502678C155.203 0.499878 154.692 0.499878 154.189 0.499878V0.50006Z" fill="black"/>
<path d="M11.8228 55.275C11.3962 55.275 10.98 55.2696 10.5567 55.2601C9.68004 55.2486 8.80539 55.1723 7.93995 55.0317C7.13298 54.8927 6.35124 54.6342 5.62052 54.2647C4.89649 53.8982 4.23613 53.4176 3.66472 52.8414C3.08503 52.272 2.60242 51.6116 2.236 50.8863C1.86555 50.1563 1.60917 49.3739 1.4758 48.5662C1.33178 47.6984 1.25385 46.8209 1.2427 45.9412C1.23383 45.646 1.22221 44.6629 1.22221 44.6629V12.3221C1.22221 12.3221 1.23458 11.3541 1.24277 11.0698C1.25345 10.1915 1.33092 9.31535 1.47451 8.44886C1.60813 7.63899 1.8647 6.85428 2.23536 6.12192C2.60043 5.39716 3.08036 4.73624 3.65655 4.16479C4.2321 3.58791 4.89458 3.10488 5.61983 2.73333C6.34887 2.36497 7.12914 2.10826 7.93448 1.97181C8.80275 1.82981 9.68045 1.75303 10.5602 1.74213L11.8234 1.72504H155.699L156.978 1.74282C157.85 1.75318 158.719 1.82927 159.58 1.97044C160.393 2.1086 161.181 2.3671 161.919 2.73743C163.372 3.48622 164.554 4.67087 165.3 6.12533C165.665 6.85265 165.917 7.63095 166.049 8.43382C166.194 9.30742 166.276 10.1905 166.292 11.0759C166.296 11.4724 166.296 11.8983 166.296 12.3221C166.308 12.8471 166.308 13.3468 166.308 13.8506V43.1508C166.308 43.6594 166.308 44.1557 166.296 44.656C166.296 45.1113 166.296 45.5284 166.291 45.9576C166.275 46.8273 166.195 47.6945 166.052 48.5525C165.921 49.366 165.666 50.1546 165.296 50.8905C164.927 51.6079 164.447 52.2626 163.874 52.8305C163.302 53.4098 162.64 53.8932 161.915 54.262C161.179 54.6344 160.392 54.8939 159.58 55.0317C158.714 55.1731 157.839 55.2494 156.963 55.2601C156.553 55.2696 156.123 55.275 155.706 55.275L154.189 55.2778L11.8228 55.275Z" fill="black"/>
<path d="M34.6764 28.921C34.6915 27.7525 35.0019 26.6067 35.5787 25.5904C36.1555 24.5741 36.9801 23.7202 37.9756 23.1081C37.3432 22.2049 36.5089 21.4616 35.5389 20.9372C34.5689 20.4128 33.4901 20.1218 32.388 20.0874C30.037 19.8406 27.7579 21.4941 26.5599 21.4941C25.3387 21.4941 23.4942 20.1119 21.508 20.1527C20.2233 20.1942 18.9712 20.5678 17.8738 21.2371C16.7763 21.9064 15.871 22.8485 15.2459 23.9717C12.5383 28.6595 14.558 35.549 17.1516 39.3383C18.4493 41.1937 19.9659 43.2664 21.9503 43.1929C23.8922 43.1123 24.6174 41.9546 26.9615 41.9546C29.2837 41.9546 29.9642 43.1929 31.9889 43.1461C34.0726 43.1123 35.3854 41.2824 36.6376 39.4093C37.5699 38.0872 38.2874 36.626 38.7634 35.0798C37.5528 34.5678 36.5197 33.7108 35.7929 32.6156C35.0661 31.5203 34.6778 30.2354 34.6764 28.921Z" fill="white"/>
<path d="M30.8522 17.5952C31.9883 16.2314 32.548 14.4783 32.4125 12.7084C30.6767 12.8907 29.0734 13.7203 27.9219 15.0318C27.3589 15.6726 26.9277 16.418 26.6529 17.2254C26.3782 18.0329 26.2653 18.8866 26.3207 19.7378C27.1889 19.7467 28.0478 19.5585 28.8327 19.1874C29.6176 18.8163 30.3081 18.2719 30.8522 17.5952Z" fill="white"/>
<path d="M59.2232 38.4955H52.5964L51.005 43.1945H48.1982L54.4749 25.8093H57.3911L63.6679 43.1945H60.8132L59.2232 38.4955ZM53.2827 36.3271H58.5355L55.9461 28.701H55.8736L53.2827 36.3271Z" fill="white"/>
<path d="M77.2236 36.8577C77.2236 40.7966 75.1154 43.3272 71.9339 43.3272C71.128 43.3694 70.3265 43.1837 69.6212 42.7916C68.9159 42.3994 68.3353 41.8165 67.9458 41.1096H67.8856V47.3878H65.2839V30.5194H67.8023V32.6276H67.8501C68.2575 31.9242 68.8479 31.3443 69.5586 30.9497C70.2692 30.5551 71.0736 30.3606 71.8861 30.3868C75.103 30.3868 77.2236 32.9298 77.2236 36.8577ZM74.5493 36.8577C74.5493 34.2915 73.2232 32.6044 71.1997 32.6044C69.2118 32.6044 67.8747 34.327 67.8747 36.8577C67.8747 39.4116 69.2118 41.122 71.1997 41.122C73.2232 41.122 74.5493 39.4472 74.5493 36.8577Z" fill="white"/>
<path d="M91.1743 36.8577C91.1743 40.7966 89.0661 43.3272 85.8847 43.3272C85.0788 43.3694 84.2773 43.1837 83.5719 42.7915C82.8666 42.3993 82.286 41.8165 81.8966 41.1096H81.8364V47.3878H79.2346V30.5194H81.753V32.6276H81.8008C82.2082 31.9242 82.7986 31.3443 83.5093 30.9497C84.22 30.5551 85.0243 30.3606 85.8368 30.3868C89.0538 30.3868 91.1743 32.9298 91.1743 36.8577ZM88.5001 36.8577C88.5001 34.2915 87.1739 32.6044 85.1505 32.6044C83.1626 32.6044 81.8255 34.327 81.8255 36.8577C81.8255 39.4116 83.1626 41.122 85.1505 41.122C87.1739 41.122 88.5001 39.4471 88.5001 36.8577H88.5001Z" fill="white"/>
<path d="M100.395 38.3506C100.587 40.0746 102.262 41.2066 104.551 41.2066C106.744 41.2066 108.322 40.0746 108.322 38.5201C108.322 37.1706 107.37 36.3627 105.117 35.8089L102.864 35.2662C99.6714 34.4951 98.1894 33.0021 98.1894 30.5794C98.1894 27.5798 100.803 25.5195 104.515 25.5195C108.189 25.5195 110.707 27.5798 110.792 30.5794H108.166C108.009 28.8445 106.574 27.7972 104.478 27.7972C102.383 27.7972 100.948 28.8568 100.948 30.399C100.948 31.6281 101.864 32.3513 104.105 32.905L106.021 33.3753C109.588 34.2188 111.07 35.6517 111.07 38.1946C111.07 41.4472 108.479 43.4843 104.358 43.4843C100.503 43.4843 97.8995 41.495 97.7313 38.3505L100.395 38.3506Z" fill="white"/>
<path d="M116.685 27.5197V30.5193H119.095V32.5797H116.685V39.5674C116.685 40.6529 117.167 41.1588 118.227 41.1588C118.513 41.1538 118.799 41.1337 119.083 41.0986V43.1466C118.606 43.2356 118.122 43.2759 117.638 43.2669C115.071 43.2669 114.071 42.3031 114.071 39.8449V32.5797H112.228V30.5193H114.071V27.5197H116.685Z" fill="white"/>
<path d="M120.491 36.8576C120.491 32.8695 122.84 30.3635 126.503 30.3635C130.178 30.3635 132.515 32.8695 132.515 36.8576C132.515 40.8566 130.19 43.3517 126.503 43.3517C122.817 43.3517 120.491 40.8566 120.491 36.8576ZM129.864 36.8576C129.864 34.1219 128.611 32.5072 126.503 32.5072C124.394 32.5072 123.142 34.1342 123.142 36.8576C123.142 39.6043 124.394 41.2066 126.503 41.2066C128.611 41.2066 129.864 39.6043 129.864 36.8576H129.864Z" fill="white"/>
<path d="M134.66 30.5194H137.142V32.6768H137.202C137.37 32.003 137.765 31.4075 138.32 30.9905C138.875 30.5734 139.557 30.3602 140.251 30.3867C140.551 30.3857 140.85 30.4182 141.142 30.4838V32.9174C140.764 32.8017 140.369 32.7486 139.973 32.7602C139.595 32.7448 139.219 32.8115 138.869 32.9555C138.519 33.0996 138.205 33.3176 137.947 33.5946C137.689 33.8717 137.495 34.2012 137.377 34.5605C137.258 34.9199 137.219 35.3005 137.262 35.6764V43.1945H134.66L134.66 30.5194Z" fill="white"/>
<path d="M153.138 39.4717C152.788 41.7726 150.547 43.3517 147.68 43.3517C143.993 43.3517 141.704 40.8812 141.704 36.9178C141.704 32.942 144.005 30.3635 147.571 30.3635C151.078 30.3635 153.283 32.7724 153.283 36.6156V37.507H144.331V37.6642C144.289 38.1307 144.348 38.6007 144.502 39.0428C144.656 39.485 144.903 39.8893 145.225 40.2289C145.548 40.5684 145.939 40.8355 146.372 41.0123C146.806 41.1892 147.272 41.2717 147.74 41.2545C148.355 41.3121 148.972 41.1697 149.5 40.8485C150.027 40.5272 150.437 40.0444 150.668 39.4717L153.138 39.4717ZM144.343 35.6887H150.68C150.703 35.2692 150.64 34.8495 150.493 34.4558C150.346 34.0621 150.12 33.7029 149.828 33.4009C149.536 33.0988 149.185 32.8603 148.797 32.7004C148.408 32.5405 147.991 32.4626 147.571 32.4717C147.147 32.4691 146.727 32.5505 146.335 32.7112C145.943 32.8718 145.587 33.1085 145.287 33.4076C144.986 33.7067 144.749 34.0622 144.587 34.4538C144.425 34.8453 144.342 35.265 144.343 35.6887V35.6887Z" fill="white"/>
<path d="M52.9567 12.7234C53.5021 12.6843 54.0495 12.7667 54.5592 12.9647C55.069 13.1627 55.5284 13.4714 55.9045 13.8684C56.2805 14.2655 56.5637 14.7411 56.7336 15.2609C56.9036 15.7806 56.9561 16.3317 56.8873 16.8742C56.8873 19.5429 55.4449 21.077 52.9567 21.077H49.9393V12.7234H52.9567ZM51.2367 19.8956H52.8117C53.2015 19.9189 53.5916 19.855 53.9535 19.7085C54.3155 19.5621 54.6402 19.3368 54.9041 19.049C55.168 18.7612 55.3644 18.4182 55.479 18.0449C55.5936 17.6716 55.6235 17.2775 55.5666 16.8912C55.6194 16.5064 55.5864 16.1148 55.4701 15.7442C55.3537 15.3737 55.1568 15.0335 54.8935 14.748C54.6302 14.4625 54.3071 14.2388 53.9471 14.0928C53.5872 13.9469 53.1995 13.8824 52.8117 13.9039H51.2367V19.8956Z" fill="white"/>
<path d="M58.3529 17.9221C58.3133 17.5078 58.3607 17.0898 58.4921 16.6949C58.6235 16.3 58.8359 15.9369 59.1158 15.6289C59.3958 15.3209 59.737 15.0749 60.1175 14.9065C60.4981 14.7381 60.9097 14.6511 61.3259 14.6511C61.7421 14.6511 62.1537 14.7381 62.5342 14.9065C62.9148 15.0749 63.256 15.3209 63.5359 15.6289C63.8159 15.9369 64.0283 16.3 64.1597 16.6949C64.2911 17.0898 64.3385 17.5078 64.2988 17.9221C64.3392 18.3368 64.2924 18.7553 64.1614 19.1509C64.0303 19.5464 63.818 19.9102 63.538 20.2187C63.258 20.5273 62.9166 20.7739 62.5356 20.9426C62.1546 21.1114 61.7426 21.1986 61.3259 21.1986C60.9092 21.1986 60.4972 21.1114 60.1162 20.9426C59.7352 20.7739 59.3938 20.5273 59.1138 20.2187C58.8338 19.9102 58.6214 19.5464 58.4904 19.1509C58.3594 18.7553 58.3126 18.3368 58.3529 17.9221ZM63.0191 17.9221C63.0191 16.5556 62.4053 15.7564 61.3279 15.7564C60.2465 15.7564 59.6381 16.5556 59.6381 17.9221C59.6381 19.2995 60.2465 20.0925 61.3279 20.0925C62.4053 20.0925 63.0192 19.294 63.0192 17.9221H63.0191Z" fill="white"/>
<path d="M72.2026 21.0769H70.9119L69.609 16.4339H69.5106L68.2131 21.0769H66.9348L65.1971 14.7728H66.459L67.5883 19.5832H67.6813L68.9774 14.7728H70.1709L71.467 19.5832H71.5655L72.6893 14.7728H73.9334L72.2026 21.0769Z" fill="white"/>
<path d="M75.395 14.7728H76.5926V15.7743H76.6856C76.8433 15.4146 77.1093 15.113 77.4465 14.9117C77.7837 14.7104 78.1754 14.6193 78.5668 14.6511C78.8736 14.628 79.1816 14.6743 79.468 14.7864C79.7544 14.8986 80.012 15.0737 80.2215 15.2989C80.4311 15.5241 80.5873 15.7935 80.6786 16.0873C80.7699 16.381 80.7939 16.6915 80.7489 16.9958V21.0768H79.5047V17.3082C79.5047 16.2952 79.0645 15.7913 78.1444 15.7913C77.9361 15.7816 77.7282 15.8171 77.5349 15.8953C77.3416 15.9734 77.1676 16.0924 77.0246 16.2442C76.8816 16.3959 76.7731 16.5768 76.7066 16.7744C76.6401 16.972 76.617 17.1816 76.6391 17.3889V21.0769H75.3949L75.395 14.7728Z" fill="white"/>
<path d="M82.7313 12.3118H83.9754V21.0769H82.7313V12.3118Z" fill="white"/>
<path d="M85.7049 17.9221C85.6653 17.5078 85.7127 17.0898 85.8441 16.6949C85.9755 16.3 86.188 15.9369 86.468 15.6289C86.7479 15.3209 87.0892 15.0748 87.4698 14.9064C87.8504 14.738 88.262 14.6511 88.6782 14.6511C89.0944 14.6511 89.506 14.738 89.8866 14.9064C90.2672 15.0748 90.6085 15.3209 90.8884 15.6289C91.1684 15.9369 91.3808 16.3 91.5123 16.6949C91.6437 17.0898 91.6911 17.5078 91.6515 17.9221C91.6918 18.3368 91.6449 18.7554 91.5139 19.1509C91.3828 19.5465 91.1704 19.9102 90.8904 20.2188C90.6104 20.5274 90.2689 20.7739 89.8879 20.9427C89.507 21.1114 89.0949 21.1986 88.6782 21.1986C88.2615 21.1986 87.8494 21.1114 87.4684 20.9427C87.0875 20.7739 86.746 20.5274 86.466 20.2188C86.1859 19.9102 85.9736 19.5465 85.8425 19.1509C85.7114 18.7554 85.6646 18.3368 85.7049 17.9221ZM90.3711 17.9221C90.3711 16.5556 89.7572 15.7565 88.6799 15.7565C87.5985 15.7565 86.9901 16.5556 86.9901 17.9221C86.9901 19.2996 87.5985 20.0925 88.6799 20.0925C89.7572 20.0925 90.3711 19.2941 90.3711 17.9221H90.3711Z" fill="white"/>
<path d="M92.9613 19.2941C92.9613 18.1593 93.8062 17.5051 95.306 17.4121L97.0136 17.3137V16.7696C97.0136 16.1037 96.5734 15.7278 95.723 15.7278C95.0284 15.7278 94.5472 15.9828 94.4091 16.4285H93.2046C93.3318 15.3456 94.3503 14.6511 95.7804 14.6511C97.3609 14.6511 98.2523 15.4379 98.2523 16.7696V21.0769H97.0546V20.191H96.9562C96.7564 20.5088 96.4758 20.7678 96.1431 20.9417C95.8105 21.1156 95.4376 21.1981 95.0626 21.1808C94.798 21.2083 94.5305 21.1801 94.2774 21.0979C94.0244 21.0157 93.7913 20.8814 93.5933 20.7036C93.3954 20.5259 93.2368 20.3086 93.128 20.0658C93.0191 19.8231 92.9623 19.5602 92.9613 19.2941ZM97.0136 18.7554V18.2284L95.4741 18.3268C94.606 18.3849 94.2122 18.6802 94.2122 19.236C94.2122 19.8033 94.7044 20.1335 95.3812 20.1335C95.5795 20.1536 95.7798 20.1336 95.9702 20.0746C96.1606 20.0157 96.3373 19.9191 96.4896 19.7905C96.6419 19.6619 96.7667 19.504 96.8568 19.3262C96.9468 19.1484 97.0001 18.9543 97.0136 18.7554Z" fill="white"/>
<path d="M99.8874 17.9221C99.8874 15.9301 100.911 14.6682 102.504 14.6682C102.898 14.65 103.289 14.7444 103.632 14.9403C103.974 15.1361 104.253 15.4254 104.437 15.7742H104.53V12.3118H105.775V21.0769H104.582V20.0809H104.484C104.286 20.4273 103.996 20.713 103.647 20.9069C103.298 21.1007 102.903 21.1955 102.504 21.1808C100.901 21.1808 99.8874 19.9189 99.8874 17.9221ZM101.173 17.9221C101.173 19.2592 101.803 20.0638 102.857 20.0638C103.906 20.0638 104.554 19.2476 104.554 17.9276C104.554 16.6137 103.899 15.7859 102.857 15.7859C101.81 15.7859 101.173 16.5959 101.173 17.9221H101.173Z" fill="white"/>
<path d="M110.922 17.9221C110.882 17.5078 110.93 17.0898 111.061 16.6949C111.193 16.3 111.405 15.9369 111.685 15.6289C111.965 15.3209 112.306 15.0749 112.687 14.9065C113.067 14.7381 113.479 14.6511 113.895 14.6511C114.311 14.6511 114.723 14.7381 115.103 14.9065C115.484 15.0749 115.825 15.3209 116.105 15.6289C116.385 15.9369 116.597 16.3 116.729 16.6949C116.86 17.0898 116.908 17.5078 116.868 17.9221C116.908 18.3368 116.861 18.7553 116.73 19.1509C116.599 19.5464 116.387 19.9102 116.107 20.2187C115.827 20.5273 115.486 20.7739 115.105 20.9426C114.724 21.1114 114.312 21.1986 113.895 21.1986C113.478 21.1986 113.066 21.1114 112.685 20.9426C112.304 20.7739 111.963 20.5273 111.683 20.2187C111.403 19.9102 111.19 19.5464 111.059 19.1509C110.928 18.7553 110.882 18.3368 110.922 17.9221ZM115.588 17.9221C115.588 16.5556 114.974 15.7564 113.897 15.7564C112.816 15.7564 112.207 16.5556 112.207 17.9221C112.207 19.2995 112.816 20.0925 113.897 20.0925C114.974 20.0925 115.588 19.294 115.588 17.9221Z" fill="white"/>
<path d="M118.537 14.7728H119.735V15.7743H119.828C119.986 15.4146 120.252 15.113 120.589 14.9117C120.926 14.7104 121.318 14.6193 121.709 14.6511C122.016 14.628 122.324 14.6743 122.61 14.7864C122.897 14.8986 123.154 15.0737 123.364 15.2989C123.573 15.5241 123.73 15.7935 123.821 16.0873C123.912 16.381 123.936 16.6915 123.891 16.9958V21.0768H122.647V17.3082C122.647 16.2952 122.207 15.7913 121.287 15.7913C121.078 15.7816 120.87 15.8171 120.677 15.8953C120.484 15.9734 120.31 16.0924 120.167 16.2442C120.024 16.3959 119.915 16.5768 119.849 16.7744C119.782 16.972 119.759 17.1816 119.781 17.3889V21.0769H118.537V14.7728Z" fill="white"/>
<path d="M130.921 13.2032V14.8015H132.287V15.8494H130.921V19.091C130.921 19.7514 131.193 20.0405 131.813 20.0405C131.971 20.04 132.13 20.0305 132.287 20.0118V21.0482C132.064 21.0881 131.837 21.1094 131.61 21.1117C130.227 21.1117 129.676 20.625 129.676 19.4096V15.8494H128.675V14.8014H129.676V13.2032H130.921Z" fill="white"/>
<path d="M133.986 12.3118H135.22V15.7859H135.318C135.483 15.4228 135.757 15.1196 136.101 14.9175C136.445 14.7154 136.843 14.6243 137.24 14.6566C137.545 14.64 137.85 14.6909 138.134 14.8058C138.417 14.9206 138.671 15.0966 138.879 15.321C139.086 15.5455 139.241 15.813 139.333 16.1044C139.425 16.3958 139.452 16.7039 139.411 17.0068V21.0769H138.166V17.3137C138.166 16.3067 137.697 15.7968 136.818 15.7968C136.604 15.7792 136.389 15.8086 136.188 15.8829C135.986 15.9572 135.804 16.0745 135.653 16.2268C135.501 16.379 135.385 16.5624 135.312 16.7642C135.24 16.966 135.212 17.1813 135.231 17.395V21.0768H133.987L133.986 12.3118Z" fill="white"/>
<path d="M146.666 19.3747C146.497 19.9509 146.13 20.4493 145.631 20.7827C145.132 21.1161 144.531 21.2633 143.934 21.1986C143.519 21.2095 143.106 21.13 142.725 20.9654C142.343 20.8009 142.002 20.5553 141.725 20.2457C141.448 19.9361 141.241 19.5699 141.12 19.1726C140.999 18.7752 140.965 18.3562 141.022 17.9447C140.967 17.5318 141.001 17.1119 141.122 16.7134C141.243 16.3148 141.448 15.947 141.724 15.6347C141.999 15.3224 142.339 15.0729 142.719 14.9032C143.1 14.7335 143.512 14.6476 143.929 14.6511C145.683 14.6511 146.741 15.8495 146.741 17.8291V18.2632H142.289V18.333C142.27 18.5643 142.299 18.7972 142.375 19.0166C142.451 19.2361 142.571 19.4373 142.729 19.6073C142.887 19.7773 143.079 19.9125 143.293 20.004C143.506 20.0956 143.736 20.1415 143.968 20.1389C144.266 20.1747 144.567 20.1211 144.834 19.985C145.102 19.8489 145.322 19.6365 145.468 19.3747L146.666 19.3747ZM142.289 17.3431H145.474C145.489 17.1315 145.46 16.919 145.389 16.7192C145.318 16.5194 145.205 16.3367 145.059 16.1829C144.913 16.0291 144.736 15.9076 144.541 15.8261C144.345 15.7447 144.134 15.7051 143.922 15.71C143.707 15.7073 143.493 15.7477 143.294 15.8288C143.094 15.9099 142.913 16.0301 142.761 16.1823C142.609 16.3345 142.489 16.5157 142.408 16.715C142.327 16.9144 142.287 17.1279 142.289 17.3431H142.289Z" fill="white"/>
</g>
<defs>
<clipPath id="clip0">
<rect width="167.53" height="56" fill="white" transform="translate(0 0.5)"/>
</clipPath>
</defs>
</svg>
