<svg width="191" height="56" viewBox="0 0 191 56" fill="none" xmlns="http://www.w3.org/2000/svg">
<g clip-path="url(#clip0)">
<path fill-rule="evenodd" clip-rule="evenodd" d="M183.704 56H7.5775C3.69314 56 0.529663 52.8439 0.529663 49V7C0.529663 3.14214 3.69314 0 7.5775 0H183.704C187.584 0 190.751 3.14214 190.751 7V49C190.751 52.8439 187.584 56 183.704 56Z" fill="#1A1A1A"/>
<path d="M100.622 18.5247C99.3534 18.5247 98.2838 18.0813 97.4379 17.2085C96.5991 16.3601 96.1307 15.1905 96.1517 13.9965C96.1517 12.7222 96.5851 11.6434 97.4379 10.788C98.2803 9.91519 99.3499 9.4718 100.619 9.4718C101.874 9.4718 102.943 9.91519 103.803 10.788C104.656 11.6713 105.089 12.7501 105.089 13.9965C105.075 15.2743 104.642 16.3531 103.803 17.205C102.961 18.0848 101.891 18.5247 100.622 18.5247ZM62.8691 18.5247C61.6283 18.5247 60.5517 18.0883 59.6709 17.2259C58.7971 16.3671 58.3531 15.2813 58.3531 14C58.3531 12.7187 58.7971 11.6329 59.6709 10.774C60.5342 9.9117 61.6108 9.47529 62.8691 9.47529C63.4843 9.47529 64.082 9.59749 64.6552 9.84537C65.218 10.0863 65.6759 10.4144 66.0149 10.8159L66.0988 10.9172L65.1516 11.8459L65.0537 11.7307C64.5189 11.0952 63.8024 10.7845 62.8551 10.7845C62.0093 10.7845 61.2717 11.0848 60.6636 11.6783C60.0519 12.2753 59.7408 13.0573 59.7408 14.0035C59.7408 14.9496 60.0519 15.7317 60.6636 16.3287C61.2717 16.9222 62.0093 17.2224 62.8551 17.2224C63.7569 17.2224 64.5154 16.9222 65.1061 16.3287C65.4557 15.9795 65.6724 15.4908 65.7493 14.8728H62.7118V13.5671H67.053L67.0705 13.6858C67.102 13.9057 67.1334 14.1327 67.1334 14.3421C67.1334 15.5466 66.7699 16.5207 66.0499 17.2399C65.232 18.0918 64.1624 18.5247 62.8691 18.5247ZM113.066 18.3396H111.727L107.627 11.7865L107.662 12.9666V18.3361H106.323V9.66033H107.851L107.892 9.72667L111.748 15.8992L111.713 14.7227V9.66033H113.066V18.3396V18.3396ZM90.5626 18.3396H89.2064V10.9661H86.8541V9.66033H92.9115V10.9661H90.5591V18.3396H90.5626ZM85.7496 18.3396H84.3969V9.66033H85.7496V18.3396ZM78.1472 18.3396H76.7945V10.9661H74.4422V9.66033H80.4996V10.9661H78.1472V18.3396ZM73.5858 18.3257H68.3987V9.66033H73.5858V10.9661H69.7549V13.3471H73.2118V14.6389H69.7549V17.0199H73.5858V18.3257ZM98.4306 16.3112C99.0353 16.9152 99.7693 17.2189 100.622 17.2189C101.5 17.2189 102.216 16.9222 102.814 16.3112C103.408 15.7177 103.709 14.9391 103.709 14C103.709 13.0608 103.408 12.2788 102.817 11.6888C102.213 11.0848 101.475 10.781 100.626 10.781C99.7483 10.781 99.0318 11.0778 98.4376 11.6888C97.8434 12.2823 97.5428 13.0608 97.5428 14C97.5428 14.9391 97.8399 15.7212 98.4306 16.3112Z" fill="white"/>
<path fill-rule="evenodd" clip-rule="evenodd" d="M96.0259 30.4579C92.7228 30.4579 90.0454 32.9611 90.0454 36.414C90.0454 39.8354 92.7403 42.3701 96.0259 42.3701C99.329 42.3701 102.006 39.8494 102.006 36.414C102.006 32.9611 99.329 30.4579 96.0259 30.4579ZM96.0259 40.01C94.2188 40.01 92.6634 38.5157 92.6634 36.4C92.6634 34.2529 94.2223 32.79 96.0259 32.79C97.833 32.79 99.3885 34.2529 99.3885 36.4C99.392 38.5297 97.833 40.01 96.0259 40.01ZM82.9778 30.4579C79.6747 30.4579 76.9972 32.9611 76.9972 36.414C76.9972 39.8354 79.6922 42.3701 82.9778 42.3701C86.2809 42.3701 88.9583 39.8494 88.9583 36.414C88.9583 32.9611 86.2774 30.4579 82.9778 30.4579ZM82.9778 40.01C81.1707 40.01 79.6153 38.5157 79.6153 36.4C79.6153 34.2529 81.1742 32.79 82.9778 32.79C84.7849 32.79 86.3403 34.2529 86.3403 36.4C86.3403 38.5297 84.7849 40.01 82.9778 40.01ZM67.4514 32.2768V34.7975H73.5089C73.3236 36.2115 72.8553 37.2554 72.1387 37.9711C71.2509 38.8579 69.8807 39.8215 67.4654 39.8215C63.7429 39.8215 60.8313 36.819 60.8313 33.1008C60.8313 29.3826 63.7429 26.3801 67.4654 26.3801C69.4753 26.3801 70.9398 27.1726 72.0269 28.185L73.8165 26.3975C72.3065 24.9521 70.2967 23.8454 67.4794 23.8454C62.3727 23.8454 58.0874 28 58.0874 33.0868C58.0874 38.1875 62.3692 42.3282 67.4794 42.3282C70.2372 42.3282 72.3065 41.4274 73.9423 39.7307C75.6096 38.0653 76.1374 35.7157 76.1374 33.82C76.1374 33.2299 76.092 32.6993 75.9976 32.2489H67.448C67.4514 32.2454 67.4514 32.2768 67.4514 32.2768ZM130.958 34.2389C130.459 32.9018 128.949 30.4439 125.852 30.4439C122.783 30.4439 120.231 32.8564 120.231 36.4C120.231 39.7446 122.755 42.3561 126.149 42.3561C128.875 42.3561 130.462 40.6908 131.116 39.7132L129.092 38.3586C128.421 39.3536 127.488 40.0065 126.163 40.0065C124.824 40.0065 123.887 39.399 123.265 38.2015L131.238 34.9023C131.238 34.9057 130.958 34.2389 130.958 34.2389ZM122.828 36.2289C122.765 33.9282 124.618 32.7586 125.943 32.7586C126.988 32.7586 127.858 33.2718 128.155 34.019L122.828 36.2289ZM116.351 42H118.969V24.5018H116.351V42ZM112.052 31.7811H111.958C111.367 31.0793 110.245 30.4439 108.812 30.4439C105.837 30.4439 103.097 33.0589 103.097 36.4175C103.097 39.7621 105.823 42.3456 108.812 42.3456C110.228 42.3456 111.367 41.7067 111.958 40.991H112.052V41.8464C112.052 44.1192 110.836 45.3447 108.875 45.3447C107.27 45.3447 106.274 44.1925 105.869 43.2289L103.593 44.1786C104.247 45.7496 105.991 47.6943 108.871 47.6943C111.94 47.6943 114.541 45.8893 114.541 41.4868V30.8H112.066V31.7811C112.07 31.7811 112.052 31.7811 112.052 31.7811ZM109.046 40.01C107.239 40.01 105.729 38.5018 105.729 36.4175C105.729 34.3157 107.239 32.7935 109.046 32.7935C110.836 32.7935 112.223 34.3332 112.223 36.4175C112.241 38.5018 110.839 40.01 109.046 40.01ZM143.217 24.5018H136.956V42H139.574V35.3736H143.22C146.118 35.3736 148.967 33.2753 148.967 29.9446C148.967 26.614 146.128 24.5018 143.217 24.5018ZM143.294 32.9297H139.571V26.9247H143.294C145.254 26.9247 146.362 28.5412 146.362 29.9272C146.362 31.2993 145.24 32.9297 143.294 32.9297ZM159.46 30.4264C157.558 30.4264 155.597 31.2678 154.786 33.1008L157.107 34.0644C157.607 33.1008 158.523 32.7726 159.491 32.7726C160.847 32.7726 162.217 33.5826 162.249 35.0279V35.213C161.78 34.9476 160.753 34.5427 159.522 34.5427C157.016 34.5427 154.475 35.9112 154.475 38.4773C154.475 40.8269 156.53 42.3352 158.82 42.3352C160.578 42.3352 161.546 41.5427 162.151 40.6244H162.245V41.9791H164.769V35.2758C164.769 32.1546 162.448 30.4264 159.46 30.4264ZM159.131 40.01C158.275 40.01 157.076 39.591 157.076 38.5157C157.076 37.1611 158.572 36.6479 159.848 36.6479C161.001 36.6479 161.546 36.8958 162.231 37.2379C162.043 38.809 160.714 39.996 159.131 40.01ZM173.976 30.8L170.97 38.39H170.875L167.761 30.8H164.944L169.617 41.41L166.954 47.3067H169.68L176.87 30.8H173.976ZM150.41 42H153.028V24.5018H150.41V42Z" fill="white"/>
<path fill-rule="evenodd" clip-rule="evenodd" d="M15.1542 10.5471C14.7488 10.9835 14.5146 11.6503 14.5146 12.5231V43.4802C14.5146 44.3531 14.7488 45.0199 15.1682 45.4389L15.2766 45.5331L32.6415 28.1885V27.8009L15.2626 10.4528L15.1542 10.5471Z" fill="url(#paint0_linear)"/>
<path fill-rule="evenodd" clip-rule="evenodd" d="M38.4191 33.9875L32.6273 28.2025V27.7975L38.4191 22.0125L38.545 22.0893L45.3959 25.9785C47.3568 27.0818 47.3568 28.9042 45.3959 30.0214L38.545 33.9107L38.4191 33.9875Z" fill="url(#paint1_linear)"/>
<path fill-rule="evenodd" clip-rule="evenodd" d="M38.545 33.9107L32.6274 28L15.1542 45.4529C15.7938 46.1372 16.8669 46.214 18.0658 45.5471L38.545 33.9107Z" fill="url(#paint2_linear)"/>
<path fill-rule="evenodd" clip-rule="evenodd" d="M38.545 22.0893L18.0658 10.4703C16.8669 9.78605 15.7903 9.88032 15.1542 10.5646L32.6274 28L38.545 22.0893Z" fill="url(#paint3_linear)"/>
<path opacity="0.2" fill-rule="evenodd" clip-rule="evenodd" d="M38.4192 33.7851L18.0798 45.3272C16.9438 45.9801 15.9301 45.9347 15.2765 45.3412L15.1682 45.4494L15.2765 45.5437C15.9301 46.1337 16.9438 46.1826 18.0798 45.5297L38.559 33.9108L38.4192 33.7851Z" fill="#1A1A1A"/>
<path opacity="0.12" fill-rule="evenodd" clip-rule="evenodd" d="M45.3959 29.819L38.4017 33.785L38.5276 33.9107L45.3784 30.0214C46.3606 29.4628 46.843 28.7297 46.843 28C46.7836 28.6703 46.2837 29.3057 45.3959 29.819Z" fill="#1A1A1A"/>
<path opacity="0.25" fill-rule="evenodd" clip-rule="evenodd" d="M18.0659 10.6728L45.396 26.1811C46.2838 26.6803 46.7836 27.3332 46.8605 28C46.8605 27.2703 46.3782 26.5372 45.396 25.9786L18.0659 10.4703C16.105 9.34964 14.5146 10.2853 14.5146 12.5232V12.7257C14.5146 10.4843 16.105 9.5661 18.0659 10.6728Z" fill="white"/>
</g>
<defs>
<linearGradient id="paint0_linear" x1="31.0839" y1="12.1891" x2="3.27262" y2="19.6081" gradientUnits="userSpaceOnUse">
<stop stop-color="#00A0FF"/>
<stop offset="0.00657" stop-color="#00A1FF"/>
<stop offset="0.2601" stop-color="#00BEFF"/>
<stop offset="0.5122" stop-color="#00D2FF"/>
<stop offset="0.7604" stop-color="#00DFFF"/>
<stop offset="1" stop-color="#00E3FF"/>
</linearGradient>
<linearGradient id="paint1_linear" x1="47.9531" y1="28" x2="14.0378" y2="28" gradientUnits="userSpaceOnUse">
<stop stop-color="#FFE000"/>
<stop offset="0.4087" stop-color="#FFBD00"/>
<stop offset="0.7754" stop-color="#FFA500"/>
<stop offset="1" stop-color="#FF9C00"/>
</linearGradient>
<linearGradient id="paint2_linear" x1="35.3273" y1="31.2163" x2="13.0356" y2="68.7789" gradientUnits="userSpaceOnUse">
<stop stop-color="#FF3A44"/>
<stop offset="1" stop-color="#C31162"/>
</linearGradient>
<linearGradient id="paint3_linear" x1="10.7542" y1="0.250327" x2="20.6994" y2="17.0263" gradientUnits="userSpaceOnUse">
<stop stop-color="#32A071"/>
<stop offset="0.0685" stop-color="#2DA771"/>
<stop offset="0.4762" stop-color="#15CF74"/>
<stop offset="0.8009" stop-color="#06E775"/>
<stop offset="1" stop-color="#00F076"/>
</linearGradient>
<clipPath id="clip0">
<rect x="0.529663" width="190" height="56" rx="10" fill="white"/>
</clipPath>
</defs>
</svg>
