<svg width="167" height="56" viewBox="0 0 167 56" fill="none" xmlns="http://www.w3.org/2000/svg">
<rect x="1.52966" y="1" width="164" height="54" rx="8" fill="white" stroke="#F5F5F5" stroke-width="2"/>
<g clip-path="url(#clip0)">
<path fill-rule="evenodd" clip-rule="evenodd" d="M16.9554 16.3674C16.6856 16.6583 16.5297 17.1027 16.5297 17.6843V38.315C16.5297 38.8966 16.6855 39.341 16.9648 39.6202L17.0369 39.6831L28.5958 28.1241V27.8659L17.0276 16.3046L16.9554 16.3674Z" fill="url(#paint0_linear)"/>
<path fill-rule="evenodd" clip-rule="evenodd" d="M32.4418 31.9888L28.5865 28.1335V27.8636L32.4418 24.0083L32.5255 24.0595L37.0858 26.6514C38.3911 27.3866 38.3911 28.6012 37.0858 29.3457L32.5255 31.9376L32.4418 31.9888Z" fill="url(#paint1_linear)"/>
<path fill-rule="evenodd" clip-rule="evenodd" d="M32.5256 31.9376L28.5865 27.9985L16.9554 39.6296C17.3812 40.0856 18.0955 40.1368 18.8936 39.6924L32.5256 31.9376Z" fill="url(#paint2_linear)"/>
<path fill-rule="evenodd" clip-rule="evenodd" d="M32.5256 24.0595L18.8936 16.3163C18.0955 15.8603 17.3789 15.9231 16.9554 16.3791L28.5865 27.9986L32.5256 24.0595Z" fill="url(#paint3_linear)"/>
<path opacity="0.2" fill-rule="evenodd" clip-rule="evenodd" d="M32.4418 31.8538L18.9028 39.5458C18.1467 39.9809 17.4719 39.9507 17.0368 39.5551L16.9647 39.6272L17.0368 39.6901C17.4719 40.0833 18.1467 40.1158 18.9028 39.6808L32.5348 31.9376L32.4418 31.8538Z" fill="black"/>
<path opacity="0.12" fill-rule="evenodd" clip-rule="evenodd" d="M37.0859 29.2107L32.4302 31.8538L32.5139 31.9376L37.0742 29.3457C37.728 28.9734 38.0491 28.4848 38.0491 27.9985C38.0095 28.4453 37.6768 28.8687 37.0859 29.2107Z" fill="black"/>
<path opacity="0.25" fill-rule="evenodd" clip-rule="evenodd" d="M18.8936 16.4512L37.0858 26.7863C37.6768 27.119 38.0095 27.5541 38.0607 27.9985C38.0607 27.5123 37.7396 27.0237 37.0858 26.6514L18.8936 16.3163C17.5883 15.5694 16.5297 16.193 16.5297 17.6844V17.8193C16.5297 16.3256 17.5883 15.7137 18.8936 16.4512Z" fill="white"/>
</g>
<path d="M49.9888 22.6H47.9368V28.432C47.9368 28.852 47.7088 29.188 47.1808 29.188C46.8928 29.188 46.7248 29.164 46.5328 29.128L46.2928 30.94C46.7488 31.048 47.0008 31.072 47.4448 31.072C48.8008 31.072 49.9888 30.508 49.9888 28.816V22.6ZM57.4569 31.156C60.1089 31.156 61.8609 29.26 61.8609 26.788C61.8609 24.352 60.1089 22.444 57.4569 22.444C54.8049 22.444 53.0529 24.352 53.0529 26.788C53.0529 29.26 54.8049 31.156 57.4569 31.156ZM57.4569 24.364C58.8009 24.364 59.7249 25.408 59.7249 26.788C59.7249 28.204 58.7889 29.236 57.4569 29.236C56.1249 29.236 55.1889 28.204 55.1889 26.788C55.1889 25.408 56.1129 24.364 57.4569 24.364ZM66.9819 22.6H64.9299V31H66.9819V22.6ZM75.581 31H77.621V22.6H75.605V27.808L72.533 22.6H70.445V31H72.461V25.852L75.581 31ZM92.0137 31H94.3417L96.5257 22.6H94.3297L93.0577 28.516L91.5817 22.6H89.7337L88.2577 28.516L86.9857 22.6H84.7897L86.9737 31H89.3017L90.6577 25.72L92.0137 31ZM103.519 29.116L104.119 31H106.183L103.279 22.6H101.119L98.2149 31H100.279L100.879 29.116H103.519ZM102.991 27.436H101.407L102.199 24.772L102.991 27.436ZM111.048 22.6H108.996V31H111.048V22.6ZM119.695 24.436V22.6H114.019V24.436H115.831V31H117.883V24.436H119.695ZM127.236 31V29.164H124.716V22.6H122.664V31H127.236ZM132.212 22.6H130.16V31H132.212V22.6ZM138.159 22.444C136.491 22.444 135.399 23.428 135.399 24.94C135.399 27.628 138.879 27.532 138.879 28.648C138.879 29.02 138.627 29.236 138.135 29.236C137.559 29.236 137.103 28.792 136.875 28.3L135.159 29.152C135.375 29.788 136.131 31.156 138.015 31.156C139.851 31.156 140.955 30.04 140.955 28.492C140.955 25.924 137.451 26.044 137.451 24.904C137.451 24.58 137.715 24.34 138.111 24.34C138.747 24.34 138.999 24.796 139.167 25.168L140.871 24.388C140.655 23.752 139.959 22.444 138.159 22.444ZM149.211 24.436V22.6H143.535V24.436H145.347V31H147.399V24.436H149.211Z" fill="#0A0A0A"/>
<defs>
<linearGradient id="paint0_linear" x1="27.559" y1="17.4618" x2="9.04359" y2="22.3952" gradientUnits="userSpaceOnUse">
<stop stop-color="#00A0FF"/>
<stop offset="0.00657" stop-color="#00A1FF"/>
<stop offset="0.2601" stop-color="#00BEFF"/>
<stop offset="0.5122" stop-color="#00D2FF"/>
<stop offset="0.7604" stop-color="#00DFFF"/>
<stop offset="1" stop-color="#00E3FF"/>
</linearGradient>
<linearGradient id="paint1_linear" x1="38.788" y1="27.9986" x2="16.2124" y2="27.9986" gradientUnits="userSpaceOnUse">
<stop stop-color="#FFE000"/>
<stop offset="0.4087" stop-color="#FFBD00"/>
<stop offset="0.7754" stop-color="#FFA500"/>
<stop offset="1" stop-color="#FF9C00"/>
</linearGradient>
<linearGradient id="paint2_linear" x1="30.3836" y1="30.1419" x2="15.5196" y2="55.1594" gradientUnits="userSpaceOnUse">
<stop stop-color="#FF3A44"/>
<stop offset="1" stop-color="#C31162"/>
</linearGradient>
<linearGradient id="paint3_linear" x1="14.0266" y1="9.50543" x2="20.6581" y2="20.6786" gradientUnits="userSpaceOnUse">
<stop stop-color="#32A071"/>
<stop offset="0.0685" stop-color="#2DA771"/>
<stop offset="0.4762" stop-color="#15CF74"/>
<stop offset="0.8009" stop-color="#06E775"/>
<stop offset="1" stop-color="#00F076"/>
</linearGradient>
<clipPath id="clip0">
<rect width="21.5351" height="24" fill="white" transform="translate(16.5297 16)"/>
</clipPath>
</defs>
</svg>
