<svg width="167" height="57" viewBox="0 0 167 57" fill="none" xmlns="http://www.w3.org/2000/svg">
<path d="M0.529694 8.5C0.529694 4.08172 4.11142 0.5 8.52969 0.5H158.065C162.483 0.5 166.065 4.08172 166.065 8.5V48.5C166.065 52.9183 162.483 56.5 158.065 56.5H8.52969C4.11141 56.5 0.529694 52.9183 0.529694 48.5V8.5Z" fill="white"/>
<g clip-path="url(#clip0)">
<path fill-rule="evenodd" clip-rule="evenodd" d="M16.9555 16.8674C16.6856 17.1583 16.5297 17.6027 16.5297 18.1843V38.815C16.5297 39.3966 16.6856 39.841 16.9648 40.1202L17.0369 40.1831L28.5958 28.6241V28.3659L17.0276 16.8046L16.9555 16.8674Z" fill="url(#paint0_linear)"/>
<path fill-rule="evenodd" clip-rule="evenodd" d="M32.4418 32.4888L28.5865 28.6335V28.3636L32.4418 24.5083L32.5256 24.5595L37.0859 27.1514C38.3911 27.8866 38.3911 29.1012 37.0859 29.8457L32.5256 32.4376L32.4418 32.4888Z" fill="url(#paint1_linear)"/>
<path fill-rule="evenodd" clip-rule="evenodd" d="M32.5256 32.4376L28.5865 28.4985L16.9555 40.1296C17.3813 40.5856 18.0955 40.6368 18.8936 40.1924L32.5256 32.4376Z" fill="url(#paint2_linear)"/>
<path fill-rule="evenodd" clip-rule="evenodd" d="M32.5256 24.5595L18.8936 16.8163C18.0955 16.3603 17.3789 16.4231 16.9555 16.8791L28.5865 28.4986L32.5256 24.5595Z" fill="url(#paint3_linear)"/>
<path opacity="0.2" fill-rule="evenodd" clip-rule="evenodd" d="M32.4418 32.3538L18.9029 40.0458C18.1467 40.4809 17.472 40.4507 17.0369 40.0551L16.9648 40.1272L17.0369 40.1901C17.472 40.5833 18.1467 40.6158 18.9029 40.1808L32.5349 32.4376L32.4418 32.3538Z" fill="black"/>
<path opacity="0.12" fill-rule="evenodd" clip-rule="evenodd" d="M37.0859 29.7107L32.4302 32.3538L32.514 32.4376L37.0743 29.8457C37.728 29.4734 38.0491 28.9848 38.0491 28.4985C38.0096 28.9453 37.6769 29.3687 37.0859 29.7107Z" fill="black"/>
<path opacity="0.25" fill-rule="evenodd" clip-rule="evenodd" d="M18.8936 16.9512L37.0859 27.2863C37.6768 27.619 38.0096 28.0541 38.0608 28.4985C38.0608 28.0123 37.7397 27.5237 37.0859 27.1514L18.8936 16.8163C17.5883 16.0694 16.5297 16.693 16.5297 18.1844V18.3193C16.5297 16.8256 17.5883 16.2137 18.8936 16.9512Z" fill="white"/>
</g>
<path d="M49.9888 23.1H47.9368V28.932C47.9368 29.352 47.7088 29.688 47.1808 29.688C46.8928 29.688 46.7248 29.664 46.5328 29.628L46.2928 31.44C46.7488 31.548 47.0008 31.572 47.4448 31.572C48.8008 31.572 49.9888 31.008 49.9888 29.316V23.1ZM57.4569 31.656C60.1089 31.656 61.8609 29.76 61.8609 27.288C61.8609 24.852 60.1089 22.944 57.4569 22.944C54.8049 22.944 53.0529 24.852 53.0529 27.288C53.0529 29.76 54.8049 31.656 57.4569 31.656ZM57.4569 24.864C58.8009 24.864 59.7249 25.908 59.7249 27.288C59.7249 28.704 58.7889 29.736 57.4569 29.736C56.1249 29.736 55.1889 28.704 55.1889 27.288C55.1889 25.908 56.1129 24.864 57.4569 24.864ZM66.9819 23.1H64.9299V31.5H66.9819V23.1ZM75.581 31.5H77.621V23.1H75.605V28.308L72.533 23.1H70.445V31.5H72.461V26.352L75.581 31.5ZM92.0137 31.5H94.3417L96.5257 23.1H94.3297L93.0577 29.016L91.5817 23.1H89.7337L88.2577 29.016L86.9857 23.1H84.7897L86.9737 31.5H89.3017L90.6577 26.22L92.0137 31.5ZM103.519 29.616L104.119 31.5H106.183L103.279 23.1H101.119L98.2149 31.5H100.279L100.879 29.616H103.519ZM102.991 27.936H101.407L102.199 25.272L102.991 27.936ZM111.048 23.1H108.996V31.5H111.048V23.1ZM119.695 24.936V23.1H114.019V24.936H115.831V31.5H117.883V24.936H119.695ZM127.236 31.5V29.664H124.716V23.1H122.664V31.5H127.236ZM132.212 23.1H130.16V31.5H132.212V23.1ZM138.159 22.944C136.491 22.944 135.399 23.928 135.399 25.44C135.399 28.128 138.879 28.032 138.879 29.148C138.879 29.52 138.627 29.736 138.135 29.736C137.559 29.736 137.103 29.292 136.875 28.8L135.159 29.652C135.375 30.288 136.131 31.656 138.015 31.656C139.851 31.656 140.955 30.54 140.955 28.992C140.955 26.424 137.451 26.544 137.451 25.404C137.451 25.08 137.715 24.84 138.111 24.84C138.747 24.84 138.999 25.296 139.167 25.668L140.871 24.888C140.655 24.252 139.959 22.944 138.159 22.944ZM149.211 24.936V23.1H143.535V24.936H145.347V31.5H147.399V24.936H149.211Z" fill="#0A0A0A"/>
<path d="M8.52969 2.5H158.065V-1.5H8.52969V2.5ZM164.065 8.5V48.5H168.065V8.5H164.065ZM158.065 54.5H8.52969V58.5H158.065V54.5ZM2.52969 48.5V8.5H-1.47031V48.5H2.52969ZM8.52969 54.5C5.21598 54.5 2.52969 51.8137 2.52969 48.5H-1.47031C-1.47031 54.0228 3.00684 58.5 8.52969 58.5V54.5ZM164.065 48.5C164.065 51.8137 161.379 54.5 158.065 54.5V58.5C163.588 58.5 168.065 54.0228 168.065 48.5H164.065ZM158.065 2.5C161.379 2.5 164.065 5.18629 164.065 8.5H168.065C168.065 2.97715 163.588 -1.5 158.065 -1.5V2.5ZM8.52969 -1.5C3.00685 -1.5 -1.47031 2.97715 -1.47031 8.5H2.52969C2.52969 5.18629 5.21598 2.5 8.52969 2.5V-1.5Z" fill="#F5F5F5"/>
<defs>
<linearGradient id="paint0_linear" x1="27.559" y1="17.9618" x2="9.04362" y2="22.8952" gradientUnits="userSpaceOnUse">
<stop stop-color="#00A0FF"/>
<stop offset="0.00657" stop-color="#00A1FF"/>
<stop offset="0.2601" stop-color="#00BEFF"/>
<stop offset="0.5122" stop-color="#00D2FF"/>
<stop offset="0.7604" stop-color="#00DFFF"/>
<stop offset="1" stop-color="#00E3FF"/>
</linearGradient>
<linearGradient id="paint1_linear" x1="38.788" y1="28.4986" x2="16.2124" y2="28.4986" gradientUnits="userSpaceOnUse">
<stop stop-color="#FFE000"/>
<stop offset="0.4087" stop-color="#FFBD00"/>
<stop offset="0.7754" stop-color="#FFA500"/>
<stop offset="1" stop-color="#FF9C00"/>
</linearGradient>
<linearGradient id="paint2_linear" x1="30.3837" y1="30.6419" x2="15.5196" y2="55.6594" gradientUnits="userSpaceOnUse">
<stop stop-color="#FF3A44"/>
<stop offset="1" stop-color="#C31162"/>
</linearGradient>
<linearGradient id="paint3_linear" x1="14.0266" y1="10.0054" x2="20.6581" y2="21.1786" gradientUnits="userSpaceOnUse">
<stop stop-color="#32A071"/>
<stop offset="0.0685" stop-color="#2DA771"/>
<stop offset="0.4762" stop-color="#15CF74"/>
<stop offset="0.8009" stop-color="#06E775"/>
<stop offset="1" stop-color="#00F076"/>
</linearGradient>
<clipPath id="clip0">
<rect width="21.5351" height="24" fill="white" transform="translate(16.5297 16.5)"/>
</clipPath>
</defs>
</svg>
