<?xml version="1.0" encoding="UTF-8"?>
<svg width="17px" height="24px" viewBox="0 0 17 24" version="1.1" xmlns="http://www.w3.org/2000/svg" xmlns:xlink="http://www.w3.org/1999/xlink">
    <!-- Generator: Sketch 64 (93537) - https://sketch.com -->
    <title>Icon color</title>
    <desc>Created with Sketch.</desc>
    <g id="User-Interface" stroke="none" stroke-width="1" fill="none" fill-rule="evenodd">
        <g id="Landing-Desktop" transform="translate(-235.000000, -1715.000000)" fill="#FFFFFF">
            <g id="Feed" transform="translate(0.000000, 894.000000)">
                <g id="1---Influenceur" transform="translate(0.000000, -0.000000)">
                    <g id="Sliders" transform="translate(206.000000, 738.000000)">
                        <g id="Arrows" transform="translate(0.000000, 58.000000)">
                            <g id="prev" transform="translate(37.000000, 37.000000) rotate(90.000000) translate(-37.000000, -37.000000) ">
                                <path d="M49,35.8926749 L49,37.1073251 C49,37.4427415 48.7313708,37.7146503 48.4,37.7146503 L28.996,37.7146503 L34.336,43.1076974 C34.4495876,43.2217328 34.513479,43.3769626 34.513479,43.5388982 C34.513479,43.7008339 34.4495876,43.8560637 34.336,43.9700991 L33.484,44.8203542 C33.37134,44.9353286 33.2179825,45 33.058,45 C32.8980175,45 32.74466,44.9353286 32.632,44.8203542 L25.264,37.3745482 C25.095169,37.2038687 25,36.9723111 25,36.7307835 L25,36.2692165 C25.0027648,36.0282127 25.0973392,35.7975927 25.264,35.6254518 L32.632,28.1796458 C32.74466,28.0646714 32.8980175,28 33.058,28 C33.2179825,28 33.37134,28.0646714 33.484,28.1796458 L34.336,29.0420474 C34.4488769,29.153994 34.5124857,29.3072181 34.5124857,29.467175 C34.5124857,29.6271319 34.4488769,29.7803561 34.336,29.8923026 L28.996,35.2853497 L48.4,35.2853497 C48.7313708,35.2853497 49,35.5572585 49,35.8926749 Z" id="Icon-color"></path>
                            </g>
                        </g>
                    </g>
                </g>
            </g>
        </g>
    </g>
</svg>