<?xml version="1.0" encoding="UTF-8"?>
<svg width="18px" height="15px" viewBox="0 0 18 15" version="1.1" xmlns="http://www.w3.org/2000/svg" xmlns:xlink="http://www.w3.org/1999/xlink">
    <title>icons / arrow</title>
    <g id="Landing" stroke="none" stroke-width="1" fill="none" fill-rule="evenodd">
        <g id="Phone" transform="translate(-318.000000, -2619.000000)" fill="#FFFFFF">
            <g id="PROFILE" transform="translate(0.000000, 2092.000000)">
                <g id="Slider" transform="translate(24.000000, 510.000000)">
                    <g id="next" transform="translate(303.000000, 24.000000) rotate(90.000000) translate(-303.000000, -24.000000) translate(279.000000, 0.000000)">
                        <g id="Group" transform="translate(16.000000, 17.000000)">
                            <g id="icons-/-arrow" transform="translate(8.500000, 7.000000) scale(1, -1) rotate(90.000000) translate(-8.500000, -7.000000) ">
                                <path d="M0,7.49789916 L0,6.49789916 C0,6.22175679 0.223857625,5.99789916 0.5,5.99789916 L13.67,5.99789916 L9.22,1.55789916 C9.12534367,1.46401586 9.07210084,1.33621793 9.07210084,1.20289916 C9.07210084,1.06958039 9.12534367,0.941782462 9.22,0.847899162 L9.93,0.147899162 C10.0238833,0.0532428368 10.1516812,0 10.285,0 C10.4183188,0 10.5461167,0.0532428368 10.64,0.147899162 L16.78,6.27789916 C16.9206925,6.41841652 16.9998249,6.60905381 17,6.80789916 L17,7.18789916 C16.997696,7.38631329 16.918884,7.57617861 16.78,7.71789916 L10.64,13.8478992 C10.5461167,13.9425555 10.4183188,13.9957983 10.285,13.9957983 C10.1516812,13.9957983 10.0238833,13.9425555 9.93,13.8478992 L9.22,13.1378992 C9.12593593,13.0457356 9.07292856,12.9195889 9.07292856,12.7878992 C9.07292856,12.6562095 9.12593593,12.5300627 9.22,12.4378992 L13.67,7.99789916 L0.5,7.99789916 C0.223857625,7.99789916 0,7.77404154 0,7.49789916 Z" id="Icon-color"></path>
                            </g>
                        </g>
                    </g>
                </g>
            </g>
        </g>
    </g>
</svg>