<?xml version="1.0" encoding="UTF-8"?>
<svg width="18px" height="18px" viewBox="0 0 18 18" version="1.1" xmlns="http://www.w3.org/2000/svg" xmlns:xlink="http://www.w3.org/1999/xlink">
    <!-- Generator: Sketch 64 (93537) - https://sketch.com -->
    <title>Path</title>
    <desc>Created with Sketch.</desc>
    <g id="Landing" stroke="none" stroke-width="1" fill="none" fill-rule="evenodd">
        <g id="Landing-Desktop" transform="translate(-976.000000, -217.000000)" fill="#FFFFFF">
            <g id="Overlay">
                <g id="POP-IN---1" transform="translate(418.000000, 191.000000)">
                    <g id="clear" transform="translate(558.000000, 26.000000)">
                        <path d="M17.7780736,15.6623326 L17.7780736,15.6623326 C18.0722681,15.9541248 18.0742158,16.4291611 17.7824238,16.7233556 C17.7809797,16.7248116 17.7795296,16.7262617 17.7780736,16.7277058 L16.7277058,17.7780736 L16.7277058,17.7780736 C16.4359136,18.0722681 15.9608773,18.0742158 15.6666828,17.7824238 C15.6652268,17.7809797 15.6637767,17.7795296 15.6623326,17.7780736 L9,11.115741 L2.33766741,17.7780736 L2.33766739,17.7780736 C2.04587523,18.0722681 1.57083891,18.0742158 1.27664441,17.7824238 C1.27518838,17.7809797 1.27373828,17.7795296 1.27229415,17.7780736 L0.221926402,16.7277058 L0.221926419,16.7277058 C-0.0722680826,16.4359137 -0.0742157645,15.9608773 0.217576111,15.6666828 C0.219020248,15.6652268 0.220470354,15.6637767 0.221926374,15.6623326 L6.88425894,9 L0.221926374,2.33766737 L0.221926391,2.33766739 C-0.0722681103,2.04587523 -0.0742157922,1.57083891 0.217576083,1.27664441 C0.21902022,1.27518838 0.220470326,1.27373828 0.221926346,1.27229414 L1.27229409,0.22192639 L1.27229407,0.221926413 C1.56408623,-0.0722680892 2.03912255,-0.0742157712 2.33331705,0.217576105 C2.33477308,0.219020242 2.33622318,0.220470349 2.33766731,0.221926368 L9,6.88425897 L15.6623324,0.221926368 L15.6623324,0.221926392 C15.9541246,-0.0722681106 16.4291609,-0.0742157926 16.7233554,0.217576084 C16.7248114,0.219020221 16.7262615,0.220470327 16.7277057,0.221926347 L17.7780734,1.2722941 L17.7780734,1.27229413 C18.0722679,1.56408629 18.0742156,2.03912261 17.7824236,2.33331711 C17.7809795,2.33477314 17.7795294,2.33622324 17.7780734,2.33766738 L11.1157408,9 L17.7780736,15.6623326 Z" id="Path"></path>
                    </g>
                </g>
            </g>
        </g>
    </g>
</svg>