<?xml version="1.0" encoding="UTF-8"?>
<svg width="22px" height="9px" viewBox="0 0 22 9" version="1.1" xmlns="http://www.w3.org/2000/svg" xmlns:xlink="http://www.w3.org/1999/xlink">
    <!-- Generator: Sketch 64 (93537) - https://sketch.com -->
    <title>Icon color</title>
    <desc>Created with Sketch.</desc>
    <g id="Landing" stroke="none" stroke-width="1" fill="none" fill-rule="evenodd">
        <g id="Landing-Desktop" transform="translate(-395.000000, -6931.000000)" fill="#FFFFFF">
            <g id="Modules" transform="translate(98.000000, 6255.000000)">
                <g id="Interactives" transform="translate(0.000000, 407.000000)">
                    <g id="Modules" transform="translate(0.500000, 73.000000)">
                        <g id="Before/After" transform="translate(0.500000, 0.000000)">
                            <g id="Cursor" transform="translate(274.000000, 168.000000)">
                                <g id="icons-/-drag">
                                    <path d="M37.4067004,36.4278992 C37.2629416,36.5225555 37.067251,36.5757983 36.8631067,36.5757983 C36.6589623,36.5757983 36.4632717,36.5225555 36.3195129,36.4278992 L36.0132629,36.2278992 C35.8637235,36.1338236 35.7805648,36.003485 35.7835754,35.8678992 L35.7835754,28.7078992 C35.7805648,28.5723133 35.8637235,28.4419748 36.0132629,28.3478992 L36.3195129,28.1478992 C36.4632717,28.0532428 36.6589623,28 36.8631067,28 C37.067251,28 37.2629416,28.0532428 37.4067004,28.1478992 L43.2101379,31.9378992 C43.3581749,32.0286325 43.4421509,32.1553133 43.4421509,32.2878992 C43.4421509,32.4204851 43.3581749,32.5471658 43.2101379,32.6378992 L37.4067004,36.4278992 Z M28.0354504,28.1478992 C28.1792092,28.0532428 28.3748998,28 28.5790442,28 C28.7831885,28 28.9788791,28.0532428 29.1226379,28.1478992 L29.4288879,28.3478992 C29.5784273,28.4419748 29.6615861,28.5723133 29.6585754,28.7078992 L29.6585754,35.8678992 C29.6615861,36.003485 29.5784273,36.1338236 29.4288879,36.2278992 L29.1226379,36.4278992 C28.9788791,36.5225555 28.7831885,36.5757983 28.5790442,36.5757983 C28.3748998,36.5757983 28.1792092,36.5225555 28.0354504,36.4278992 L22.2320129,32.6378992 C22.0839759,32.5471658 22,32.4204851 22,32.2878992 C22,32.1553133 22.0839759,32.0286325 22.2320129,31.9378992 L28.0354504,28.1478992 Z" id="Icon-color"></path>
                                </g>
                            </g>
                        </g>
                    </g>
                </g>
            </g>
        </g>
    </g>
</svg>