<?xml version="1.0" encoding="UTF-8"?>
<svg width="14px" height="24px" viewBox="0 0 14 24" version="1.1" xmlns="http://www.w3.org/2000/svg" xmlns:xlink="http://www.w3.org/1999/xlink">
    <!-- Generator: Sketch 64 (93537) - https://sketch.com -->
    <title>Path</title>
    <desc>Created with Sketch.</desc>
    <g id="Landing" stroke="none" stroke-width="1" fill="none" fill-rule="evenodd">
        <g id="Landing-Desktop" transform="translate(-715.000000, -545.000000)" fill="#FFFFFF" fill-rule="nonzero">
            <g id="Overlay">
                <g id="POP-IN---2" transform="translate(418.000000, 233.000000)">
                    <g id="Group-10" transform="translate(274.260869, 294.260870)">
                        <g id="facebook" transform="translate(23.000000, 18.000000)">
                            <path d="M12.6521739,4.17391304 L8.73913043,4.17391304 L8.73913038,4.17391304 C8.01875864,4.17391307 7.43478255,4.75788913 7.43478255,5.47826087 C7.43478255,5.47826087 7.43478255,5.47826087 7.43478255,5.47826087 L7.43478255,9.39130435 L12.6521739,9.39130435 L12.6521738,9.39130435 C12.9042417,9.3857117 13.1131173,9.58551913 13.1187091,9.83758696 C13.1198668,9.88976726 13.1120679,9.94175974 13.0956516,9.99130435 L12.1304342,12.8608696 L12.1304342,12.8608696 C12.041486,13.1242422 11.7953707,13.302283 11.5173907,13.3043478 L7.43478202,13.3043478 L7.43478202,23.0869565 L7.43478202,23.0869565 C7.43478202,23.4471417 7.14279333,23.7391304 6.78260811,23.7391304 L3.52173854,23.7391304 L3.52173851,23.7391304 C3.1615533,23.7391304 2.8695646,23.4471417 2.8695646,23.0869565 C2.8695646,23.0869565 2.8695646,23.0869565 2.8695646,23.0869565 L2.8695646,13.3043478 L0.913042862,13.3043478 L0.913042833,13.3043478 C0.552857616,13.3043478 0.26086892,13.0123591 0.26086892,12.6521739 C0.26086892,12.6521739 0.26086892,12.6521739 0.26086892,12.6521739 L0.26086892,10.0434783 L0.26086892,10.0434784 C0.26086892,9.68329314 0.552857616,9.39130444 0.913042833,9.39130444 L2.86956457,9.39130444 L2.86956457,5.47826097 L2.86956457,5.47826175 C2.86956414,2.5967748 5.20546892,0.260870449 8.08695588,0.260870449 L12.6521733,0.260870449 L12.6521732,0.260870449 C13.0123585,0.260870449 13.3043472,0.552859144 13.3043472,0.913044362 L13.3043472,3.52174001 L13.3043472,3.52174004 C13.3043472,3.88192526 13.0123598,4.17391396 12.6521745,4.17391396 L12.6521739,4.17391304 Z" id="Path"></path>
                        </g>
                    </g>
                </g>
            </g>
        </g>
    </g>
</svg>