<?xml version="1.0" encoding="UTF-8"?>
<svg width="24px" height="24px" viewBox="0 0 24 24" version="1.1" xmlns="http://www.w3.org/2000/svg" xmlns:xlink="http://www.w3.org/1999/xlink">
    <title>facebook_square</title>
    <g id="Landing" stroke="none" stroke-width="1" fill="none" fill-rule="evenodd">
        <g id="Desktop" transform="translate(-923.000000, -7740.000000)" fill="#4364A2">
            <g id="BannerFooter" transform="translate(0.000000, 7683.000000)">
                <g id="CTA-Facebook" transform="translate(899.000000, 41.000000)">
                    <path d="M48,18.6666665 L48,37.3333333 L48,37.3333333 C48,38.8060933 46.806092,40 45.3333333,40 L40.3333334,40 L40.3333333,40 C39.965144,40 39.6666667,39.7015227 39.6666667,39.3333333 C39.6666667,39.3333333 39.6666667,39.3333333 39.6666667,39.3333333 L39.6666667,31.3333333 L42.7866667,31.3333333 L42.7866666,31.3333333 C43.103512,31.3333979 43.3766306,31.1104439 43.44,30.7999999 L43.92,28.3999999 L43.92,28.3999999 C43.9568549,28.2196319 43.8405144,28.0435372 43.6601466,28.0066825 C43.640342,28.0026358 43.6202102,28.0003989 43.6000002,28 L39.6666669,28 L39.6666669,23.6666662 L39.6666669,23.6666663 C39.6666669,23.4825716 39.8159056,23.3333329 40,23.3333329 L43.3333336,23.3333329 L43.3333336,23.3333329 C43.7015229,23.333333 44,23.0348556 44,22.6666663 C44,22.6666663 44,22.6666662 44,22.6666662 L44,20.6666662 L44,20.6666662 C44,20.2984769 43.7015229,20 43.3333336,20 L40,20 L40,20 C37.7908668,20 36,21.7908662 36,24 C36,24 36,24 36,24 L36,28 L34.3600001,28 L34.3600001,28 C33.9918108,28 33.6933334,28.2984769 33.6933334,28.6666663 C33.6933334,28.6666663 33.6933334,28.6666663 33.6933334,28.6666663 L33.6933334,30.6666663 L33.6933334,30.6666664 C33.6933335,31.0348557 33.9918108,31.3333331 34.3600001,31.3333331 L36,31.3333331 L36,39.3333331 L36,39.3333331 C36,39.7015225 35.7015227,40 35.3333334,40 L26.6666668,40 L26.6666667,40 C25.1939067,40 24,38.8060918 24,37.3333331 C24,37.3333331 24,37.3333331 24,37.3333331 L24,18.6666663 L24,18.6666667 C24,17.1939067 25.1939067,16 26.6666667,16 L45.3333333,16 L45.3333331,16 C46.8060931,16 48,17.1939067 48,18.6666667 L48,18.6666665 Z" id="facebook_square"></path>
                </g>
            </g>
        </g>
    </g>
</svg>