<?xml version="1.0" encoding="UTF-8"?>
<svg width="24px" height="24px" viewBox="0 0 24 24" version="1.1" xmlns="http://www.w3.org/2000/svg" xmlns:xlink="http://www.w3.org/1999/xlink">
    <!-- Generator: Sketch 64 (93537) - https://sketch.com -->
    <title>Icon color</title>
    <desc>Created with Sketch.</desc>
    <g id="Landing" stroke="none" stroke-width="1" fill="none" fill-rule="evenodd">
        <g id="Landing-Ipad" transform="translate(-254.000000, -4791.000000)" fill="#FFFFFF">
            <g id="Profile" transform="translate(50.000000, 4264.000000)">
                <g id="3Phones" transform="translate(0.000000, 341.000000)">
                    <g id="Texts" transform="translate(153.000000, 0.000000)">
                        <g id="card-3-Grid" transform="translate(0.000000, 168.000000)">
                            <g id="Text" transform="translate(51.000000, 18.000000)">
                                <path d="M9.33333333,10.6666667 C10.0171145,10.6666667 10.5806762,11.1813869 10.6576964,11.8445052 L10.6666667,12 L10.6666667,22.6666667 C10.6666667,23.3504478 10.1519464,23.9140095 9.48882817,23.9910297 L9.33333333,24 L1.33333333,24 C0.649552214,24 0.0859904524,23.4852797 0.00897030843,22.8221615 L0,22.6666667 L0,12 C0,11.3162189 0.514720254,10.7526571 1.1778385,10.675637 L1.33333333,10.6666667 L9.33333333,10.6666667 Z M22.6666667,16 C23.3504478,16 23.9140095,16.5147203 23.9910297,17.1778385 L24,17.3333333 L24,22.6666667 C24,23.3504478 23.4852797,23.9140095 22.8221615,23.9910297 L22.6666667,24 L14.6666667,24 C13.9828855,24 13.4193238,23.4852797 13.3423036,22.8221615 L13.3333333,22.6666667 L13.3333333,17.3333333 C13.3333333,16.6495522 13.8480536,16.0859905 14.5111718,16.0089703 L14.6666667,16 L22.6666667,16 Z M8,13.3333333 L2.66666667,13.3333333 L2.66666667,21.3333333 L8,21.3333333 L8,13.3333333 Z M21.3333333,18.6666667 L16,18.6666667 L16,21.3333333 L21.3333333,21.3333333 L21.3333333,18.6666667 Z M22.6666667,0 C23.3504478,0 23.9140095,0.514720254 23.9910297,1.1778385 L24,1.33333333 L24,12 C24,12.6837811 23.4852797,13.2473429 22.8221615,13.324363 L22.6666667,13.3333333 L14.6666667,13.3333333 C13.9828855,13.3333333 13.4193238,12.8186131 13.3423036,12.1554948 L13.3333333,12 L13.3333333,1.33333333 C13.3333333,0.649552214 13.8480536,0.0859904524 14.5111718,0.00897030843 L14.6666667,0 L22.6666667,0 Z M21.3333333,2.66666667 L16,2.66666667 L16,10.6666667 L21.3333333,10.6666667 L21.3333333,2.66666667 Z M9.33333333,0 C10.069713,0 10.6666667,0.596953667 10.6666667,1.33333333 L10.6666667,6.66666667 C10.6666667,7.40304633 10.069713,8 9.33333333,8 L1.33333333,8 C0.596953667,8 0,7.40304633 0,6.66666667 L0,1.33333333 C0,0.596953667 0.596953667,0 1.33333333,0 L9.33333333,0 Z M8,2.66666667 L2.66666667,2.66666667 L2.66666667,5.33333333 L8,5.33333333 L8,2.66666667 Z" id="Icon-color"></path>
                            </g>
                        </g>
                    </g>
                </g>
            </g>
        </g>
    </g>
</svg>