<?xml version="1.0" encoding="UTF-8"?>
<svg width="25px" height="24px" viewBox="0 0 25 24" version="1.1" xmlns="http://www.w3.org/2000/svg" xmlns:xlink="http://www.w3.org/1999/xlink">
    <!-- Generator: Sketch 64 (93537) - https://sketch.com -->
    <title>Shape</title>
    <desc>Created with Sketch.</desc>
    <g id="Landing" stroke="none" stroke-width="1" fill="none" fill-rule="evenodd">
        <g id="Landing-Desktop" transform="translate(-819.000000, -545.000000)" fill="#FFFFFF" fill-rule="nonzero">
            <g id="Overlay">
                <g id="POP-IN---2" transform="translate(418.000000, 233.000000)">
                    <g id="Group-9" transform="translate(383.000000, 294.000000)">
                        <g id="email" transform="translate(15.000000, 18.000000)">
                            <g id="linkedin" transform="translate(3.000000, 0.000000)">
                                <path d="M6,9.34883721 L6,23.3023256 L6,23.3023256 C6,23.68764 5.68764,24 5.30232558,24 L1.81395349,24 L1.81395346,24 C1.42863904,24 1.11627904,23.68764 1.11627904,23.3023256 C1.11627904,23.3023256 1.11627904,23.3023256 1.11627904,23.3023256 L1.11627904,9.34883721 L1.11627904,9.34883731 C1.11627904,8.9635229 1.42863904,8.6511629 1.81395346,8.6511629 L5.30232555,8.6511629 L5.30232552,8.6511629 C5.68763994,8.6511629 6,8.9635229 6,9.34883731 L6,9.34883721 Z M24.8372093,14.8046512 L24.8372096,14.8046347 C24.8852976,11.7835649 22.8242933,9.13619747 19.8837072,8.44185793 L19.8837076,8.441858 C17.9131262,8.01754219 15.859075,8.57395833 14.3720936,9.93488126 L14.3720936,9.34883475 L14.3720936,9.34883475 C14.3720936,8.96352033 14.0597336,8.65116033 13.6744192,8.65116033 C13.6744191,8.65116033 13.674419,8.65116033 13.6744189,8.65116033 L10.1860469,8.65116033 L10.1860468,8.65116033 C9.80073241,8.65116035 9.48837241,8.96352033 9.48837241,9.34883475 C9.48837241,9.34883475 9.48837241,9.34883475 9.48837241,9.34883475 L9.48837241,23.3023231 L9.48837241,23.3023232 C9.48837241,23.6876376 9.80073241,24.0000017 10.1860468,24.0000017 L13.6744189,24.0000017 L13.6744189,24.0000017 C14.0597333,24.0000017 14.3720933,23.6876376 14.3720933,23.3023232 L14.3720933,15.4325558 L14.3720934,15.4325584 C14.337635,14.0312374 15.3143041,12.8074467 16.6883724,12.5302328 L16.6883724,12.5302328 C18.2071678,12.2680551 19.6509352,13.2867463 19.9131073,14.8055444 C19.9424836,14.9757212 19.9560002,15.1482574 19.9534832,15.3209319 L19.9534832,23.302334 L19.9534832,23.302334 C19.9534833,23.6876417 20.2658432,24.0000017 20.6511577,24.0000017 L24.1395298,24.0000017 L24.1395297,24.0000017 C24.5248441,24.0000017 24.8372041,23.6876417 24.8372041,23.302334 L24.8372093,14.8046512 Z M3.20930233,0.279069767 L3.2093022,0.279069767 C1.66804174,0.279069767 0.418604529,1.52850837 0.418604529,3.06976744 C0.418604529,4.61102791 1.66804313,5.86046512 3.2093022,5.86046512 C4.75056267,5.86046512 5.99999988,4.61102651 5.99999988,3.06976744 L5.99999988,3.06976756 C5.99999988,1.5285071 4.75056267,0.279069767 3.2093022,0.279069767 L3.20930233,0.279069767 Z" id="Shape"></path>
                            </g>
                        </g>
                    </g>
                </g>
            </g>
        </g>
    </g>
</svg>