<?xml version="1.0" encoding="UTF-8"?>
<svg width="24px" height="24px" viewBox="0 0 24 24" version="1.1" xmlns="http://www.w3.org/2000/svg" xmlns:xlink="http://www.w3.org/1999/xlink">
    <!-- Generator: Sketch 64 (93537) - https://sketch.com -->
    <title>Icon color</title>
    <desc>Created with Sketch.</desc>
    <g id="Landing" stroke="none" stroke-width="1" fill="none" fill-rule="evenodd">
        <g id="Landing-Ipad" transform="translate(-233.000000, -4706.000000)" fill="#FFFFFF">
            <g id="Profile" transform="translate(50.000000, 4264.000000)">
                <g id="3Phones" transform="translate(0.000000, 341.000000)">
                    <g id="Texts" transform="translate(153.000000, 0.000000)">
                        <g id="card-2-boards" transform="translate(0.000000, 84.000000)">
                            <g id="Text" transform="translate(30.000000, 17.000000)">
                                <path d="M23.7066635,7.34666667 L13.4799996,0.346666667 C13.1500407,0.121073317 12.7597062,0.000255459868 12.3599999,0 L11.6400001,0 C11.2402938,0.000255459868 10.8499593,0.121073317 10.5200004,0.346666667 L0.293336536,7.34666667 C0.109759369,7.46788312 -0.000489765786,7.67334747 1.63582331e-06,7.89333333 L1.63582331e-06,8.10666667 C-0.000489765786,8.32665253 0.109759369,8.53211688 0.293336536,8.65333333 L10.5200004,15.6533333 C10.8499593,15.8789267 11.2402938,15.9997445 11.6400001,16 L12.3599999,16 C12.7597062,15.9997445 13.1500407,15.8789267 13.4799996,15.6533333 L23.7066635,8.65333333 C23.8902406,8.53211688 24.0004898,8.32665253 24.0000016,8.10666667 L24.0000016,7.89333333 C24.0004898,7.67334747 23.8902406,7.46788312 23.7066635,7.34666667 Z M12.1466666,13.3333333 L11.8533334,13.3333333 L4.00000219,8 L11.8000001,2.66666667 L12.0933333,2.66666667 L20.0000022,8 L12.1466666,13.3333333 Z M23.7066635,15.3466667 L20.8933309,13.4133333 L18.5333315,15.0266667 L20.0000016,16 L12.1999999,21.3333333 L11.9066667,21.3333333 L4.00000164,16 L5.41333514,15.0266667 L3.1066691,13.4133333 L0.293336536,15.3466667 C0.109759369,15.4678831 -0.000489765786,15.6733475 1.63582331e-06,15.8933333 L1.63582331e-06,16.1066667 C-0.000489765786,16.3266525 0.109759369,16.5321169 0.293336536,16.6533333 L10.5200004,23.6533333 C10.8499593,23.8789267 11.2402938,23.9997445 11.6400001,24 L12.3599999,24 C12.7597062,23.9997445 13.1500407,23.8789267 13.4799996,23.6533333 L23.7066635,16.6533333 C23.8902406,16.5321169 24.0004898,16.3266525 24.0000016,16.1066667 L24.0000016,15.8933333 C24.0004898,15.6733475 23.8902406,15.4678831 23.7066635,15.3466667 Z" id="Icon-color"></path>
                            </g>
                        </g>
                    </g>
                </g>
            </g>
        </g>
    </g>
</svg>