<?xml version="1.0" encoding="UTF-8"?>
<svg width="24px" height="21px" viewBox="0 0 24 21" version="1.1" xmlns="http://www.w3.org/2000/svg" xmlns:xlink="http://www.w3.org/1999/xlink">
    <title>twitterLogo</title>
    <g id="Landing" stroke="none" stroke-width="1" fill="none" fill-rule="evenodd">
        <g id="Desktop" transform="translate(-1115.000000, -7742.000000)" fill="#00B5F0">
            <g id="BannerFooter" transform="translate(0.000000, 7683.000000)">
                <g id="CTA-Twitter" transform="translate(1091.000000, 41.000000)">
                    <path d="M47.9648222,21.0434032 L47.9648223,21.0434031 C47.3455707,21.8937212 46.5970485,22.6354667 45.7481643,23.2399826 C45.7481643,23.4621087 45.7481643,23.6842347 45.7481643,23.9187011 L45.7481645,23.9188545 C45.7621017,32.2335993 39.2287215,38.9856628 31.1554851,39 C31.0791156,39 31.0027466,38.9996328 30.9263845,38.9985358 L30.926385,38.9985358 C28.6623144,39.0063217 26.4272401,38.4741321 24.3962301,37.4436537 L24.3962301,37.4436537 C24.2867186,37.3944302 24.2160853,37.2828863 24.2165011,37.159826 L24.2165011,37.0240835 L24.2165011,37.0240836 C24.2165011,36.8468838 24.355978,36.7032349 24.5280314,36.7032349 C24.5280314,36.7032349 24.5280314,36.7032349 24.5280314,36.7032349 L24.5280318,36.7032349 C26.7536164,36.6277591 28.8997967,35.8334214 30.6629265,34.4326133 L30.6629264,34.4326133 C28.6485114,34.3908553 26.8360639,33.1623979 26.0019535,31.2734876 L26.0019535,31.2734876 C25.9352522,31.1101459 26.0097491,30.922041 26.1683466,30.8533448 C26.2141653,30.8334986 26.2639297,30.8252319 26.3134838,30.8292355 L26.3134837,30.8292355 C26.9257079,30.8925863 27.5440524,30.8339303 28.1347379,30.6564708 L28.1347375,30.6564707 C25.9109981,30.181279 24.2401052,28.2808329 24.0009698,25.9548032 L24.0009698,25.954803 C23.9875144,25.7781462 24.1156564,25.6237032 24.2871834,25.609845 C24.3367371,25.6058415 24.3865016,25.6141081 24.4323206,25.6339544 L24.4323205,25.6339544 C25.029076,25.9050209 25.6732656,26.0477912 26.3254663,26.0535257 L26.3254666,26.0535259 C24.3769403,24.736985 23.5353052,22.2328719 24.2765557,19.9574006 L24.2765556,19.9574006 C24.39652,19.6107286 24.7666408,19.429855 25.1032445,19.5534077 C25.2044294,19.5905483 25.2950441,19.6530504 25.3669118,19.7352746 L25.3669118,19.7352747 C27.9963236,22.6161011 31.6091767,24.3327651 35.4437196,24.5233245 L35.4437196,24.5233246 C35.3454996,24.1198623 35.2971889,23.705232 35.2999364,23.2892911 L35.2999362,23.2892993 C35.3487873,20.3182156 37.7269731,17.9504756 40.6117679,18.0007872 C42.006609,18.0251139 43.3340517,18.6229967 44.2983698,19.6612286 L44.2983707,19.6612284 C45.2963341,19.4655193 46.2611196,19.1204478 47.1620533,18.6369818 L47.1620533,18.6369818 C47.2280471,18.5945674 47.311734,18.5945674 47.3777281,18.6369818 L47.3777281,18.6369818 C47.4189107,18.7049497 47.4189107,18.7911398 47.3777281,18.8591079 L47.3777281,18.8591079 C46.941346,19.8878031 46.2041383,20.7505974 45.2689075,21.3271748 L45.2689073,21.3271748 C46.087875,21.2294078 46.8924476,21.0305342 47.6652944,20.7348388 L47.6652944,20.7348388 C47.7303699,20.6892413 47.8158942,20.6892413 47.8809693,20.7348388 L47.8809693,20.7348388 C47.9832759,20.7830232 48.0282848,20.907501 47.9814999,21.0128678 C47.9767841,21.0234884 47.9712155,21.0336849 47.9648521,21.043351 L47.9648222,21.0434032 Z" id="twitterLogo"></path>
                </g>
            </g>
        </g>
    </g>
</svg>