<?xml version="1.0" encoding="UTF-8"?>
<svg width="24px" height="21px" viewBox="0 0 24 21" version="1.1" xmlns="http://www.w3.org/2000/svg" xmlns:xlink="http://www.w3.org/1999/xlink">
    <!-- Generator: Sketch 64 (93537) - https://sketch.com -->
    <title>Path</title>
    <desc>Created with Sketch.</desc>
    <g id="Landing" stroke="none" stroke-width="1" fill="none" fill-rule="evenodd">
        <g id="Landing-Desktop" transform="translate(-599.000000, -547.000000)" fill="#FFFFFF">
            <g id="Overlay">
                <g id="POP-IN---2" transform="translate(418.000000, 233.000000)">
                    <g id="Group-11" transform="translate(163.000000, 294.000000)">
                        <path d="M41.9648222,23.0434032 L41.9648223,23.0434031 C41.3455707,23.8937212 40.5970485,24.6354667 39.7481643,25.2399826 C39.7481643,25.4621087 39.7481643,25.6842347 39.7481643,25.9187011 L39.7481645,25.9188545 C39.7621017,34.2335993 33.2287215,40.9856628 25.1554851,41 C25.0791156,41 25.0027466,40.9996328 24.9263845,40.9985358 L24.926385,40.9985358 C22.6623144,41.0063217 20.4272401,40.4741321 18.3962301,39.4436537 L18.3962301,39.4436537 C18.2867186,39.3944302 18.2160853,39.2828863 18.2165011,39.159826 L18.2165011,39.0240835 L18.2165011,39.0240836 C18.2165011,38.8468838 18.355978,38.7032349 18.5280314,38.7032349 C18.5280314,38.7032349 18.5280314,38.7032349 18.5280314,38.7032349 L18.5280318,38.7032349 C20.7536164,38.6277591 22.8997967,37.8334214 24.6629265,36.4326133 L24.6629264,36.4326133 C22.6485114,36.3908553 20.8360639,35.1623979 20.0019535,33.2734876 L20.0019535,33.2734876 C19.9352522,33.1101459 20.0097491,32.922041 20.1683466,32.8533448 C20.2141653,32.8334986 20.2639297,32.8252319 20.3134838,32.8292355 L20.3134837,32.8292355 C20.9257079,32.8925863 21.5440524,32.8339303 22.1347379,32.6564708 L22.1347375,32.6564707 C19.9109981,32.181279 18.2401052,30.2808329 18.0009698,27.9548032 L18.0009698,27.954803 C17.9875144,27.7781462 18.1156564,27.6237032 18.2871834,27.609845 C18.3367371,27.6058415 18.3865016,27.6141081 18.4323206,27.6339544 L18.4323205,27.6339544 C19.029076,27.9050209 19.6732656,28.0477912 20.3254663,28.0535257 L20.3254666,28.0535259 C18.3769403,26.736985 17.5353052,24.2328719 18.2765557,21.9574006 L18.2765556,21.9574006 C18.39652,21.6107286 18.7666408,21.429855 19.1032445,21.5534077 C19.2044294,21.5905483 19.2950441,21.6530504 19.3669118,21.7352746 L19.3669118,21.7352747 C21.9963236,24.6161011 25.6091767,26.3327651 29.4437196,26.5233245 L29.4437196,26.5233246 C29.3454996,26.1198623 29.2971889,25.705232 29.2999364,25.2892911 L29.2999362,25.2892993 C29.3487873,22.3182156 31.7269731,19.9504756 34.6117679,20.0007872 C36.006609,20.0251139 37.3340517,20.6229967 38.2983698,21.6612286 L38.2983707,21.6612284 C39.2963341,21.4655193 40.2611196,21.1204478 41.1620533,20.6369818 L41.1620533,20.6369818 C41.2280471,20.5945674 41.311734,20.5945674 41.3777281,20.6369818 L41.3777281,20.6369818 C41.4189107,20.7049497 41.4189107,20.7911398 41.3777281,20.8591079 L41.3777281,20.8591079 C40.941346,21.8878031 40.2041383,22.7505974 39.2689075,23.3271748 L39.2689073,23.3271748 C40.087875,23.2294078 40.8924476,23.0305342 41.6652944,22.7348388 L41.6652944,22.7348388 C41.7303699,22.6892413 41.8158942,22.6892413 41.8809693,22.7348388 L41.8809693,22.7348388 C41.9832759,22.7830232 42.0282848,22.907501 41.9814999,23.0128678 C41.9767841,23.0234884 41.9712155,23.0336849 41.9648521,23.043351 L41.9648222,23.0434032 Z" id="Path"></path>
                    </g>
                </g>
            </g>
        </g>
    </g>
</svg>