<?xml version="1.0" standalone="no"?>
<!DOCTYPE svg PUBLIC "-//W3C//DTD SVG 1.1//EN" "http://www.w3.org/Graphics/SVG/1.1/DTD/svg11.dtd" >
<svg>
<metadata>
Created by FontForge 20090622 at Thu Nov 28 18:57:07 2019
 By deploy user
Copyright &#194;&#169; 2018 by atipo. All rights reserved. |DCNT
</metadata>
<defs>
<font id="Silka-Bold" horiz-adv-x="604" >
  <font-face 
    font-family="Silka"
    font-weight="700"
    font-stretch="normal"
    units-per-em="1000"
    panose-1="0 0 8 0 0 0 0 0 0 0"
    ascent="750"
    descent="-250"
    x-height="528"
    cap-height="700"
    bbox="-176 -243 1113 946"
    underline-thickness="50"
    underline-position="-249"
    unicode-range="U+000D-U+25FC"
  />
<missing-glyph horiz-adv-x="568" 
d="M534 0h-500v700h500v-700zM84 605v-510l170 255zM284 305l-170 -255h340zM454 650h-340l170 -255zM484 605l-170 -255l170 -255v510z" />
    <glyph glyph-name="ellipsis" unicode="&#x2e;&#x2e;&#x2e;" horiz-adv-x="791" 
d="M52 70q0 35 25 59t60 24q38 0 61.5 -23.5t23.5 -59.5q0 -37 -23.5 -60t-61.5 -23q-36 0 -60.5 23.5t-24.5 59.5zM311 70q0 35 24.5 59t59.5 24q38 0 62 -23.5t24 -59.5q0 -37 -24 -60t-62 -23q-36 0 -60 23.5t-24 59.5zM569 70q0 35 25 59t60 24q37 0 61 -24t24 -59
q0 -37 -24 -60t-61 -23q-36 0 -60.5 23.5t-24.5 59.5z" />
    <glyph glyph-name="degree.alt" unicode="&#xb0;C" horiz-adv-x="978" 
d="M203 713q67 0 107 -43q42 -42 42 -104t-42 -106q-40 -42 -107 -42t-109 42q-41 43 -41 104q0 62 42 106q42 43 108 43zM147 565q0 -25 15 -41t41 -16q24 0 39.5 16.5t15.5 41.5t-15 41t-40 16t-40.5 -16.5t-15.5 -41.5zM419 220v260q0 107 73 170t172 63q110 0 177 -67
q68 -66 68 -176h-156q0 44 -24 69t-65 25q-40 0 -64 -25t-24 -69v-240q0 -42 24.5 -68t63.5 -26t64 25.5t25 67.5h156q0 -109 -69 -176q-69 -66 -176 -66q-99 0 -172 63t-73 170z" />
    <glyph glyph-name=".notdef" horiz-adv-x="568" 
d="M534 0h-500v700h500v-700zM84 605v-510l170 255zM284 305l-170 -255h340zM454 650h-340l170 -255zM484 605l-170 -255l170 -255v510z" />
    <glyph glyph-name=".null" horiz-adv-x="0" 
 />
    <glyph glyph-name="nonmarkingreturn" horiz-adv-x="333" 
 />
    <glyph glyph-name="CR.001" unicode="&#xd;" horiz-adv-x="0" 
 />
    <glyph glyph-name="space" unicode=" " horiz-adv-x="258" 
 />
    <glyph glyph-name="exclam" unicode="!" horiz-adv-x="300" 
d="M65 70q0 35 25 59t60 24q37 0 61 -24t24 -59q0 -37 -23.5 -60t-61.5 -23q-36 0 -60.5 23.5t-24.5 59.5zM106 209l-34 229v262h158v-262l-34 -229h-90z" />
    <glyph glyph-name="quotedbl" unicode="&#x22;" horiz-adv-x="464" 
d="M75 463l-12 237h139l-13 -237h-114zM275 463l-12 237h139l-12 -237h-115z" />
    <glyph glyph-name="numbersign" unicode="#" horiz-adv-x="599" 
d="M114 184h-68v114h85l16 103h-71v114h88l28 185h120l-28 -185h81l28 185h120l-28 -185h68v-114h-85l-16 -103h71v-114h-88l-28 -184h-120l28 184h-81l-28 -184h-120zM267 401l-16 -103h81l16 103h-81z" />
    <glyph glyph-name="dollar" unicode="$" horiz-adv-x="608" 
d="M28 228h151q5 -70 79 -90v148l-44 11q-49 14 -82 33q-86 56 -86 173q0 83 57 140.5t155 67.5v55h84v-55q97 -11 155 -68.5t61 -152.5h-158q-2 58 -58 76v-136q44 -10 81 -20q36 -9 75 -34q78 -47 78 -163q0 -93 -62.5 -153.5t-171.5 -70.5v-74h-84v74
q-108 11 -169.5 75.5t-60.5 163.5zM258 450v117q-54 -12 -54 -61q0 -38 54 -56zM342 266v-131q69 13 69 66q0 25 -16.5 40t-52.5 25z" />
    <glyph glyph-name="percent" unicode="%" horiz-adv-x="836" 
d="M63 455v126q0 59 40 95.5t101 36.5q62 0 101.5 -36.5t39.5 -95.5v-126q0 -59 -39.5 -95.5t-101.5 -36.5q-61 0 -101 36.5t-40 95.5zM162 579v-122q0 -19 11.5 -31.5t30.5 -12.5q20 0 31.5 12.5t11.5 31.5v122q3 26 -20 37t-45.5 0t-19.5 -37zM253 26l-86 62l416 593
l86 -62zM491 119v126q0 59 39.5 95.5t100.5 36.5q63 0 102.5 -36.5t39.5 -95.5v-126q0 -58 -40 -95t-102 -37q-61 0 -100.5 37t-39.5 95zM590 243v-122q0 -19 11 -31.5t31 -12.5q18 0 30 13t12 31v122q0 19 -11.5 31t-30.5 12q-20 0 -31 -12t-11 -31z" />
    <glyph glyph-name="ampersand" unicode="&#x26;" horiz-adv-x="699" 
d="M36 200q0 112 117 181q-62 77 -62 149q0 78 55 130q56 53 146 53q84 0 142 -53q57 -52 59 -129q1 -60 -29 -101t-92 -75l-10 -5l107 -119q44 74 24 164h135q31 -147 -63 -269l114 -126h-185l-32 35q-84 -48 -179 -48q-103 0 -175 55t-72 158zM186 200q0 -34 28 -57
t71 -23t84 19l-128 144q-55 -31 -55 -83zM233 526q0 -35 42 -80l18 10q32 17 44.5 32.5t12.5 38.5q0 24 -16 40t-42 16t-42.5 -16.5t-16.5 -40.5z" />
    <glyph glyph-name="quotesingle" unicode="'" horiz-adv-x="264" 
d="M75 463l-12 237h139l-13 -237h-114z" />
    <glyph glyph-name="parenleft" unicode="(" horiz-adv-x="505" 
d="M38 310q0 155 79 278t203 189l109 -81q-106 -63 -172.5 -159t-66.5 -227t67 -228t172 -158l-109 -81q-124 67 -203 189t-79 278z" />
    <glyph glyph-name="parenright" unicode=")" horiz-adv-x="505" 
d="M185 -157l-109 81q106 61 172.5 158t66.5 228t-66.5 228t-172.5 158l109 81q124 -66 203 -189t79 -278q0 -156 -79 -278t-203 -189z" />
    <glyph glyph-name="asterisk" unicode="*" horiz-adv-x="465" 
d="M168 500l-110 -11v73l110 -13l1 6l-86 68l52 52l68 -88l5 3l-12 110h73l-12 -110l5 -3l68 88l52 -52l-86 -68l1 -6l110 13v-73l-111 11l-1 -7l87 -66l-52 -52l-69 86l-5 -3l13 -108h-73l13 108l-5 3l-69 -86l-52 52l87 66z" />
    <glyph glyph-name="plus" unicode="+" horiz-adv-x="501" 
d="M188 251h-183v120h183v188h126v-188h182v-120h-182v-188h-126v188z" />
    <glyph glyph-name="comma" unicode="," horiz-adv-x="273" 
d="M161 -131h-111l19 262h151z" />
    <glyph glyph-name="hyphen" unicode="-" horiz-adv-x="384" 
d="M335 240h-286v131h286v-131z" />
    <glyph glyph-name="period" unicode="." horiz-adv-x="274" 
d="M52 70q0 35 25 59t60 24q38 0 61.5 -23.5t23.5 -59.5q0 -37 -23.5 -60t-61.5 -23q-36 0 -60.5 23.5t-24.5 59.5z" />
    <glyph glyph-name="slash" unicode="/" horiz-adv-x="523" 
d="M183 -108h-149l305 858h150z" />
    <glyph glyph-name="zero" unicode="0" horiz-adv-x="612" 
d="M61 220v260q0 106 73 169.5t171 63.5q100 0 173 -63t73 -170v-260q0 -107 -73 -170t-173 -63q-98 0 -171 63.5t-73 169.5zM217 470v-240q0 -42 24.5 -68t63.5 -26q40 0 64.5 25.5t24.5 68.5v240q0 43 -24.5 68.5t-64.5 25.5q-39 0 -63.5 -26t-24.5 -68z" />
    <glyph glyph-name="one" unicode="1" horiz-adv-x="464" 
d="M225 476h-163v117q96 0 135.5 25.5t39.5 81.5h145v-700h-157v476z" />
    <glyph glyph-name="two" unicode="2" horiz-adv-x="587" 
d="M205 485h-146q0 94 62.5 161t171.5 67q111 0 176 -61q67 -61 67 -152q0 -68 -32 -116.5t-99 -88.5l-140 -82q-48 -29 -48 -68v-8h318v-137h-475v123q0 68 31.5 117t101.5 92l130 80q29 19 42 37.5t13 44.5q0 33 -23.5 53.5t-62.5 20.5q-38 0 -62.5 -24t-24.5 -59z" />
    <glyph glyph-name="three" unicode="3" horiz-adv-x="601" 
d="M67 216h145q1 -34 25.5 -56.5t62.5 -22.5q41 0 66.5 24t25.5 61q0 36 -26 60.5t-68 24.5h-99v119l141 127v7h-261v141h453v-137l-146 -131v-6q71 -13 118 -71q46 -55 46 -134q0 -97 -67.5 -165.5t-180.5 -68.5q-110 0 -172.5 67.5t-62.5 160.5z" />
    <glyph glyph-name="four" unicode="4" horiz-adv-x="642" 
d="M360 123h-305v132l174 445h161l-165 -431v-6h135v144h156v-144h71v-140h-71v-123h-156v123z" />
    <glyph glyph-name="five" unicode="5" horiz-adv-x="591" 
d="M65 213h146q3 -34 27.5 -55.5t62.5 -21.5q41 0 66.5 25.5t25.5 62.5q0 39 -26 64t-68 25q-52 0 -75 -36h-150l29 424h406v-141h-271l-10 -142h5q44 31 100 31q94 0 155.5 -66.5t61.5 -158.5q0 -101 -68 -168.5t-179 -67.5q-108 0 -172 64t-66 161z" />
    <glyph glyph-name="six" unicode="6" horiz-adv-x="614" 
d="M56 228q0 72 36 136l186 336h183l-152 -247l4 -4q15 5 32 5q78 0 145.5 -58.5t67.5 -167.5q1 -102 -75.5 -173t-176.5 -68q-100 -3 -175.5 67.5t-74.5 173.5zM306 136q40 0 66.5 26.5t26.5 65.5q0 40 -26.5 67t-66.5 27q-39 0 -65.5 -27.5t-26.5 -66.5t26.5 -65.5
t65.5 -26.5z" />
    <glyph glyph-name="seven" unicode="7" horiz-adv-x="560" 
d="M342 560h-294v141h466v-135l-239 -566h-173l240 553v7z" />
    <glyph glyph-name="eight" unicode="8" horiz-adv-x="615" 
d="M52 199q0 112 101 171v8q-76 54 -76 146q0 83 65 136t165 53q101 0 166 -53t65 -136q0 -93 -77 -146v-8q102 -58 102 -171q0 -94 -71 -153q-70 -58 -185 -58t-185 58t-70 153zM210 211q0 -37 26.5 -60.5t70.5 -23.5t70.5 23.5t26.5 60.5q0 39 -27 63t-70 24
q-42 0 -69.5 -24t-27.5 -63zM307 577q-35 0 -57 -21.5t-22 -52.5t22.5 -52.5t56.5 -21.5t56.5 21.5t22.5 52.5t-22 52.5t-57 21.5z" />
    <glyph glyph-name="nine" unicode="9" horiz-adv-x="614" 
d="M56 472q-1 103 75.5 173t176.5 68q102 0 176 -67.5t74 -173.5q0 -72 -36 -136l-186 -336h-183l152 247l-4 4q-15 -5 -32 -5q-34 0 -70 13.5t-69 39.5t-53.5 71t-20.5 102zM215 472q0 -39 27 -66.5t66 -27.5t65.5 27.5t26.5 66.5t-26 65.5t-66 26.5t-66.5 -26.5
t-26.5 -65.5z" />
    <glyph glyph-name="colon" unicode=":" horiz-adv-x="274" 
d="M52 70q0 35 25 59t60 24q38 0 61.5 -23.5t23.5 -59.5q0 -37 -23.5 -60t-61.5 -23q-36 0 -60.5 23.5t-24.5 59.5zM52 411q0 35 25 59t60 24q38 0 61.5 -23.5t23.5 -59.5q0 -37 -23.5 -60.5t-61.5 -23.5q-36 0 -60.5 24t-24.5 60z" />
    <glyph glyph-name="semicolon" unicode=";" horiz-adv-x="277" 
d="M161 -131h-111l19 262h151zM52 411q0 35 25 59t60 24q38 0 61.5 -23.5t23.5 -59.5q0 -37 -23.5 -60.5t-61.5 -23.5q-36 0 -60.5 24t-24.5 60z" />
    <glyph glyph-name="less" unicode="&#x3c;" horiz-adv-x="532" 
d="M478 80l-424 160v144l424 160v-130l-285 -99v-6l285 -99v-130z" />
    <glyph glyph-name="equal" unicode="=" horiz-adv-x="501" 
d="M496 147h-491v121h491v-121zM496 344h-491v120h491v-120z" />
    <glyph glyph-name="greater" unicode="&#x3e;" horiz-adv-x="532" 
d="M478 240l-424 -160v130l285 99v6l-285 99v130l424 -160v-144z" />
    <glyph glyph-name="question" unicode="?" horiz-adv-x="559" 
d="M194 499h-141q0 92 59 153t164 61q108 0 169 -58q62 -57 62 -149q0 -103 -109 -175l-51 -35q-33 -26 -33 -61v-26h-139v42q0 87 79 142l55 39q44 33 44 74q0 32 -21 51t-58 19t-58 -21t-22 -56zM159 70q0 35 25 59t60 24q38 0 61.5 -23.5t23.5 -59.5q0 -37 -23.5 -60
t-61.5 -23q-36 0 -60.5 23.5t-24.5 59.5z" />
    <glyph glyph-name="at" unicode="@" horiz-adv-x="894" 
d="M40 263q0 176 116.5 294.5t293.5 118.5t291 -109.5t114 -265.5q0 -117 -45.5 -178t-129.5 -61q-90 0 -121 72h-6q-16 -32 -51 -52.5t-83 -20.5q-77 0 -128 53q-50 55 -50 142q0 90 48 145q50 57 124 56q71 0 104 -49h6v40h114v-232q0 -52 49 -52q63 0 63 136
q0 121 -85.5 197t-214.5 76t-213.5 -85.5t-84.5 -223.5q0 -142 86 -223.5t226 -81.5h180v-104h-180q-182 0 -302.5 116t-120.5 292zM441 167q38 0 61 24.5t23 67.5q0 41 -23 66.5t-61 24.5q-37 0 -60.5 -25.5t-23.5 -66.5t23.5 -66t60.5 -25z" />
    <glyph glyph-name="A" unicode="A" horiz-adv-x="707" 
d="M175 0h-162l238 700h202l241 -700h-168l-42 124h-268zM346 526l-87 -261h182l-86 261h-9z" />
    <glyph glyph-name="B" unicode="B" horiz-adv-x="615" 
d="M364 0h-295v700h274q101 0 159 -52t58 -134q0 -95 -79 -142v-6q45 -20 73.5 -62t28.5 -99q1 -92 -65 -150t-154 -55zM220 305v-172h102q43 0 68 23t25 65q0 40 -27 62t-68 22h-100zM220 571v-152h102q38 0 60.5 21.5t22.5 57.5q0 32 -22.5 52.5t-59.5 20.5h-103z" />
    <glyph glyph-name="C" unicode="C" horiz-adv-x="802" 
d="M40 350q-3 153 103 259t265 104q137 0 232.5 -77.5t115.5 -195.5h-172q-15 54 -63 87.5t-113 33.5q-90 0 -147 -60t-57 -151q0 -92 57 -152q57 -59 147 -59q64 0 112.5 32.5t69.5 85.5h173q-22 -117 -120 -194q-97 -76 -235 -76q-159 -2 -265 103.5t-103 259.5z" />
    <glyph glyph-name="D" unicode="D" horiz-adv-x="717" 
d="M318 0h-249v700h249q166 0 263 -95.5t97 -251.5q0 -164 -97 -258q-97 -95 -263 -95zM227 563v-426h84q86 0 144 52.5t58 163.5q0 106 -58.5 158t-143.5 52h-84z" />
    <glyph glyph-name="E" unicode="E" horiz-adv-x="562" 
d="M523 0h-454v700h443v-135h-285v-145h243v-135h-243v-149h296v-136z" />
    <glyph glyph-name="F" unicode="F" horiz-adv-x="552" 
d="M227 0h-158v700h443v-135h-285v-161h257v-135h-257v-269z" />
    <glyph glyph-name="G" unicode="G" horiz-adv-x="809" 
d="M409 713q135 0 227 -73q93 -72 120 -184h-175q-18 48 -64 76.5t-108 28.5q-92 0 -149 -60q-56 -61 -56 -151q0 -93 56 -155q57 -60 149 -60q71 0 122.5 33t61.5 84h-191v130h367q1 -7 1 -22q0 -167 -94 -267q-99 -106 -267 -106q-163 0 -266 103t-103 260
q0 156 103.5 259.5t265.5 103.5z" />
    <glyph glyph-name="H" unicode="H" horiz-adv-x="733" 
d="M227 0h-158v700h158v-271h279v271h159v-700h-159v277h-279v-277z" />
    <glyph glyph-name="I" unicode="I" horiz-adv-x="296" 
d="M227 0h-158v700h158v-700z" />
    <glyph glyph-name="J" unicode="J" horiz-adv-x="595" 
d="M30 225h150q0 -43 25.5 -68t71.5 -25q48 0 72.5 30t24.5 78v323h-222v137h381v-467q0 -113 -69 -179q-68 -66 -186 -66q-117 0 -182.5 64t-65.5 173z" />
    <glyph glyph-name="K" unicode="K" horiz-adv-x="663" 
d="M227 0h-158v700h158v-267h6l211 267h195l-233 -275l237 -425h-183l-163 297l-70 -83v-214z" />
    <glyph glyph-name="L" unicode="L" horiz-adv-x="537" 
d="M501 0h-432v700h158v-559h274v-141z" />
    <glyph glyph-name="M" unicode="M" horiz-adv-x="889" 
d="M221 0h-152v700h195l189 -475h6l166 475h196v-700h-153v396h-6l-146 -396h-127l-162 412h-6v-412z" />
    <glyph glyph-name="N" unicode="N" horiz-adv-x="740" 
d="M222 0h-153v700h175l268 -440h6v440h153v-700h-176l-267 440h-6v-440z" />
    <glyph glyph-name="O" unicode="O" horiz-adv-x="823" 
d="M40 350q0 155 106.5 259t265.5 104q160 0 266 -104.5t106 -258.5q2 -151 -107 -258.5t-265 -104.5q-161 0 -266.5 103.5t-105.5 259.5zM204 350q0 -92 58 -151q58 -60 150 -60q90 0 148 60q59 61 59 151q0 89 -59 150q-58 61 -148 61q-92 0 -150 -61q-58 -59 -58 -150z
" />
    <glyph glyph-name="P" unicode="P" horiz-adv-x="610" 
d="M227 0h-158v700h271q105 0 174 -66q70 -64 70 -168q0 -102 -71 -169t-173 -67h-113v-230zM227 565v-201h97q43 0 71 28.5t28 73.5t-27.5 72t-71.5 27h-97z" />
    <glyph glyph-name="Q" unicode="Q" horiz-adv-x="825" 
d="M40 350q0 155 106.5 259t265.5 104q160 0 266 -104.5t106 -258.5q0 -141 -90 -241l88 -109h-165l-25 31q-85 -44 -180 -44q-161 0 -266.5 103.5t-105.5 259.5zM201 350q0 -94 59 -156t152 -62q46 0 83 19l-142 175h166l73 -90q30 51 30 114q0 91 -59 153q-58 61 -151 61
q-94 0 -152 -61q-59 -62 -59 -153z" />
    <glyph glyph-name="R" unicode="R" horiz-adv-x="647" 
d="M227 0h-158v700h274q107 0 178 -65q70 -64 70 -166q0 -67 -34 -121.5t-90 -82.5l149 -265h-176l-119 234h-94v-234zM227 565v-196h102q46 0 73 26.5t27 73.5q0 44 -27.5 70t-74.5 26h-100z" />
    <glyph glyph-name="S" unicode="S" horiz-adv-x="608" 
d="M28 225v3h151q3 -44 36.5 -70t90.5 -26q49 0 77 18t28 51q0 30 -27 47.5t-67.5 24t-88 20t-88 32.5t-67.5 64.5t-27 113.5q0 92 67 150q68 60 185 60q114 0 184 -58q71 -57 76 -165h-158q-1 37 -28 59.5t-74 22.5q-44 0 -69 -17.5t-25 -47.5q0 -25 20.5 -40.5t53.5 -23
t72.5 -14.5t79 -20.5t72.5 -34.5t53.5 -62t20.5 -99q0 -100 -73 -163t-202 -63q-127 -1 -200 66q-73 64 -73 172z" />
    <glyph glyph-name="T" unicode="T" 
d="M222 563h-195v137h550v-137h-196v-563h-159v563z" />
    <glyph glyph-name="U" unicode="U" horiz-adv-x="694" 
d="M62 266v434h159v-433q0 -61 33 -96t93 -35q62 0 94 34.5t32 97.5v432h159v-433q0 -125 -79 -203q-79 -77 -206 -77t-207 77q-78 76 -78 202z" />
    <glyph glyph-name="V" unicode="V" horiz-adv-x="707" 
d="M271 0l-258 700h176l161 -486h8l162 486h174l-260 -700h-163z" />
    <glyph glyph-name="W" unicode="W" horiz-adv-x="996" 
d="M195 0l-182 700h173l102 -455h8l104 455h195l105 -455h8l102 455h173l-182 -700h-187l-112 473h-8l-113 -473h-186z" />
    <glyph glyph-name="X" unicode="X" horiz-adv-x="662" 
d="M191 0h-181l214 359l-203 341h178l123 -214h6l123 214h179l-205 -341l215 -359h-182l-130 235h-6z" />
    <glyph glyph-name="Y" unicode="Y" horiz-adv-x="668" 
d="M256 271l-243 429h173l143 -269h9l142 269h175l-240 -428v-272h-159v271z" />
    <glyph glyph-name="Z" unicode="Z" horiz-adv-x="625" 
d="M582 0h-539v138l334 419v8h-322v135h525v-137l-336 -419v-8h338v-136z" />
    <glyph glyph-name="bracketleft" unicode="[" horiz-adv-x="422" 
d="M323 -149h-256v912h256v-123h-108v-665h108v-124z" />
    <glyph glyph-name="backslash" unicode="\" horiz-adv-x="523" 
d="M340 -108l-306 858h150l305 -858h-149z" />
    <glyph glyph-name="bracketright" unicode="]" horiz-adv-x="422" 
d="M75 -149v124h108v665h-108v123h256v-912h-256z" />
    <glyph glyph-name="asciicircum" unicode="^" horiz-adv-x="594" 
d="M181 298h-130l181 402h130l181 -402h-130l-113 263h-6z" />
    <glyph glyph-name="underscore" unicode="_" horiz-adv-x="653" 
d="M55 -154v125h543v-125h-543z" />
    <glyph glyph-name="grave" unicode="`" horiz-adv-x="283" 
d="M136 603l-93 152h149l48 -152h-104z" />
    <glyph glyph-name="a" unicode="a" horiz-adv-x="636" 
d="M36 261q0 125 66 202q68 78 174 78q51 0 90 -21t59 -52h8v60h155v-528h-154v60h-8q-47 -73 -146 -73q-110 0 -177 75q-67 74 -67 199zM193 264q0 -61 33.5 -99t88.5 -38q54 0 87.5 38.5t33.5 98.5q0 62 -34 99.5t-88 37.5t-87.5 -38t-33.5 -99z" />
    <glyph glyph-name="b" unicode="b" horiz-adv-x="653" 
d="M219 0h-153v750h155v-282h8q20 31 58.5 52t90.5 21q106 0 172 -78q67 -76 67 -202q0 -123 -68 -199q-68 -75 -175 -75q-100 0 -147 73h-8v-60zM218 264q0 -60 33.5 -98.5t87.5 -38.5t87.5 38t33.5 99t-33.5 99t-87.5 38t-87.5 -37t-33.5 -100z" />
    <glyph glyph-name="c" unicode="c" horiz-adv-x="619" 
d="M36 264q-2 117 76.5 197.5t202.5 79.5q109 0 182 -61q75 -61 85 -157h-157q-11 36 -40.5 57t-68.5 21q-56 0 -89.5 -38.5t-33.5 -98.5t34 -98.5t90 -38.5q38 0 67 20t39 52h158q-14 -96 -85 -154t-180 -58q-123 -1 -202.5 80t-77.5 197z" />
    <glyph glyph-name="d" unicode="d" horiz-adv-x="636" 
d="M36 261q0 125 66 202q68 78 174 78q51 0 90 -21t59 -52h8v282h155v-750h-154v60h-8q-47 -73 -146 -73q-110 0 -177 75q-67 74 -67 199zM193 264q0 -61 33.5 -99t88.5 -38q54 0 87.5 38.5t33.5 98.5q0 62 -34 99.5t-88 37.5t-87.5 -38t-33.5 -99z" />
    <glyph glyph-name="e" unicode="e" horiz-adv-x="608" 
d="M36 261q0 124 75 202q77 78 196 78q125 0 195 -79.5t70 -195.5v-45h-389q4 -51 38.5 -83t88.5 -32q43 0 74 17.5t43 45.5h140q-18 -84 -88 -133t-175 -49q-112 -2 -191 78t-77 196zM186 324h242q-4 43 -37.5 71t-83.5 28q-47 0 -81.5 -28.5t-39.5 -70.5z" />
    <glyph glyph-name="f" unicode="f" horiz-adv-x="440" 
d="M113 407h-86v121h90v34q0 86 55 137q56 51 147 51h76v-128h-58q-35 0 -53 -18t-18 -49v-27h133v-121h-131v-407h-155v407z" />
    <glyph glyph-name="g" unicode="g" horiz-adv-x="643" 
d="M36 267q0 126 67 199q67 75 171 75q53 0 92 -21.5t59 -51.5h8v60h155v-522q0 -110 -70 -179.5t-206 -69.5q-116 0 -181.5 56.5t-69.5 138.5h142q5 -33 33 -51.5t76 -18.5q122 0 122 124v61h-8q-54 -73 -148 -73q-105 0 -173.5 74.5t-68.5 198.5zM193 267
q0 -60 33.5 -96.5t88.5 -36.5t88 37t33 96q0 62 -33.5 98t-88.5 36q-54 0 -87.5 -36.5t-33.5 -97.5z" />
    <glyph glyph-name="h" unicode="h" 
d="M221 0h-155v750h154v-280h8q43 71 139 71q86 0 137 -52t51 -137v-352h-155v304q0 42 -24 67.5t-63 25.5q-40 0 -66 -28.5t-26 -70.5v-298z" />
    <glyph glyph-name="i" unicode="i" horiz-adv-x="269" 
d="M77 610q-25 22 -25 61t25 61q26 23 66 23t66 -23q25 -22 25 -62q0 -39 -25 -61t-66 -22q-40 0 -66 23zM221 0h-155v528h155v-528z" />
    <glyph glyph-name="j" unicode="j" horiz-adv-x="320" 
d="M2 -230v137h36q34 0 53.5 19t19.5 53v549h155v-550q0 -95 -54 -151.5t-144 -56.5h-66zM189 755q41 0 66.5 -23t25.5 -62q0 -38 -25 -60.5t-67 -22.5q-41 0 -66 22.5t-25 60.5q0 39 25 62t66 23z" />
    <glyph glyph-name="k" unicode="k" horiz-adv-x="594" 
d="M221 0h-155v750h155v-402h6l150 180h191l-170 -190l183 -338h-174l-116 219l-70 -78v-141z" />
    <glyph glyph-name="l" unicode="l" horiz-adv-x="323" 
d="M66 166v584h155v-566q0 -48 44 -48h19v-136h-53q-78 0 -121.5 44t-43.5 122z" />
    <glyph glyph-name="m" unicode="m" horiz-adv-x="912" 
d="M221 0h-155v528h146v-57h8q44 70 138 70q102 0 153 -72h7q56 72 153 72q87 0 139 -52q53 -53 53 -134v-355h-155v301q0 45 -20.5 70.5t-59.5 25.5q-38 0 -61.5 -28t-23.5 -73v-296h-155v305q0 42 -21.5 67t-60.5 25q-37 0 -61 -28.5t-24 -71.5v-297z" />
    <glyph glyph-name="n" unicode="n" horiz-adv-x="600" 
d="M221 0h-155v528h146v-58h8q18 31 55.5 51t86.5 20q86 0 137 -53q52 -52 52 -136v-352h-155v304q0 42 -23 67.5t-62 25.5t-64.5 -29t-25.5 -72v-296z" />
    <glyph glyph-name="o" unicode="o" horiz-adv-x="641" 
d="M36 264q0 119 79.5 198t205.5 79q124 0 204 -80t80 -197q0 -118 -80 -197.5t-205 -79.5q-124 0 -204 80t-80 197zM193 264q0 -60 36 -98.5t91 -38.5t91.5 38.5t36.5 98.5t-36.5 98.5t-91.5 38.5t-91 -38.5t-36 -98.5z" />
    <glyph glyph-name="p" unicode="p" horiz-adv-x="653" 
d="M221 -230h-155v758h153v-59h8q16 26 52.5 49t94.5 23q107 0 175 -75q68 -76 68 -199q0 -125 -67 -202q-66 -78 -172 -78q-58 1 -97 23.5t-52 49.5h-8v-290zM218 264q0 -62 33.5 -99.5t87.5 -37.5t87.5 38t33.5 99q0 62 -33.5 99.5t-87.5 37.5t-87.5 -38.5t-33.5 -98.5z
" />
    <glyph glyph-name="q" unicode="q" horiz-adv-x="643" 
d="M36 267q0 125 67 199q67 75 177 75q57 0 93.5 -23t52.5 -49h8v59h154v-758h-155v290h-8q-21 -31 -59.5 -52t-89.5 -21q-106 0 -174 78q-66 78 -66 202zM193 264q0 -61 33.5 -99t87.5 -38t88 37.5t34 99.5q0 60 -33.5 98.5t-87.5 38.5q-55 0 -88.5 -37.5t-33.5 -99.5z" />
    <glyph glyph-name="r" unicode="r" horiz-adv-x="443" 
d="M221 0h-155v528h146v-80h8q17 36 53 60t83 24h51v-146h-61q-57 0 -91 -39t-34 -107v-240z" />
    <glyph glyph-name="s" unicode="s" horiz-adv-x="531" 
d="M36 162h141q6 -56 86 -56q81 0 81 49q0 19 -16.5 30t-42.5 15.5t-58 8.5t-64 13t-58 24.5t-42.5 48t-16.5 78.5q0 71 58 119q58 49 159 49q95 0 153.5 -44t63.5 -124h-134q-8 54 -83 54q-35 0 -56 -13t-21 -34q0 -20 23 -30t57 -12.5t74 -11t74 -22.5t57 -50t23 -91
q0 -80 -61.5 -128t-170.5 -48t-166 46t-60 129z" />
    <glyph glyph-name="t" unicode="t" horiz-adv-x="444" 
d="M122 407h-85v120h50q20 0 31.5 13t11.5 34v97h147v-143h138v-121h-138v-216q0 -63 68 -63h68v-128h-107q-87 0 -135.5 48t-48.5 135v224z" />
    <glyph glyph-name="u" unicode="u" 
d="M63 176v352h155v-304q0 -42 23 -67.5t62 -25.5t64.5 29t25.5 72v296h155v-528h-147v58h-8q-18 -31 -55.5 -51t-85.5 -20q-86 0 -138 52q-51 53 -51 137z" />
    <glyph glyph-name="v" unicode="v" horiz-adv-x="584" 
d="M203 0l-187 528h161l110 -344h8l110 344h163l-186 -528h-179z" />
    <glyph glyph-name="w" unicode="w" horiz-adv-x="875" 
d="M163 0l-140 528h161l70 -339h8l100 339h151l100 -339h8l70 339h161l-140 -528h-170l-101 322h-6l-102 -322h-170z" />
    <glyph glyph-name="x" unicode="x" horiz-adv-x="576" 
d="M183 0h-168l177 274l-163 254h167l89 -150h6l89 150h167l-163 -255l177 -273h-169l-101 161h-7z" />
    <glyph glyph-name="y" unicode="y" horiz-adv-x="592" 
d="M225 -10l-209 538h162l116 -335h8l110 335h164l-224 -604q-56 -154 -207 -154h-70v137h61q56 0 80 58z" />
    <glyph glyph-name="z" unicode="z" horiz-adv-x="526" 
d="M480 0h-434v137l228 255v8h-220v128h421v-128l-228 -260v-8h233v-132z" />
    <glyph glyph-name="braceleft" unicode="{" horiz-adv-x="499" 
d="M100 248h-33v119h33q20 0 32 12.5t12 31.5v190q0 79 48.5 120.5t132.5 41.5h75v-124h-49q-59 0 -59 -60v-190q0 -67 -51 -78v-8q51 -11 51 -78v-189q0 -32 14 -46.5t45 -14.5h49v-124h-75q-84 0 -132.5 42t-48.5 121v190q0 20 -12 32t-32 12z" />
    <glyph glyph-name="bar" unicode="|" horiz-adv-x="333" 
d="M241 -206h-149v989h149v-989z" />
    <glyph glyph-name="braceright" unicode="}" horiz-adv-x="499" 
d="M99 -149v124h49q31 0 45 14.5t14 46.5v189q0 67 50 78v8q-50 11 -50 78v190q0 60 -59 60h-49v124h75q83 0 132 -41.5t49 -120.5v-190q0 -19 11.5 -31.5t31.5 -12.5h33v-119h-33q-20 0 -31.5 -12t-11.5 -32v-190q0 -79 -49 -121t-132 -42h-75z" />
    <glyph glyph-name="asciitilde" unicode="~" horiz-adv-x="531" 
d="M133 218h-101q0 81 34 125.5t101 44.5q36 0 96 -26t83 -26q24 0 38 14.5t15 36.5h101q0 -82 -34 -126.5t-101 -44.5q-37 0 -95.5 28.5t-83.5 28.5q-24 0 -38 -15.5t-15 -39.5z" />
    <glyph glyph-name="uni00A0" unicode="&#xa0;" horiz-adv-x="258" 
 />
    <glyph glyph-name="exclamdown" unicode="&#xa1;" horiz-adv-x="300" 
d="M65 477q0 36 24.5 59.5t60.5 23.5q37 0 61 -23t24 -60q0 -36 -24 -59.5t-61 -23.5q-35 0 -60 24t-25 59zM72 -153v262l34 229h90l34 -229v-262h-158z" />
    <glyph glyph-name="cent" unicode="&#xa2;" horiz-adv-x="619" 
d="M36 348q0 104 60 179q61 76 160 92v84h121v-84q85 -16 140 -73t65 -139h-157q-11 36 -40.5 57t-68.5 21q-56 0 -89.5 -38.5t-33.5 -98.5t34 -98.5t90 -38.5q38 0 67 20t39 51h158q-11 -80 -65.5 -135t-138.5 -71v-76h-121v76q-100 19 -160 94t-60 178z" />
    <glyph glyph-name="sterling" unicode="&#xa3;" horiz-adv-x="653" 
d="M592 0h-536v151h61v126h-51v128h51v81q-1 101 70.5 165t168.5 62q106 0 170 -64q65 -65 66 -161h-156q0 34 -22.5 55t-57.5 21q-37 0 -59.5 -23.5t-22.5 -64.5v-71h167v-128h-167v-126h318v-151z" />
    <glyph glyph-name="yen" unicode="&#xa5;" horiz-adv-x="668" 
d="M201 368l-188 332h173l143 -269h9l142 269h175l-186 -332h97v-105h-151v-55h151v-104h-151v-104h-159v104h-153v104h153v55h-153v105h98z" />
    <glyph glyph-name="section" unicode="&#xa7;" horiz-adv-x="535" 
d="M37 275q0 40 21.5 74.5t57.5 55.5v8q-60 59 -60 140q0 83 61 131q61 49 157 49q91 0 153.5 -49t62.5 -144h-146q0 27 -18 45t-52 18q-30 0 -48 -15.5t-18 -40.5q0 -38 50 -67l133 -76q106 -60 106 -160q0 -41 -21 -75.5t-58 -55.5v-8q61 -58 61 -139q0 -83 -62 -131
q-61 -49 -156 -49q-91 0 -153.5 49t-62.5 144h145q1 -28 19 -45.5t52 -17.5q29 0 47 15.5t18 39.5q0 39 -49 67l-143 83q-97 55 -97 154zM180 282q0 -34 36 -54l83 -46q23 0 39 15t16 38q0 37 -44 61l-75 40q-23 0 -39 -15.5t-16 -38.5z" />
    <glyph glyph-name="dieresis" unicode="&#xa8;" horiz-adv-x="413" 
d="M34 677q0 31 21 52.5t52 21.5q32 0 53 -21.5t21 -52.5q0 -33 -20.5 -53.5t-53.5 -20.5q-31 0 -52 21t-21 53zM306 751q31 0 52 -21.5t21 -52.5q0 -32 -21 -53t-52 -21q-33 0 -53.5 20.5t-20.5 52.5q0 33 20.5 54t53.5 21z" />
    <glyph glyph-name="copyright" unicode="&#xa9;" horiz-adv-x="824" 
d="M40 348q0 154 106 259.5t263 105.5q163 0 269 -104.5t106 -260.5q0 -155 -105.5 -258.5t-267.5 -103.5q-156 -3 -265 104t-106 258zM135 348q0 -120 78 -196q77 -76 198 -76q124 0 200 76q78 76 78 197q0 119 -78 196q-79 77 -202 77q-117 0 -195.5 -78.5t-78.5 -195.5z
M218 348q0 83 55 138t140 55q72 0 122 -40.5t61 -105.5h-97q-7 26 -30 42t-56 16q-45 0 -73 -29.5t-28 -75.5t28.5 -75.5t73.5 -29.5q69 0 90 57h96q-12 -65 -63 -105t-124 -40q-86 0 -141 55q-54 56 -54 138z" />
    <glyph glyph-name="ordfeminine" unicode="&#xaa;" horiz-adv-x="527" 
d="M50 503q0 94 49 152t130 58q74 0 111 -55h6v45h118v-396h-117v45h-7q-32 -54 -108 -54q-82 0 -132 56t-50 149zM168 505q0 -44 25.5 -71.5t65.5 -27.5q39 0 64 28t25 71q0 45 -25.5 72t-64.5 27q-40 0 -65 -27.5t-25 -71.5z" />
    <glyph glyph-name="guillemotleft" unicode="&#xab;" horiz-adv-x="567" 
d="M277 87l-212 171v68l212 171v-134l-86 -68v-6l86 -68v-134zM502 87l-212 171v68l212 171v-134l-86 -68v-6l86 -68v-134z" />
    <glyph glyph-name="uni00AD" unicode="&#xad;" horiz-adv-x="384" 
d="M335 240h-286v131h286v-131z" />
    <glyph glyph-name="registered" unicode="&#xae;" horiz-adv-x="543" 
d="M43 531q0 96 62 161q63 65 164 65q105 0 168 -64t63 -161q0 -95 -63 -161q-63 -65 -166 -65q-102 0 -165 64t-63 161zM111 531q0 -71 44 -116t116 -45q74 0 117 44.5t43 117.5q0 72 -43.5 116t-118.5 44q-72 0 -115 -44.5t-43 -116.5zM250 419h-62v224h103q35 0 57 -22.5
t22 -53.5q0 -24 -10.5 -42.5t-25.5 -24.5l41 -81h-68l-29 70h-28v-70zM250 590v-48h30q22 0 22 24t-22 24h-30z" />
    <glyph glyph-name="overscore" unicode="&#xaf;" horiz-adv-x="366" 
d="M323 620h-280v109h280v-109z" />
    <glyph glyph-name="degree" unicode="&#xb0;" horiz-adv-x="405" 
d="M203 713q67 0 107 -43q42 -42 42 -104t-42 -106q-40 -42 -107 -42t-109 42q-41 43 -41 104q0 62 42 106q42 43 108 43zM147 565q0 -25 15 -41t41 -16q24 0 39.5 16.5t15.5 41.5t-15 41t-40 16t-40.5 -16.5t-15.5 -41.5z" />
    <glyph glyph-name="uni00B2" unicode="&#xb2;" horiz-adv-x="374" 
d="M136 575h-90q0 56 38 94.5t99 38.5q64 0 103.5 -36.5t39.5 -91.5q0 -76 -75 -116l-83 -45q-23 -14 -23 -34v-5h182v-86h-280v83q0 41 17.5 67t59.5 49l74 41q30 20 30 46q0 16 -12.5 27t-33.5 11q-20 0 -33 -12.5t-13 -30.5z" />
    <glyph glyph-name="uni00B3" unicode="&#xb3;" horiz-adv-x="376" 
d="M46 419h90q5 -43 47 -43q21 0 35 13t14 32q0 18 -13.5 30.5t-36.5 12.5h-59v75l79 70v4h-146v87h265v-83l-84 -74v-5q40 -7 66.5 -40.5t26.5 -76.5q0 -59 -40.5 -97t-105.5 -38q-62 0 -100 38.5t-38 94.5z" />
    <glyph glyph-name="acute" unicode="&#xb4;" horiz-adv-x="283" 
d="M148 603h-105l49 152h148z" />
    <glyph glyph-name="paragraph" unicode="&#xb6;" horiz-adv-x="609" 
d="M58 469q0 96 66.5 163.5t163.5 67.5h262v-745h-104v634h-50v-634h-104v282q-99 0 -166.5 69.5t-67.5 162.5z" />
    <glyph glyph-name="middot" unicode="&#xb7;" horiz-adv-x="274" 
d="M52 315q0 35 25 59t60 24q37 0 61 -23.5t24 -59.5q0 -37 -24 -60.5t-61 -23.5q-36 0 -60.5 24t-24.5 60z" />
    <glyph glyph-name="cedilla" unicode="&#xb8;" horiz-adv-x="262" 
d="M32 -127h74q2 -19 24 -19q26 0 26 27q0 26 -26 26q-15 0 -21 -13l-72 1l22 125h70l-18 -67h6q10 9 32 9q36 0 59 -23t23 -59q0 -38 -28 -61.5t-73 -23.5q-42 0 -69.5 21.5t-28.5 56.5z" />
    <glyph glyph-name="uni00B9" unicode="&#xb9;" horiz-adv-x="287" 
d="M143 565h-97v71q59 0 82 14.5t23 49.5h90v-406h-98v271z" />
    <glyph glyph-name="ordmasculine" unicode="&#xba;" horiz-adv-x="525" 
d="M50 505q0 89 59 148q58 60 154 60q95 0 153 -60q60 -59 60 -148t-60 -148q-59 -59 -153 -59q-93 0 -154 59q-59 59 -59 148zM263 406q41 0 67.5 28t26.5 71t-26.5 71t-67.5 28t-68 -28t-27 -71t27 -71t68 -28z" />
    <glyph glyph-name="guillemotright" unicode="&#xbb;" horiz-adv-x="570" 
d="M277 258l-212 -171v134l86 68v6l-86 68v134l212 -171v-68zM502 258l-212 -171v134l86 68v6l-86 68v134l212 -171v-68z" />
    <glyph glyph-name="onequarter" unicode="&#xbc;" horiz-adv-x="867" 
d="M143 565h-97v71q59 0 82 14.5t23 49.5h90v-406h-98v271zM280 -41h-119l392 782h120zM683 66h-181v81l100 259h98l-94 -250v-3h77v87h97v-87h41v-87h-41v-66h-97v66z" />
    <glyph glyph-name="onehalf" unicode="&#xbd;" horiz-adv-x="881" 
d="M143 565h-97v71q59 0 82 14.5t23 49.5h90v-406h-98v271zM280 -41h-119l392 782h120zM643 281h-90q0 56 37.5 94.5t99.5 38.5q64 0 103.5 -37t39.5 -91q0 -76 -75 -116l-83 -46q-23 -12 -23 -33v-5h182v-87h-280v83q0 42 17 68t60 49l74 41q30 18 30 46q0 16 -13 27
t-34 11q-20 0 -32.5 -12.5t-12.5 -30.5z" />
    <glyph glyph-name="threequarters" unicode="&#xbe;" horiz-adv-x="898" 
d="M46 419h90q5 -43 47 -43q21 0 35 13t14 32q0 18 -13.5 30.5t-36.5 12.5h-59v75l79 70v4h-146v87h265v-83l-84 -74v-5q40 -7 66.5 -40.5t26.5 -76.5q0 -59 -40.5 -97t-105.5 -38q-62 0 -100 38.5t-38 94.5zM322 -41h-120l392 782h120zM714 66h-181v81l100 259h99l-95 -250
v-3h77v87h97v-87h41v-87h-41v-66h-97v66z" />
    <glyph glyph-name="questiondown" unicode="&#xbf;" horiz-adv-x="559" 
d="M53 41q0 103 109 175l50 35q34 24 34 61v26h138v-42q0 -89 -78 -142l-55 -39q-45 -36 -45 -74q0 -31 21.5 -50.5t57.5 -19.5q38 0 59 21.5t21 55.5h142q0 -92 -59.5 -153t-163.5 -61q-109 0 -170 58q-61 57 -61 149zM230 477q0 37 23.5 60t61.5 23q36 0 60.5 -23.5
t24.5 -59.5q0 -35 -25 -59t-60 -24q-37 0 -61 23.5t-24 59.5z" />
    <glyph glyph-name="Agrave" unicode="&#xc0;" horiz-adv-x="707" 
d="M175 0h-162l238 700h202l241 -700h-168l-42 124h-268zM315 780l-93 152h149l48 -152h-104zM346 526l-87 -261h182l-86 261h-9z" />
    <glyph glyph-name="Aacute" unicode="&#xc1;" horiz-adv-x="707" 
d="M175 0h-162l238 700h202l241 -700h-168l-42 124h-268zM346 526l-87 -261h182l-86 261h-9zM397 780h-105l49 152h148z" />
    <glyph glyph-name="Acircumflex" unicode="&#xc2;" horiz-adv-x="707" 
d="M175 0h-162l238 700h202l241 -700h-168l-42 124h-268zM289 780h-104l105 151h130l105 -151h-103l-63 52h-8zM346 526l-87 -261h182l-86 261h-9z" />
    <glyph glyph-name="Atilde" unicode="&#xc3;" horiz-adv-x="707" 
d="M175 0h-162l238 700h202l241 -700h-168l-42 124h-268zM263 776h-93q0 71 31 108.5t83 37.5q29 0 68.5 -21t49.5 -21q32 0 35 42h93q0 -70 -31 -108.5t-82 -38.5q-26 0 -66 21t-53 21q-32 0 -35 -41zM346 526l-87 -261h182l-86 261h-9z" />
    <glyph glyph-name="Adieresis" unicode="&#xc4;" horiz-adv-x="707" 
d="M175 0h-162l238 700h202l241 -700h-168l-42 124h-268zM180 854q0 31 21 52.5t52 21.5q32 0 53 -21.5t21 -52.5q0 -33 -20.5 -53.5t-53.5 -20.5q-31 0 -52 21t-21 53zM346 526l-87 -261h182l-86 261h-9zM452 928q31 0 52 -21.5t21 -52.5q0 -32 -21 -53t-52 -21
q-33 0 -53.5 20.5t-20.5 53.5t20.5 53.5t53.5 20.5z" />
    <glyph glyph-name="Aring" unicode="&#xc5;" horiz-adv-x="707" 
d="M175 0h-162l238 700h202l241 -700h-168l-42 124h-268zM249 846q0 44 29.5 72t75.5 28q47 0 76.5 -28t29.5 -71t-30 -72t-75 -29q-46 0 -76 28.5t-30 71.5zM346 526l-87 -261h182l-86 261h-9zM355 811q16 0 25.5 10t9.5 26q0 15 -10 25t-26 10q-21 2 -30 -17t0 -37.5
t31 -16.5z" />
    <glyph glyph-name="AE" unicode="&#xc6;" horiz-adv-x="929" 
d="M176 0h-163l340 700h527v-135h-286v-145h240v-135h-240v-149h296v-136h-454v124h-201zM427 532l-127 -267h136v267h-9z" />
    <glyph glyph-name="Ccedilla" unicode="&#xc7;" horiz-adv-x="802" 
d="M40 350q-3 153 103 259t265 104q137 0 232.5 -77.5t115.5 -195.5h-172q-15 54 -63 87.5t-113 33.5q-90 0 -147 -60t-57 -151q0 -92 57 -152q57 -59 147 -59q64 0 112.5 32.5t69.5 85.5h173q-22 -117 -120 -194q-95 -76 -234 -76l-9 -34h6q10 9 32 9q36 0 59 -23t23 -59
q0 -38 -27.5 -61.5t-72.5 -23.5q-43 0 -71 21.5t-28 56.5h74q1 -7 8 -13t16 -6q26 0 26 27q0 26 -25 26q-16 0 -22 -13l-72 1l17 97q-137 20 -220 119q-83 100 -83 239z" />
    <glyph glyph-name="Egrave" unicode="&#xc8;" horiz-adv-x="562" 
d="M523 0h-454v700h443v-135h-285v-145h243v-135h-243v-149h296v-136zM261 780l-93 152h149l48 -152h-104z" />
    <glyph glyph-name="Eacute" unicode="&#xc9;" horiz-adv-x="562" 
d="M523 0h-454v700h443v-135h-285v-145h243v-135h-243v-149h296v-136zM344 780h-105l49 152h148z" />
    <glyph glyph-name="Ecircumflex" unicode="&#xca;" horiz-adv-x="562" 
d="M523 0h-454v700h443v-135h-285v-145h243v-135h-243v-149h296v-136zM236 780h-104l105 151h130l105 -151h-103l-63 52h-8z" />
    <glyph glyph-name="Edieresis" unicode="&#xcb;" horiz-adv-x="562" 
d="M523 0h-454v700h443v-135h-285v-145h243v-135h-243v-149h296v-136zM127 854q0 31 21 52.5t52 21.5q33 0 53.5 -21t20.5 -53q0 -33 -20.5 -53.5t-53.5 -20.5q-31 0 -52 21t-21 53zM399 928q31 0 52 -21.5t21 -52.5q0 -32 -21 -53t-52 -21q-33 0 -53.5 20.5t-20.5 53.5
t20.5 53.5t53.5 20.5z" />
    <glyph glyph-name="Igrave" unicode="&#xcc;" horiz-adv-x="296" 
d="M106 780l-93 152h149l48 -152h-104zM227 0h-158v700h158v-700z" />
    <glyph glyph-name="Iacute" unicode="&#xcd;" horiz-adv-x="296" 
d="M227 0h-158v700h158v-700zM188 780h-105l49 152h148z" />
    <glyph glyph-name="Icircumflex" unicode="&#xce;" horiz-adv-x="296" 
d="M80 780h-104l105 151h130l105 -151h-103l-63 52h-8zM227 0h-158v700h158v-700z" />
    <glyph glyph-name="Idieresis" unicode="&#xcf;" horiz-adv-x="296" 
d="M-28 854q0 31 21 52.5t52 21.5q32 0 53 -21.5t21 -52.5q0 -33 -20.5 -53.5t-53.5 -20.5q-31 0 -52 21t-21 53zM227 0h-158v700h158v-700zM244 928q31 0 52 -21.5t21 -52.5q0 -32 -21 -53t-52 -21q-33 0 -53.5 20.5t-20.5 53.5t20.5 53.5t53.5 20.5z" />
    <glyph glyph-name="Eth" unicode="&#xd0;" horiz-adv-x="729" 
d="M86 292h-63v112h63v296h245q166 0 262 -96t96 -251q0 -164 -95 -259q-94 -94 -263 -94h-245v292zM245 292v-155h79q86 0 143.5 52.5t57.5 163.5q0 106 -58 158t-143 52h-79v-159h122v-112h-122z" />
    <glyph glyph-name="Ntilde" unicode="&#xd1;" horiz-adv-x="740" 
d="M222 0h-153v700h175l268 -440h6v440h153v-700h-176l-267 440h-6v-440zM286 776h-93q0 71 31 108.5t83 37.5q29 0 68.5 -21t49.5 -21q32 0 35 42h93q0 -70 -31 -108.5t-82 -38.5q-26 0 -66 21t-53 21q-32 0 -35 -41z" />
    <glyph glyph-name="Ograve" unicode="&#xd2;" horiz-adv-x="823" 
d="M40 350q0 155 106.5 259t265.5 104q160 0 266 -104.5t106 -258.5q2 -151 -107 -258.5t-265 -104.5q-161 0 -266.5 103.5t-105.5 259.5zM204 350q0 -92 58 -151q58 -60 150 -60q90 0 148 60q59 61 59 151q0 89 -59 150q-58 61 -148 61q-92 0 -150 -61q-58 -59 -58 -150z
M372 780l-93 152h149l48 -152h-104z" />
    <glyph glyph-name="Oacute" unicode="&#xd3;" horiz-adv-x="823" 
d="M40 350q0 155 106.5 259t265.5 104q160 0 266 -104.5t106 -258.5q2 -151 -107 -258.5t-265 -104.5q-161 0 -266.5 103.5t-105.5 259.5zM204 350q0 -92 58 -151q58 -60 150 -60q90 0 148 60q59 61 59 151q0 89 -59 150q-58 61 -148 61q-92 0 -150 -61q-58 -59 -58 -150z
M454 780h-105l49 152h148z" />
    <glyph glyph-name="Ocircumflex" unicode="&#xd4;" horiz-adv-x="823" 
d="M40 350q0 155 106.5 259t265.5 104q160 0 266 -104.5t106 -258.5q2 -151 -107 -258.5t-265 -104.5q-161 0 -266.5 103.5t-105.5 259.5zM204 350q0 -92 58 -151q58 -60 150 -60q90 0 148 60q59 61 59 151q0 89 -59 150q-58 61 -148 61q-92 0 -150 -61q-58 -59 -58 -150z
M346 780h-104l105 151h130l105 -151h-103l-63 52h-8z" />
    <glyph glyph-name="Otilde" unicode="&#xd5;" horiz-adv-x="823" 
d="M40 350q0 155 106.5 259t265.5 104q160 0 266 -104.5t106 -258.5q2 -151 -107 -258.5t-265 -104.5q-161 0 -266.5 103.5t-105.5 259.5zM204 350q0 -92 58 -151q58 -60 150 -60q90 0 148 60q59 61 59 151q0 89 -59 150q-58 61 -148 61q-92 0 -150 -61q-58 -59 -58 -150z
M320 776h-93q0 71 31 108.5t83 37.5q29 0 69 -21t49 -21q32 0 35 42h93q0 -70 -31 -108.5t-82 -38.5q-27 0 -66.5 21t-52.5 21q-32 0 -35 -41z" />
    <glyph glyph-name="Odieresis" unicode="&#xd6;" horiz-adv-x="823" 
d="M40 350q0 155 106.5 259t265.5 104q160 0 266 -104.5t106 -258.5q2 -151 -107 -258.5t-265 -104.5q-161 0 -266.5 103.5t-105.5 259.5zM204 350q0 -92 58 -151q58 -60 150 -60q90 0 148 60q59 61 59 151q0 89 -59 150q-58 61 -148 61q-92 0 -150 -61q-58 -59 -58 -150z
M237 854q0 31 21 52.5t52 21.5q33 0 53.5 -21t20.5 -53q0 -33 -20.5 -53.5t-53.5 -20.5q-31 0 -52 21t-21 53zM509 928q31 0 52 -21.5t21 -52.5q0 -32 -21 -53t-52 -21q-33 0 -53.5 20.5t-20.5 53.5t20.5 53.5t53.5 20.5z" />
    <glyph glyph-name="multiply" unicode="&#xd7;" horiz-adv-x="489" 
d="M93 58l-88 87l154 164l-154 164l88 88l152 -161l150 161l88 -88l-154 -164l155 -164l-89 -87l-151 161z" />
    <glyph glyph-name="Oslash" unicode="&#xd8;" horiz-adv-x="816" 
d="M40 350q0 156 106.5 259.5t265.5 103.5q84 0 155 -31l37 57h131l-75 -114q59 -50 91.5 -121.5t32.5 -153.5q2 -151 -107 -258.5t-265 -104.5q-82 0 -155 30l-45 -67h-131l82 124q-123 106 -123 276zM204 350q0 -83 49 -141l226 342q-36 10 -67 10q-92 0 -150 -61
q-58 -59 -58 -150zM570 490l-226 -341q33 -10 68 -10q90 0 148 60q59 61 59 151q0 82 -49 140z" />
    <glyph glyph-name="Ugrave" unicode="&#xd9;" horiz-adv-x="694" 
d="M62 266v434h159v-433q0 -61 33 -96t93 -35q62 0 94 34.5t32 97.5v432h159v-433q0 -125 -79 -203q-79 -77 -206 -77t-207 77q-78 76 -78 202zM301 780l-93 152h149l48 -152h-104z" />
    <glyph glyph-name="Uacute" unicode="&#xda;" horiz-adv-x="694" 
d="M62 266v434h159v-433q0 -61 33 -96t93 -35q62 0 94 34.5t32 97.5v432h159v-433q0 -125 -79 -203q-79 -77 -206 -77t-207 77q-78 76 -78 202zM383 780h-105l49 152h148z" />
    <glyph glyph-name="Ucircumflex" unicode="&#xdb;" horiz-adv-x="694" 
d="M62 266v434h159v-433q0 -61 33 -96t93 -35q62 0 94 34.5t32 97.5v432h159v-433q0 -125 -79 -203q-79 -77 -206 -77t-207 77q-78 76 -78 202zM275 780h-104l105 151h130l105 -151h-103l-63 52h-8z" />
    <glyph glyph-name="Udieresis" unicode="&#xdc;" horiz-adv-x="694" 
d="M62 266v434h159v-433q0 -61 33 -96t93 -35q62 0 94 34.5t32 97.5v432h159v-433q0 -125 -79 -203q-79 -77 -206 -77t-207 77q-78 76 -78 202zM166 854q0 31 21 52.5t52 21.5q32 0 53 -21.5t21 -52.5q0 -33 -20.5 -53.5t-53.5 -20.5q-31 0 -52 21t-21 53zM438 928
q31 0 52 -21.5t21 -52.5q0 -32 -21 -53t-52 -21q-33 0 -53.5 20.5t-20.5 53.5t20.5 53.5t53.5 20.5z" />
    <glyph glyph-name="Yacute" unicode="&#xdd;" horiz-adv-x="668" 
d="M256 271l-243 429h173l143 -269h9l142 269h175l-240 -428v-272h-159v271zM379 780h-105l49 152h148z" />
    <glyph glyph-name="Thorn" unicode="&#xde;" 
d="M227 0h-158v700h158v-103h107q105 0 174 -66q70 -64 70 -168q0 -102 -71 -169t-173 -67h-107v-127zM227 462v-200h91q43 0 71 28t28 73q0 44 -28 71.5t-71 27.5h-91z" />
    <glyph glyph-name="germandbls" unicode="&#xdf;" horiz-adv-x="635" 
d="M221 0h-155v514q0 110 66 173q68 63 175 63q106 1 178 -58.5t68 -139.5q0 -98 -82 -140v-6q59 -21 93.5 -70t34.5 -114q0 -111 -63.5 -173t-183.5 -62q-39 0 -85 13v142q35 -11 66 -11q46 0 74 25t28 68q0 41 -30.5 64.5t-80.5 23.5h-37v141h6q41 0 65 22.5t24 58.5
q0 33 -22 54.5t-58 21.5q-39 0 -60 -24.5t-21 -68.5v-517z" />
    <glyph glyph-name="agrave" unicode="&#xe0;" horiz-adv-x="636" 
d="M36 261q0 125 66 202q68 78 174 78q51 0 90 -21t59 -52h8v60h155v-528h-154v60h-8q-47 -73 -146 -73q-110 0 -177 75q-67 74 -67 199zM193 264q0 -61 33.5 -99t88.5 -38q54 0 87.5 38.5t33.5 98.5q0 62 -34 99.5t-88 37.5t-87.5 -38t-33.5 -99zM288 603l-93 152h149
l48 -152h-104z" />
    <glyph glyph-name="aacute" unicode="&#xe1;" horiz-adv-x="636" 
d="M36 261q0 125 66 202q68 78 174 78q51 0 90 -21t59 -52h8v60h155v-528h-154v60h-8q-47 -73 -146 -73q-110 0 -177 75q-67 74 -67 199zM193 264q0 -61 33.5 -99t88.5 -38q54 0 87.5 38.5t33.5 98.5q0 62 -34 99.5t-88 37.5t-87.5 -38t-33.5 -99zM370 603h-105l49 152h148z
" />
    <glyph glyph-name="acircumflex" unicode="&#xe2;" horiz-adv-x="636" 
d="M36 261q0 125 66 202q68 78 174 78q51 0 90 -21t59 -52h8v60h155v-528h-154v60h-8q-47 -73 -146 -73q-110 0 -177 75q-67 74 -67 199zM262 603h-104l105 151h130l105 -151h-103l-63 52h-8zM193 264q0 -61 33.5 -99t88.5 -38q54 0 87.5 38.5t33.5 98.5q0 62 -34 99.5
t-88 37.5t-87.5 -38t-33.5 -99z" />
    <glyph glyph-name="atilde" unicode="&#xe3;" horiz-adv-x="636" 
d="M36 261q0 125 66 202q68 78 174 78q51 0 90 -21t59 -52h8v60h155v-528h-154v60h-8q-47 -73 -146 -73q-110 0 -177 75q-67 74 -67 199zM236 599h-93q0 71 31 108.5t83 37.5q29 0 69 -21t49 -21q32 0 35 42h93q0 -70 -31 -108.5t-82 -38.5q-27 0 -66.5 21t-52.5 21
q-32 0 -35 -41zM193 264q0 -61 33.5 -99t88.5 -38q54 0 87.5 38.5t33.5 98.5q0 62 -34 99.5t-88 37.5t-87.5 -38t-33.5 -99z" />
    <glyph glyph-name="adieresis" unicode="&#xe4;" horiz-adv-x="636" 
d="M36 261q0 125 66 202q68 78 174 78q51 0 90 -21t59 -52h8v60h155v-528h-154v60h-8q-47 -73 -146 -73q-110 0 -177 75q-67 74 -67 199zM153 677q0 31 21 52.5t52 21.5q32 0 53 -21.5t21 -52.5q0 -33 -20.5 -53.5t-53.5 -20.5q-31 0 -52 21t-21 53zM193 264q0 -61 33.5 -99
t88.5 -38q54 0 87.5 38.5t33.5 98.5q0 62 -34 99.5t-88 37.5t-87.5 -38t-33.5 -99zM425 751q31 0 52 -21.5t21 -52.5q0 -32 -21 -53t-52 -21q-33 0 -53.5 20.5t-20.5 52.5q0 33 20.5 54t53.5 21z" />
    <glyph glyph-name="aring" unicode="&#xe5;" horiz-adv-x="636" 
d="M36 261q0 125 66 202q68 78 174 78q51 0 90 -21t59 -52h8v60h155v-528h-154v60h-8q-47 -73 -146 -73q-110 0 -177 75q-67 74 -67 199zM193 264q0 -61 33.5 -99t88.5 -38q54 0 87.5 38.5t33.5 98.5q0 62 -34 99.5t-88 37.5t-87.5 -38t-33.5 -99zM222 669q0 43 29.5 71.5
t75.5 28.5q47 0 76.5 -28t29.5 -71q0 -44 -29.5 -72.5t-75.5 -28.5t-76 28.5t-30 71.5zM328 634q35 0 35 36q0 15 -10 25t-26 10q-21 2 -29.5 -17t0 -37.5t30.5 -16.5z" />
    <glyph glyph-name="ae" unicode="&#xe6;" horiz-adv-x="973" 
d="M36 161q0 74 53 117t145 46h166v18q0 36 -31.5 58t-85.5 22q-44 0 -73 -19.5t-32 -45.5h-124q1 79 65 132q62 52 158 52q140 0 199 -81h7q67 81 189 81q125 0 195 -79t70 -196v-44h-388q2 -52 37.5 -85t91.5 -33q85 0 113 65h140q-18 -85 -87.5 -133.5t-173.5 -48.5
q-130 0 -205 94h-8q-62 -94 -206 -94q-95 0 -155 48t-60 126zM170 161q0 -27 26.5 -44t68.5 -17q60 0 97.5 30.5t37.5 76.5v12h-160q-33 0 -51.5 -15t-18.5 -43zM550 324h245q-4 44 -39 72t-86 28q-47 0 -81 -29t-39 -71z" />
    <glyph glyph-name="ccedilla" unicode="&#xe7;" horiz-adv-x="619" 
d="M36 264q-2 117 76.5 197.5t202.5 79.5q109 0 182 -61q75 -61 85 -157h-157q-11 36 -40.5 57t-68.5 21q-56 0 -89.5 -38.5t-33.5 -98.5t34 -98.5t90 -38.5q38 0 67 20t39 52h158q-12 -90 -79 -148q-66 -59 -166 -63l-9 -35h6q11 9 31 9q35 0 59 -23t24 -59
q0 -38 -28 -61.5t-73 -23.5q-42 0 -69.5 21.5t-28.5 56.5h73q1 -7 8 -13t16 -6q27 0 27 27q0 11 -7.5 18.5t-18.5 7.5q-15 0 -22 -13l-71 1l17 95q-106 15 -170 91t-64 183z" />
    <glyph glyph-name="egrave" unicode="&#xe8;" horiz-adv-x="608" 
d="M36 261q0 124 75 202q77 78 196 78q125 0 195 -79.5t70 -195.5v-45h-389q4 -51 38.5 -83t88.5 -32q43 0 74 17.5t43 45.5h140q-18 -84 -88 -133t-175 -49q-112 -2 -191 78t-77 196zM266 603l-93 152h149l48 -152h-104zM186 324h242q-4 43 -37.5 71t-83.5 28
q-47 0 -81.5 -28.5t-39.5 -70.5z" />
    <glyph glyph-name="eacute" unicode="&#xe9;" horiz-adv-x="608" 
d="M36 261q0 124 75 202q77 78 196 78q125 0 195 -79.5t70 -195.5v-45h-389q4 -51 38.5 -83t88.5 -32q43 0 74 17.5t43 45.5h140q-18 -84 -88 -133t-175 -49q-112 -2 -191 78t-77 196zM186 324h242q-4 43 -37.5 71t-83.5 28q-47 0 -81.5 -28.5t-39.5 -70.5zM348 603h-105
l49 152h148z" />
    <glyph glyph-name="ecircumflex" unicode="&#xea;" horiz-adv-x="608" 
d="M36 261q0 124 75 202q77 78 196 78q125 0 195 -79.5t70 -195.5v-45h-389q4 -51 38.5 -83t88.5 -32q43 0 74 17.5t43 45.5h140q-18 -84 -88 -133t-175 -49q-112 -2 -191 78t-77 196zM240 603h-104l105 151h130l105 -151h-103l-63 52h-8zM186 324h242q-4 43 -37.5 71
t-83.5 28q-47 0 -81.5 -28.5t-39.5 -70.5z" />
    <glyph glyph-name="edieresis" unicode="&#xeb;" horiz-adv-x="608" 
d="M36 261q0 124 75 202q77 78 196 78q125 0 195 -79.5t70 -195.5v-45h-389q4 -51 38.5 -83t88.5 -32q43 0 74 17.5t43 45.5h140q-18 -84 -88 -133t-175 -49q-112 -2 -191 78t-77 196zM131 677q0 31 21 52.5t52 21.5q32 0 53 -21.5t21 -52.5q0 -33 -20.5 -53.5t-53.5 -20.5
q-31 0 -52 21t-21 53zM186 324h242q-4 43 -37.5 71t-83.5 28q-47 0 -81.5 -28.5t-39.5 -70.5zM403 751q31 0 52 -21.5t21 -52.5q0 -32 -21 -53t-52 -21q-33 0 -53.5 20.5t-20.5 52.5q0 33 20.5 54t53.5 21z" />
    <glyph glyph-name="igrave" unicode="&#xec;" horiz-adv-x="269" 
d="M103 603l-93 152h149l48 -152h-104zM221 0h-155v528h155v-528z" />
    <glyph glyph-name="iacute" unicode="&#xed;" horiz-adv-x="269" 
d="M221 0h-155v528h155v-528zM186 603h-105l49 152h148z" />
    <glyph glyph-name="icircumflex" unicode="&#xee;" horiz-adv-x="269" 
d="M78 603h-104l105 151h130l105 -151h-103l-63 52h-8zM221 0h-155v528h155v-528z" />
    <glyph glyph-name="idieresis" unicode="&#xef;" horiz-adv-x="269" 
d="M-31 677q0 31 21 52.5t52 21.5q32 0 53 -21.5t21 -52.5q0 -33 -20.5 -53.5t-53.5 -20.5q-31 0 -52 21t-21 53zM221 0h-155v528h155v-528zM241 751q31 0 52 -21.5t21 -52.5q0 -32 -21 -53t-52 -21q-33 0 -53.5 20.5t-20.5 52.5q0 33 20.5 54t53.5 21z" />
    <glyph glyph-name="eth" unicode="&#xf0;" horiz-adv-x="618" 
d="M36 249q0 112 70 181t172 69q66 0 103 -30h6q-32 57 -95 111l-161 -60v82l92 35q-54 37 -103 61l87 49q70 -26 133 -68l148 56v-83l-76 -29q170 -151 170 -361q0 -122 -74.5 -198.5t-199.5 -76.5q-121 0 -196.5 74t-75.5 188zM193 249q0 -53 32 -85.5t83 -32.5
q52 0 84.5 33.5t32.5 88.5q0 50 -33 82t-82 32q-51 0 -84 -32.5t-33 -85.5z" />
    <glyph glyph-name="ntilde" unicode="&#xf1;" horiz-adv-x="600" 
d="M221 0h-155v528h146v-58h8q18 31 55.5 51t86.5 20q86 0 137 -53q52 -52 52 -136v-352h-155v304q0 42 -23 67.5t-62 25.5t-64.5 -29t-25.5 -72v-296zM228 599h-93q0 71 31 108.5t83 37.5q29 0 69 -21t49 -21q32 0 35 42h93q0 -70 -31 -108.5t-82 -38.5q-27 0 -66 21
t-53 21q-32 0 -35 -41z" />
    <glyph glyph-name="ograve" unicode="&#xf2;" horiz-adv-x="641" 
d="M36 264q0 119 79.5 198t205.5 79q124 0 204 -80t80 -197q0 -118 -80 -197.5t-205 -79.5q-124 0 -204 80t-80 197zM281 603l-93 152h149l48 -152h-104zM193 264q0 -60 36 -98.5t91 -38.5t91.5 38.5t36.5 98.5t-36.5 98.5t-91.5 38.5t-91 -38.5t-36 -98.5z" />
    <glyph glyph-name="oacute" unicode="&#xf3;" horiz-adv-x="641" 
d="M36 264q0 119 79.5 198t205.5 79q124 0 204 -80t80 -197q0 -118 -80 -197.5t-205 -79.5q-124 0 -204 80t-80 197zM193 264q0 -60 36 -98.5t91 -38.5t91.5 38.5t36.5 98.5t-36.5 98.5t-91.5 38.5t-91 -38.5t-36 -98.5zM364 603h-105l49 152h148z" />
    <glyph glyph-name="ocircumflex" unicode="&#xf4;" horiz-adv-x="641" 
d="M36 264q0 119 79.5 198t205.5 79q124 0 204 -80t80 -197q0 -118 -80 -197.5t-205 -79.5q-124 0 -204 80t-80 197zM255 603h-104l105 151h130l105 -151h-103l-63 52h-8zM193 264q0 -60 36 -98.5t91 -38.5t91.5 38.5t36.5 98.5t-36.5 98.5t-91.5 38.5t-91 -38.5t-36 -98.5z
" />
    <glyph glyph-name="otilde" unicode="&#xf5;" horiz-adv-x="641" 
d="M36 264q0 119 79.5 198t205.5 79q124 0 204 -80t80 -197q0 -118 -80 -197.5t-205 -79.5q-124 0 -204 80t-80 197zM229 599h-93q0 71 31 108.5t83 37.5q29 0 69 -21t49 -21q32 0 35 42h93q0 -70 -31 -108.5t-82 -38.5q-27 0 -66 21t-53 21q-32 0 -35 -41zM193 264
q0 -60 36 -98.5t91 -38.5t91.5 38.5t36.5 98.5t-36.5 98.5t-91.5 38.5t-91 -38.5t-36 -98.5z" />
    <glyph glyph-name="odieresis" unicode="&#xf6;" horiz-adv-x="641" 
d="M36 264q0 119 79.5 198t205.5 79q124 0 204 -80t80 -197q0 -118 -80 -197.5t-205 -79.5q-124 0 -204 80t-80 197zM147 677q0 31 21 52.5t52 21.5q32 0 53 -21.5t21 -52.5q0 -33 -20.5 -53.5t-53.5 -20.5q-31 0 -52 21t-21 53zM193 264q0 -60 36 -98.5t91 -38.5t91.5 38.5
t36.5 98.5t-36.5 98.5t-91.5 38.5t-91 -38.5t-36 -98.5zM419 751q31 0 52 -21.5t21 -52.5q0 -32 -21 -53t-52 -21q-33 0 -53.5 20.5t-20.5 52.5q0 33 20.5 54t53.5 21z" />
    <glyph glyph-name="divide" unicode="&#xf7;" horiz-adv-x="501" 
d="M496 251h-491v120h491v-120zM182 134q0 28 20 48t48 20q29 0 48.5 -20t19.5 -48q0 -29 -19.5 -48.5t-48.5 -19.5q-28 0 -48 19.5t-20 48.5zM250 562q29 0 48.5 -19.5t19.5 -48.5t-19.5 -48t-48.5 -19t-48.5 19.5t-19.5 47.5t20 48t48 20z" />
    <glyph glyph-name="oslash" unicode="&#xf8;" horiz-adv-x="641" 
d="M36 264q0 119 79.5 198t205.5 79q54 0 105 -17l27 46h106l-54 -90q100 -81 100 -216q0 -118 -80 -197.5t-205 -79.5q-52 0 -98 15l-33 -56h-105l58 98q-106 81 -106 220zM193 264q0 -52 27 -88l131 221q-12 4 -31 4q-55 0 -91 -38.5t-36 -98.5zM426 345l-129 -216
q20 -2 23 -2q55 0 91.5 38.5t36.5 98.5q0 47 -22 81z" />
    <glyph glyph-name="ugrave" unicode="&#xf9;" 
d="M63 176v352h155v-304q0 -42 23 -67.5t62 -25.5t64.5 29t25.5 72v296h155v-528h-147v58h-8q-18 -31 -55.5 -51t-85.5 -20q-86 0 -138 52q-51 53 -51 137zM266 603l-93 152h149l48 -152h-104z" />
    <glyph glyph-name="uacute" unicode="&#xfa;" 
d="M63 176v352h155v-304q0 -42 23 -67.5t62 -25.5t64.5 29t25.5 72v296h155v-528h-147v58h-8q-18 -31 -55.5 -51t-85.5 -20q-86 0 -138 52q-51 53 -51 137zM349 603h-105l49 152h148z" />
    <glyph glyph-name="ucircumflex" unicode="&#xfb;" 
d="M63 176v352h155v-304q0 -42 23 -67.5t62 -25.5t64.5 29t25.5 72v296h155v-528h-147v58h-8q-18 -31 -55.5 -51t-85.5 -20q-86 0 -138 52q-51 53 -51 137zM241 603h-104l105 151h130l105 -151h-103l-63 52h-8z" />
    <glyph glyph-name="udieresis" unicode="&#xfc;" 
d="M63 176v352h155v-304q0 -42 23 -67.5t62 -25.5t64.5 29t25.5 72v296h155v-528h-147v58h-8q-18 -31 -55.5 -51t-85.5 -20q-86 0 -138 52q-51 53 -51 137zM132 677q0 31 21 52.5t52 21.5q32 0 53 -21.5t21 -52.5q0 -33 -20.5 -53.5t-53.5 -20.5q-31 0 -52 21t-21 53z
M404 751q31 0 52 -21.5t21 -52.5q0 -32 -21 -53t-52 -21q-33 0 -53.5 20.5t-20.5 52.5q0 33 20.5 54t53.5 21z" />
    <glyph glyph-name="yacute" unicode="&#xfd;" horiz-adv-x="592" 
d="M225 -10l-209 538h162l116 -335h8l110 335h164l-224 -604q-56 -154 -207 -154h-70v137h61q56 0 80 58zM339 603h-105l49 152h148z" />
    <glyph glyph-name="thorn" unicode="&#xfe;" horiz-adv-x="654" 
d="M221 -222h-155v971h154l1 -280h8q16 26 52 49t93 23q108 0 176 -75q68 -76 68 -199q0 -125 -67 -202q-67 -78 -173 -78q-51 0 -89.5 21t-59.5 52h-8v-282zM218 264q0 -62 34 -99.5t88 -37.5t87.5 38t33.5 99q0 62 -33.5 99.5t-88.5 37.5q-54 0 -87.5 -38.5t-33.5 -98.5z
" />
    <glyph glyph-name="ydieresis" unicode="&#xff;" horiz-adv-x="592" 
d="M225 -10l-209 538h162l116 -335h8l110 335h164l-224 -604q-56 -154 -207 -154h-70v137h61q56 0 80 58zM122 677q0 31 21 52.5t52 21.5q32 0 53 -21.5t21 -52.5q0 -33 -20.5 -53.5t-53.5 -20.5q-31 0 -52 21t-21 53zM394 751q31 0 52 -21.5t21 -52.5q0 -32 -21 -53
t-52 -21q-33 0 -53.5 20.5t-20.5 52.5q0 33 20.5 54t53.5 21z" />
    <glyph glyph-name="Amacron" unicode="&#x100;" horiz-adv-x="707" 
d="M175 0h-162l238 700h202l241 -700h-168l-42 124h-268zM500 797h-280v109h280v-109zM346 526l-87 -261h182l-86 261h-9z" />
    <glyph glyph-name="amacron" unicode="&#x101;" horiz-adv-x="636" 
d="M36 261q0 125 66 202q68 78 174 78q51 0 90 -21t59 -52h8v60h155v-528h-154v60h-8q-47 -73 -146 -73q-110 0 -177 75q-67 74 -67 199zM193 264q0 -61 33.5 -99t88.5 -38q54 0 87.5 38.5t33.5 98.5q0 62 -34 99.5t-88 37.5t-87.5 -38t-33.5 -99zM473 620h-280v109h280
v-109z" />
    <glyph glyph-name="Abreve" unicode="&#x102;" horiz-adv-x="707" 
d="M175 0h-162l238 700h202l241 -700h-168l-42 124h-268zM207 925h92q0 -25 14 -39.5t40 -14.5q24 0 38.5 15t14.5 39h92q0 -70 -38 -108.5t-107 -38.5t-107.5 38.5t-38.5 108.5zM346 526l-87 -261h182l-86 261h-9z" />
    <glyph glyph-name="abreve" unicode="&#x103;" horiz-adv-x="636" 
d="M36 261q0 125 66 202q68 78 174 78q51 0 90 -21t59 -52h8v60h155v-528h-154v60h-8q-47 -73 -146 -73q-110 0 -177 75q-67 74 -67 199zM180 748h92q0 -25 14 -39.5t40 -14.5q24 0 38.5 15t14.5 39h92q0 -70 -38 -108.5t-107 -38.5t-107.5 38.5t-38.5 108.5zM193 264
q0 -61 33.5 -99t88.5 -38q54 0 87.5 38.5t33.5 98.5q0 62 -34 99.5t-88 37.5t-87.5 -38t-33.5 -99z" />
    <glyph glyph-name="Aogonek" unicode="&#x104;" horiz-adv-x="707" 
d="M175 0h-162l238 700h202l241 -700l-39 -49q-16 -19 -16 -33q0 -25 30 -25h25v-90h-81q-41 0 -67 22t-26 59q0 38 35 81l28 35h-57l-42 124h-268zM346 526l-87 -261h182l-86 261h-9z" />
    <glyph glyph-name="aogonek" unicode="&#x105;" horiz-adv-x="636" 
d="M36 261q0 125 66 202q68 78 174 78q51 0 90 -21t59 -52h8v60h155v-528l-39 -49q-22 -30 -16 -44t29 -14h26v-90h-81q-63 -3 -86 47t27 115l29 35h-43v60h-8q-47 -73 -146 -73q-110 0 -177 75q-67 74 -67 199zM193 264q0 -61 33.5 -99t88.5 -38q54 0 87.5 38.5t33.5 98.5
q0 62 -34 99.5t-88 37.5t-87.5 -38t-33.5 -99z" />
    <glyph glyph-name="Cacute" unicode="&#x106;" horiz-adv-x="802" 
d="M40 350q-3 153 103 259t265 104q137 0 232.5 -77.5t115.5 -195.5h-172q-15 54 -63 87.5t-113 33.5q-90 0 -147 -60t-57 -151q0 -92 57 -152q57 -59 147 -59q64 0 112.5 32.5t69.5 85.5h173q-22 -117 -120 -194q-97 -76 -235 -76q-159 -2 -265 103.5t-103 259.5zM446 780
h-105l49 152h148z" />
    <glyph glyph-name="cacute" unicode="&#x107;" horiz-adv-x="619" 
d="M36 264q-2 117 76.5 197.5t202.5 79.5q109 0 182 -61q75 -61 85 -157h-157q-11 36 -40.5 57t-68.5 21q-56 0 -89.5 -38.5t-33.5 -98.5t34 -98.5t90 -38.5q38 0 67 20t39 52h158q-14 -96 -85 -154t-180 -58q-123 -1 -202.5 80t-77.5 197zM358 604h-105l49 152h148z" />
    <glyph glyph-name="Cdotaccent" unicode="&#x10a;" horiz-adv-x="802" 
d="M40 350q-3 153 103 259t265 104q137 0 232.5 -77.5t115.5 -195.5h-172q-15 54 -63 87.5t-113 33.5q-90 0 -147 -60t-57 -151q0 -92 57 -152q57 -59 147 -59q64 0 112.5 32.5t69.5 85.5h173q-22 -117 -120 -194q-97 -76 -235 -76q-159 -2 -265 103.5t-103 259.5zM318 848
q0 37 24 60.5t63 23.5t63.5 -23.5t24.5 -60.5t-24.5 -60.5t-63.5 -23.5t-63 23.5t-24 60.5z" />
    <glyph glyph-name="cdotaccent" unicode="&#x10b;" horiz-adv-x="619" 
d="M36 264q-2 117 76.5 197.5t202.5 79.5q109 0 182 -61q75 -61 85 -157h-157q-11 36 -40.5 57t-68.5 21q-56 0 -89.5 -38.5t-33.5 -98.5t34 -98.5t90 -38.5q38 0 67 20t39 52h158q-14 -96 -85 -154t-180 -58q-123 -1 -202.5 80t-77.5 197zM229 672q0 36 24 60t63 24
t63.5 -24t24.5 -60q0 -37 -24.5 -60.5t-63.5 -23.5t-63 23.5t-24 60.5z" />
    <glyph glyph-name="Ccaron" unicode="&#x10c;" horiz-adv-x="802" 
d="M40 350q-3 153 103 259t265 104q137 0 232.5 -77.5t115.5 -195.5h-172q-15 54 -63 87.5t-113 33.5q-90 0 -147 -60t-57 -151q0 -92 57 -152q57 -59 147 -59q64 0 112.5 32.5t69.5 85.5h173q-22 -117 -120 -194q-97 -76 -235 -76q-159 -2 -265 103.5t-103 259.5zM339 780
l-105 151h104l62 -52h8l63 52h103l-105 -151h-130z" />
    <glyph glyph-name="ccaron" unicode="&#x10d;" horiz-adv-x="619" 
d="M36 264q-2 117 76.5 197.5t202.5 79.5q109 0 182 -61q75 -61 85 -157h-157q-11 36 -40.5 57t-68.5 21q-56 0 -89.5 -38.5t-33.5 -98.5t34 -98.5t90 -38.5q38 0 67 20t39 52h158q-14 -96 -85 -154t-180 -58q-123 -1 -202.5 80t-77.5 197zM250 604l-105 151h104l62 -52h8
l63 52h103l-105 -151h-130z" />
    <glyph glyph-name="Dcaron" unicode="&#x10e;" horiz-adv-x="717" 
d="M318 0h-249v700h249q166 0 263 -95.5t97 -251.5q0 -164 -97 -258q-97 -95 -263 -95zM244 781l-105 151h104l62 -52h8l63 52h103l-105 -151h-130zM227 563v-426h84q86 0 144 52.5t58 163.5q0 106 -58.5 158t-143.5 52h-84z" />
    <glyph glyph-name="dcaron" unicode="&#x10f;" horiz-adv-x="757" 
d="M36 261q0 125 66 202q68 78 174 78q51 0 90 -21t59 -52h8v282h155v-750h-154v60h-8q-47 -73 -146 -73q-110 0 -177 75q-67 74 -67 199zM193 264q0 -61 33.5 -99t88.5 -38q54 0 87.5 38.5t33.5 98.5q0 62 -34 99.5t-88 37.5t-87.5 -38t-33.5 -99zM754 547h-107v203h131z
" />
    <glyph glyph-name="Dcroat" unicode="&#x110;" horiz-adv-x="729" 
d="M86 292h-63v112h63v296h245q166 0 262 -96t96 -251q0 -164 -95 -259q-94 -94 -263 -94h-245v292zM245 292v-155h79q86 0 143.5 52.5t57.5 163.5q0 106 -58 158t-143 52h-79v-159h122v-112h-122z" />
    <glyph glyph-name="dslash" unicode="&#x111;" horiz-adv-x="637" 
d="M36 261q0 125 66 202q68 78 174 78q51 0 90 -21t59 -52h8v110h-132v108h132v64h155v-64h55v-108h-55v-578h-154v60h-8q-47 -73 -146 -73q-110 0 -177 75q-67 74 -67 199zM193 264q0 -61 33.5 -99t88.5 -38q54 0 87.5 38.5t33.5 98.5q0 62 -34 99.5t-88 37.5t-87.5 -38
t-33.5 -99z" />
    <glyph glyph-name="Emacron" unicode="&#x112;" horiz-adv-x="562" 
d="M523 0h-454v700h443v-135h-285v-145h243v-135h-243v-149h296v-136zM447 797h-280v109h280v-109z" />
    <glyph glyph-name="emacron" unicode="&#x113;" horiz-adv-x="608" 
d="M36 261q0 124 75 202q77 78 196 78q125 0 195 -79.5t70 -195.5v-45h-389q4 -51 38.5 -83t88.5 -32q43 0 74 17.5t43 45.5h140q-18 -84 -88 -133t-175 -49q-112 -2 -191 78t-77 196zM452 620h-280v109h280v-109zM186 324h242q-4 43 -37.5 71t-83.5 28q-47 0 -81.5 -28.5
t-39.5 -70.5z" />
    <glyph glyph-name="Edotaccent" unicode="&#x116;" horiz-adv-x="562" 
d="M523 0h-454v700h443v-135h-285v-145h243v-135h-243v-149h296v-136zM215 848q0 37 24 60.5t63 23.5t63.5 -23.5t24.5 -60.5t-24.5 -60.5t-63.5 -23.5t-63 23.5t-24 60.5z" />
    <glyph glyph-name="edotaccent" unicode="&#x117;" horiz-adv-x="608" 
d="M36 261q0 124 75 202q77 78 196 78q125 0 195 -79.5t70 -195.5v-45h-389q4 -51 38.5 -83t88.5 -32q43 0 74 17.5t43 45.5h140q-18 -84 -88 -133t-175 -49q-112 -2 -191 78t-77 196zM186 324h242q-4 43 -37.5 71t-83.5 28q-47 0 -81.5 -28.5t-39.5 -70.5zM220 671
q0 37 24 60.5t63 23.5t63.5 -23.5t24.5 -60.5t-24.5 -60.5t-63.5 -23.5t-63 23.5t-24 60.5z" />
    <glyph glyph-name="Eogonek" unicode="&#x118;" horiz-adv-x="562" 
d="M411 0h-342v700h443v-135h-285v-145h243v-135h-243v-149h296v-136h-1l-39 -49q-16 -19 -16 -33q0 -25 30 -25h25v-90h-81q-41 0 -67 22t-26 59q0 40 35 81z" />
    <glyph glyph-name="eogonek" unicode="&#x119;" horiz-adv-x="608" 
d="M36 261q0 124 75 202q77 78 196 78q125 0 195 -79.5t70 -195.5v-45h-389q4 -51 38.5 -83t88.5 -32q43 0 74 17.5t43 45.5h140q-15 -68 -64.5 -114t-125.5 -61l-34 -43q-16 -19 -16 -33q0 -25 30 -25h25v-90h-81q-41 0 -67 22t-26 59q0 38 35 81l20 25q-98 13 -163 89
q-64 74 -64 182zM186 324h242q-4 43 -37.5 71t-83.5 28q-47 0 -81.5 -28.5t-39.5 -70.5z" />
    <glyph glyph-name="Ecaron" unicode="&#x11a;" horiz-adv-x="562" 
d="M523 0h-454v700h443v-135h-285v-145h243v-135h-243v-149h296v-136zM236 780l-105 151h104l62 -52h8l63 52h103l-105 -151h-130z" />
    <glyph glyph-name="ecaron" unicode="&#x11b;" horiz-adv-x="608" 
d="M36 261q0 124 75 202q77 78 196 78q125 0 195 -79.5t70 -195.5v-45h-389q4 -51 38.5 -83t88.5 -32q43 0 74 17.5t43 45.5h140q-18 -84 -88 -133t-175 -49q-112 -2 -191 78t-77 196zM241 603l-105 151h104l62 -52h8l63 52h103l-105 -151h-130zM186 324h242q-4 43 -37.5 71
t-83.5 28q-47 0 -81.5 -28.5t-39.5 -70.5z" />
    <glyph glyph-name="Gbreve" unicode="&#x11e;" horiz-adv-x="809" 
d="M409 713q135 0 227 -73q93 -72 120 -184h-175q-18 48 -64 76.5t-108 28.5q-92 0 -149 -60q-56 -61 -56 -151q0 -93 56 -155q57 -60 149 -60q71 0 122.5 33t61.5 84h-191v130h367q6 -182 -93 -289q-99 -106 -267 -106q-163 0 -266 103t-103 260q0 156 103.5 259.5
t265.5 103.5zM265 925h92q0 -25 14 -39.5t40 -14.5q24 0 38.5 15t14.5 39h92q0 -70 -38 -108.5t-107 -38.5t-107.5 38.5t-38.5 108.5z" />
    <glyph glyph-name="gbreve" unicode="&#x11f;" horiz-adv-x="643" 
d="M36 267q0 126 67 199q67 75 171 75q53 0 92 -21.5t59 -51.5h8v60h155v-522q0 -110 -70 -179.5t-206 -69.5q-116 0 -181.5 56.5t-69.5 138.5h142q5 -33 33 -51.5t76 -18.5q122 0 122 124v61h-8q-54 -73 -148 -73q-105 0 -173.5 74.5t-68.5 198.5zM169 748h92
q0 -25 14 -39.5t40 -14.5q24 0 38.5 15t14.5 39h92q0 -70 -38 -108.5t-107 -38.5t-107.5 38.5t-38.5 108.5zM193 267q0 -60 33.5 -96.5t88.5 -36.5t88 37t33 96q0 62 -33.5 98t-88.5 36q-54 0 -87.5 -36.5t-33.5 -97.5z" />
    <glyph glyph-name="Gdotaccent" unicode="&#x120;" horiz-adv-x="809" 
d="M409 713q135 0 227 -73q93 -72 120 -184h-175q-18 48 -64 76.5t-108 28.5q-92 0 -149 -60q-56 -61 -56 -151q0 -93 56 -155q57 -60 149 -60q71 0 122.5 33t61.5 84h-191v130h367q6 -182 -93 -289q-99 -106 -267 -106q-163 0 -266 103t-103 260q0 156 103.5 259.5
t265.5 103.5zM327 848q0 37 24 60.5t63 23.5t63.5 -23.5t24.5 -60.5t-24.5 -60.5t-63.5 -23.5t-63 23.5t-24 60.5z" />
    <glyph glyph-name="gdotaccent" unicode="&#x121;" horiz-adv-x="643" 
d="M36 267q0 126 67 199q67 75 171 75q53 0 92 -21.5t59 -51.5h8v60h155v-522q0 -110 -70 -179.5t-206 -69.5q-116 0 -181.5 56.5t-69.5 138.5h142q5 -33 33 -51.5t76 -18.5q122 0 122 124v61h-8q-54 -73 -148 -73q-105 0 -173.5 74.5t-68.5 198.5zM193 267
q0 -60 33.5 -96.5t88.5 -36.5t88 37t33 96q0 62 -33.5 98t-88.5 36q-54 0 -87.5 -36.5t-33.5 -97.5zM231 671q0 37 24 60.5t63 23.5t63.5 -23.5t24.5 -60.5t-24.5 -60.5t-63.5 -23.5t-63 23.5t-24 60.5z" />
    <glyph glyph-name="uni0122" unicode="&#x122;" horiz-adv-x="809" 
d="M409 713q135 0 227 -73q93 -72 120 -184h-175q-18 48 -64 76.5t-108 28.5q-92 0 -149 -60q-56 -61 -56 -151q0 -93 56 -155q57 -60 149 -60q71 0 122.5 33t61.5 84h-191v130h367q6 -182 -93 -289q-99 -106 -267 -106q-163 0 -266 103t-103 260q0 156 103.5 259.5
t265.5 103.5zM427 -229h-94l15 176h124z" />
    <glyph glyph-name="uni0123" unicode="&#x123;" horiz-adv-x="643" 
d="M36 267q0 126 67 199q67 75 171 75q53 0 92 -21.5t59 -51.5h8v60h155v-522q0 -110 -70 -179.5t-206 -69.5q-116 0 -181.5 56.5t-69.5 138.5h142q5 -33 33 -51.5t76 -18.5q122 0 122 124v61h-8q-54 -73 -148 -73q-105 0 -173.5 74.5t-68.5 198.5zM193 267
q0 -60 33.5 -96.5t88.5 -36.5t88 37t33 96q0 62 -33.5 98t-88.5 36q-54 0 -87.5 -36.5t-33.5 -97.5zM368 604h-125l46 176h94z" />
    <glyph glyph-name="Hcircumflex" unicode="&#x124;" horiz-adv-x="733" 
d="M227 0h-158v700h158v-271h279v271h159v-700h-159v277h-279v-277zM302 780h-104l105 151h130l105 -151h-103l-63 52h-8z" />
    <glyph glyph-name="hcircumflex" unicode="&#x125;" 
d="M69 787h-104l105 151h130l105 -151h-103l-63 52h-8zM221 0h-155v750h154v-280h8q43 71 139 71q86 0 137 -52t51 -137v-352h-155v304q0 42 -24 67.5t-63 25.5q-40 0 -66 -28.5t-26 -70.5v-298z" />
    <glyph glyph-name="Hbar" unicode="&#x126;" horiz-adv-x="839" 
d="M122 509h-53v113h53v78h159v-78h279v78h158v-78h53v-113h-53v-509h-158v277h-279v-277h-159v509zM281 509v-80h279v80h-279z" />
    <glyph glyph-name="hbar" unicode="&#x127;" 
d="M66 578h-61v108h61v64h154v-64h126v-108h-126v-108h8q43 71 139 71q86 0 137 -52t51 -137v-352h-155v304q0 42 -24 67.5t-63 25.5q-40 0 -66 -28.5t-26 -70.5v-298h-155v578z" />
    <glyph glyph-name="Imacron" unicode="&#x12a;" horiz-adv-x="296" 
d="M292 797h-280v109h280v-109zM227 0h-158v700h158v-700z" />
    <glyph glyph-name="imacron" unicode="&#x12b;" horiz-adv-x="269" 
d="M289 620h-280v109h280v-109zM221 0h-155v528h155v-528z" />
    <glyph glyph-name="Iogonek" unicode="&#x12e;" horiz-adv-x="296" 
d="M53 -116q0 40 35 81l28 35h-47v700h158v-700l-39 -49q-16 -19 -16 -33q0 -25 30 -25h25v-90h-81q-41 0 -67 22t-26 59z" />
    <glyph glyph-name="iogonek" unicode="&#x12f;" horiz-adv-x="262" 
d="M76 -35l29 35h-44v528h155v-528l-39 -49q-22 -30 -16 -44t29 -14h26v-90h-81q-63 -3 -86 47t27 115zM52 671q0 37 24 60.5t63 23.5t63.5 -23.5t24.5 -60.5t-24.5 -60.5t-63.5 -23.5t-63 23.5t-24 60.5z" />
    <glyph glyph-name="Idot" unicode="&#x130;" horiz-adv-x="296" 
d="M60 848q0 37 24 60.5t63 23.5t63.5 -23.5t24.5 -60.5t-24.5 -60.5t-63.5 -23.5t-63 23.5t-24 60.5zM227 0h-158v700h158v-700z" />
    <glyph glyph-name="dotlessi" unicode="&#x131;" horiz-adv-x="269" 
d="M221 0h-155v528h155v-528z" />
    <glyph glyph-name="Jcircumflex" unicode="&#x134;" horiz-adv-x="595" 
d="M30 225h150q0 -43 25.5 -68t71.5 -25q48 0 72.5 30t24.5 78v323h-222v137h381v-467q0 -113 -69 -179q-68 -66 -186 -66q-117 0 -182.5 64t-65.5 173zM276 780h-104l105 151h130l105 -151h-103l-63 52h-8z" />
    <glyph glyph-name="jcircumflex" unicode="&#x135;" horiz-adv-x="315" 
d="M2 -230v137h36q34 0 53.5 19t19.5 53v549h155v-550q0 -95 -54 -151.5t-144 -56.5h-66zM116 603h-104l105 151h130l105 -151h-103l-63 52h-8z" />
    <glyph glyph-name="uni0136" unicode="&#x136;" horiz-adv-x="663" 
d="M227 0h-158v700h158v-267h6l211 267h195l-233 -275l237 -425h-183l-163 297l-70 -83v-214zM343 -229h-94l15 176h124z" />
    <glyph glyph-name="uni0137" unicode="&#x137;" horiz-adv-x="594" 
d="M221 0h-155v750h155v-402h6l150 180h191l-170 -190l183 -338h-174l-116 219l-70 -78v-141zM322 -229h-94l15 176h124z" />
    <glyph glyph-name="kgreenlandic" unicode="&#x138;" horiz-adv-x="594" 
d="M221 0h-155v528h155v-180h6l154 180h190l-173 -190l183 -338h-174l-116 218l-70 -77v-141z" />
    <glyph glyph-name="Lacute" unicode="&#x139;" horiz-adv-x="537" 
d="M501 0h-432v700h158v-559h274v-141zM187 780h-105l49 152h148z" />
    <glyph glyph-name="lacute" unicode="&#x13a;" horiz-adv-x="323" 
d="M66 166v584h155v-566q0 -48 44 -48h19v-136h-53q-78 0 -121.5 44t-43.5 122zM186 787h-105l49 152h148z" />
    <glyph glyph-name="uni013B" unicode="&#x13b;" horiz-adv-x="537" 
d="M501 0h-432v700h158v-559h274v-141zM301 -229h-94l15 176h124z" />
    <glyph glyph-name="uni013C" unicode="&#x13c;" horiz-adv-x="323" 
d="M66 166v584h155v-566q0 -48 44 -48h19v-136h-53q-78 0 -121.5 44t-43.5 122zM209 -229h-94l15 176h124z" />
    <glyph glyph-name="Lcaron" unicode="&#x13d;" horiz-adv-x="533" 
d="M501 0h-432v700h158v-559h274v-141zM442 497h-107v203h131z" />
    <glyph glyph-name="lcaron" unicode="&#x13e;" horiz-adv-x="364" 
d="M66 166v584h155v-566q0 -48 44 -48h19v-136h-53q-78 0 -121.5 44t-43.5 122zM394 547h-107v203h131z" />
    <glyph glyph-name="Ldot" unicode="&#x13f;" horiz-adv-x="600" 
d="M501 0h-432v700h158v-559h274v-141zM288 385q0 35 25 59t60 24q38 0 62 -23.5t24 -59.5q0 -37 -24 -60.5t-62 -23.5q-36 0 -60.5 24t-24.5 60z" />
    <glyph glyph-name="ldot" unicode="&#x140;" horiz-adv-x="443" 
d="M66 166v584h155v-566q0 -48 44 -48h19v-136h-53q-78 0 -121.5 44t-43.5 122zM270 389q0 35 24.5 59t59.5 24q38 0 62 -23.5t24 -59.5t-24 -60t-62 -24q-36 0 -60 24t-24 60z" />
    <glyph glyph-name="Lslash" unicode="&#x141;" horiz-adv-x="569" 
d="M105 232l-69 -34v128l69 34v340h158v-263l148 72v-128l-148 -72v-168h274v-141h-432v232z" />
    <glyph glyph-name="lslash" unicode="&#x142;" horiz-adv-x="393" 
d="M97 287l-66 -32v128l66 32v335h155v-261l82 40v-128l-82 -40v-177q0 -48 45 -48h19v-136h-54q-78 0 -121.5 44t-43.5 122v121z" />
    <glyph glyph-name="Nacute" unicode="&#x143;" horiz-adv-x="740" 
d="M222 0h-153v700h175l268 -440h6v440h153v-700h-176l-267 440h-6v-440zM420 780h-105l49 152h148z" />
    <glyph glyph-name="nacute" unicode="&#x144;" horiz-adv-x="600" 
d="M221 0h-155v528h146v-58h8q18 31 55.5 51t86.5 20q86 0 137 -53q52 -52 52 -136v-352h-155v304q0 42 -23 67.5t-62 25.5t-64.5 -29t-25.5 -72v-296zM362 603h-105l49 152h148z" />
    <glyph glyph-name="uni0145" unicode="&#x145;" horiz-adv-x="740" 
d="M222 0h-153v700h175l268 -440h6v440h153v-700h-176l-267 440h-6v-440zM375 -229h-94l15 176h124z" />
    <glyph glyph-name="uni0146" unicode="&#x146;" horiz-adv-x="600" 
d="M221 0h-155v528h146v-58h8q18 31 55.5 51t86.5 20q86 0 137 -53q52 -52 52 -136v-352h-155v304q0 42 -23 67.5t-62 25.5t-64.5 -29t-25.5 -72v-296zM327 -229h-94l15 176h124z" />
    <glyph glyph-name="Ncaron" unicode="&#x147;" horiz-adv-x="740" 
d="M222 0h-153v700h175l268 -440h6v440h153v-700h-176l-267 440h-6v-440zM313 780l-105 151h104l62 -52h8l63 52h103l-105 -151h-130z" />
    <glyph glyph-name="ncaron" unicode="&#x148;" horiz-adv-x="600" 
d="M221 0h-155v528h146v-58h8q18 31 55.5 51t86.5 20q86 0 137 -53q52 -52 52 -136v-352h-155v304q0 42 -23 67.5t-62 25.5t-64.5 -29t-25.5 -72v-296zM255 603l-105 151h104l62 -52h8l63 52h103l-105 -151h-130z" />
    <glyph glyph-name="Eng" unicode="&#x14a;" horiz-adv-x="740" 
d="M222 0h-153v700h159l284 -407h6v407h153v-696q0 -109 -68 -171.5t-175 -62.5l1 143q42 0 63 25.5t21 66.5v31l-285 405h-6v-441z" />
    <glyph glyph-name="eng" unicode="&#x14b;" horiz-adv-x="600" 
d="M221 0h-155v528h146v-58h8q18 31 55.5 51t86.5 20q86 0 137 -53q52 -52 52 -136v-374q0 -95 -54 -151.5t-144 -56.5h-66v137h36q35 0 54 19t19 53v325q0 42 -23 67.5t-62 25.5t-64.5 -29t-25.5 -72v-296z" />
    <glyph glyph-name="Omacron" unicode="&#x14c;" horiz-adv-x="823" 
d="M40 350q0 155 106.5 259t265.5 104q160 0 266 -104.5t106 -258.5q2 -151 -107 -258.5t-265 -104.5q-161 0 -266.5 103.5t-105.5 259.5zM204 350q0 -92 58 -151q58 -60 150 -60q90 0 148 60q59 61 59 151q0 89 -59 150q-58 61 -148 61q-92 0 -150 -61q-58 -59 -58 -150z
M557 797h-280v109h280v-109z" />
    <glyph glyph-name="omacron" unicode="&#x14d;" horiz-adv-x="641" 
d="M36 264q0 119 79.5 198t205.5 79q124 0 204 -80t80 -197q0 -118 -80 -197.5t-205 -79.5q-124 0 -204 80t-80 197zM467 620h-280v109h280v-109zM193 264q0 -60 36 -98.5t91 -38.5t91.5 38.5t36.5 98.5t-36.5 98.5t-91.5 38.5t-91 -38.5t-36 -98.5z" />
    <glyph glyph-name="Ohungarumlaut" unicode="&#x150;" horiz-adv-x="823" 
d="M40 350q0 155 106.5 259t265.5 104q160 0 266 -104.5t106 -258.5q2 -151 -107 -258.5t-265 -104.5q-161 0 -266.5 103.5t-105.5 259.5zM204 350q0 -92 58 -151q58 -60 150 -60q90 0 148 60q59 61 59 151q0 89 -59 150q-58 61 -148 61q-92 0 -150 -61q-58 -59 -58 -150z
M371 780h-101l40 155h145zM557 780h-101l40 155h145z" />
    <glyph glyph-name="ohungarumlaut" unicode="&#x151;" horiz-adv-x="641" 
d="M36 264q0 119 79.5 198t205.5 79q124 0 204 -80t80 -197q0 -118 -80 -197.5t-205 -79.5q-124 0 -204 80t-80 197zM281 603h-101l40 155h145zM193 264q0 -60 36 -98.5t91 -38.5t91.5 38.5t36.5 98.5t-36.5 98.5t-91.5 38.5t-91 -38.5t-36 -98.5zM467 603h-101l40 155h145z
" />
    <glyph glyph-name="OE" unicode="&#x152;" horiz-adv-x="1108" 
d="M40 350q0 155 106.5 259t265.5 104q51 0 102 -13h544v-135h-348q51 -62 65 -145h244v-135h-243q-12 -84 -66 -149h358v-136h-554q-53 -13 -102 -13q-161 0 -266.5 103.5t-105.5 259.5zM204 350q0 -92 58 -151q58 -60 150 -60q88 0 147 60q58 59 58 151q0 91 -58 150
q-58 61 -147 61q-92 0 -150 -61q-58 -59 -58 -150z" />
    <glyph glyph-name="oe" unicode="&#x153;" horiz-adv-x="1027" 
d="M36 264q0 119 79.5 198t205.5 79t207 -81q73 81 198 81q126 0 195.5 -79t69.5 -196v-45h-388q3 -51 37 -83.5t88 -32.5q44 0 75 17.5t43 46.5h139q-18 -85 -87.5 -133.5t-174.5 -48.5q-120 0 -195 81q-81 -81 -208 -81q-124 0 -204 80t-80 197zM193 264q0 -60 36 -98.5
t91 -38.5t91.5 38.5t36.5 98.5t-36.5 98.5t-91.5 38.5t-91 -38.5t-36 -98.5zM604 324h243q-4 43 -38 71t-85 28q-46 0 -80 -28.5t-40 -70.5z" />
    <glyph glyph-name="Racute" unicode="&#x154;" horiz-adv-x="647" 
d="M227 0h-158v700h274q107 0 178 -65q70 -64 70 -166q0 -67 -34 -121.5t-90 -82.5l149 -265h-176l-119 234h-94v-234zM227 565v-196h102q46 0 73 26.5t27 73.5q0 44 -27.5 70t-74.5 26h-100zM342 780h-105l49 152h148z" />
    <glyph glyph-name="racute" unicode="&#x155;" horiz-adv-x="443" 
d="M221 0h-155v528h146v-80h8q17 36 53 60t83 24h51v-146h-61q-57 0 -91 -39t-34 -107v-240zM298 603h-105l49 152h148z" />
    <glyph glyph-name="uni0156" unicode="&#x156;" horiz-adv-x="647" 
d="M227 0h-158v700h274q107 0 178 -65q70 -64 70 -166q0 -67 -34 -121.5t-90 -82.5l149 -265h-176l-119 234h-94v-234zM227 565v-196h102q46 0 73 26.5t27 73.5q0 44 -27.5 70t-74.5 26h-100zM338 -229h-94l15 176h124z" />
    <glyph glyph-name="uni0157" unicode="&#x157;" horiz-adv-x="443" 
d="M221 0h-155v528h146v-80h8q17 36 53 60t83 24h51v-146h-61q-57 0 -91 -39t-34 -107v-240zM236 -229h-94l15 176h124z" />
    <glyph glyph-name="Rcaron" unicode="&#x158;" horiz-adv-x="647" 
d="M227 0h-158v700h274q107 0 178 -65q70 -64 70 -166q0 -67 -34 -121.5t-90 -82.5l149 -265h-176l-119 234h-94v-234zM234 780l-105 151h104l62 -52h8l63 52h103l-105 -151h-130zM227 565v-196h102q46 0 73 26.5t27 73.5q0 44 -27.5 70t-74.5 26h-100z" />
    <glyph glyph-name="rcaron" unicode="&#x159;" horiz-adv-x="443" 
d="M221 0h-155v528h146v-80h8q17 36 53 60t83 24h51v-146h-61q-57 0 -91 -39t-34 -107v-240zM190 603l-105 151h104l62 -52h8l63 52h103l-105 -151h-130z" />
    <glyph glyph-name="Sacute" unicode="&#x15a;" horiz-adv-x="608" 
d="M28 228h151q3 -44 36.5 -70t90.5 -26q49 0 77 18t28 51q0 30 -27 47.5t-67.5 24t-88 20t-88 32.5t-67.5 64.5t-27 113.5q0 92 67 150q68 60 185 60q114 0 184 -58q71 -57 76 -165h-158q-1 37 -28 59.5t-74 22.5q-44 0 -69 -17.5t-25 -47.5q0 -25 20.5 -40.5t53.5 -23
t72.5 -14.5t79 -20.5t72.5 -34.5t53.5 -62t20.5 -99q0 -100 -73 -163t-202 -63q-127 0 -201 66q-73 66 -72 175zM341 780h-105l49 152h148z" />
    <glyph glyph-name="sacute" unicode="&#x15b;" horiz-adv-x="531" 
d="M36 162h141q6 -56 86 -56q81 0 81 49q0 19 -16.5 30t-42.5 15.5t-58 8.5t-64 13t-58 24.5t-42.5 48t-16.5 78.5q0 71 58 119q58 49 159 49q95 0 153.5 -44t63.5 -124h-134q-8 54 -83 54q-35 0 -56 -13t-21 -34q0 -20 23 -30t57 -12.5t74 -11t74 -22.5t57 -50t23 -91
q0 -80 -61.5 -128t-170.5 -48t-166 46t-60 129zM301 603h-105l49 152h148z" />
    <glyph glyph-name="Scedilla" unicode="&#x15e;" horiz-adv-x="608" 
d="M28 228h151q3 -44 36.5 -70t90.5 -26q49 0 77 18t28 51q0 30 -27 47.5t-67.5 24t-88 20t-88 32.5t-67.5 64.5t-27 113.5q0 92 67 150q68 60 185 60q114 0 184 -58q71 -57 76 -165h-158q-1 37 -28 59.5t-74 22.5q-44 0 -69 -17.5t-25 -47.5q0 -25 20.5 -40.5t53.5 -23
t72.5 -14.5t79 -20.5t72.5 -34.5t53.5 -62t20.5 -99q0 -98 -70 -161q-71 -62 -195 -65l-9 -34h6q10 9 31 9q36 0 59.5 -23t23.5 -59q0 -38 -28 -61.5t-73 -23.5q-42 0 -69.5 21.5t-28.5 56.5h73q1 -7 8 -13t16 -6q27 0 27 27q0 11 -7.5 18.5t-18.5 7.5q-15 0 -22 -13l-71 1
l17 96q-102 14 -160 77.5t-57 159.5z" />
    <glyph glyph-name="scedilla" unicode="&#x15f;" horiz-adv-x="531" 
d="M36 162h141q6 -56 86 -56q81 0 81 49q0 19 -16.5 30t-42.5 15.5t-58 8.5t-64 13t-58 24.5t-42.5 48t-16.5 78.5q0 71 58 119q58 49 159 49q95 0 153.5 -44t63.5 -124h-134q-8 54 -83 54q-35 0 -56 -13t-21 -34q0 -20 23 -30t57 -12.5t74 -11t74 -22.5t57 -50t23 -91
q0 -77 -59 -125t-162 -51l-9 -34h6q11 9 32 9q34 0 58 -23t24 -59q0 -38 -28 -61.5t-73 -23.5q-42 0 -69.5 21.5t-28.5 56.5h73q2 -19 25 -19q26 0 26 27q0 11 -7.5 18.5t-18.5 7.5q-15 0 -22 -13l-71 1l17 95q-82 11 -125 55.5t-46 116.5z" />
    <glyph glyph-name="Scaron" unicode="&#x160;" horiz-adv-x="608" 
d="M28 228h151q3 -44 36.5 -70t90.5 -26q49 0 77 18t28 51q0 30 -27 47.5t-67.5 24t-88 20t-88 32.5t-67.5 64.5t-27 113.5q0 92 67 150q68 60 185 60q114 0 184 -58q71 -57 76 -165h-158q-1 37 -28 59.5t-74 22.5q-44 0 -69 -17.5t-25 -47.5q0 -25 20.5 -40.5t53.5 -23
t72.5 -14.5t79 -20.5t72.5 -34.5t53.5 -62t20.5 -99q0 -100 -73 -163t-202 -63q-127 0 -201 66q-73 66 -72 175zM233 780l-105 151h104l62 -52h8l63 52h103l-105 -151h-130z" />
    <glyph glyph-name="scaron" unicode="&#x161;" horiz-adv-x="531" 
d="M36 162h141q6 -56 86 -56q81 0 81 49q0 19 -16.5 30t-42.5 15.5t-58 8.5t-64 13t-58 24.5t-42.5 48t-16.5 78.5q0 71 58 119q58 49 159 49q95 0 153.5 -44t63.5 -124h-134q-8 54 -83 54q-35 0 -56 -13t-21 -34q0 -20 23 -30t57 -12.5t74 -11t74 -22.5t57 -50t23 -91
q0 -80 -61.5 -128t-170.5 -48t-166 46t-60 129zM194 603l-105 151h104l62 -52h8l63 52h103l-105 -151h-130z" />
    <glyph glyph-name="uni0162" unicode="&#x162;" 
d="M222 563h-195v137h550v-137h-196v-563h-159v563zM317 -229h-94l15 176h124z" />
    <glyph glyph-name="uni0163" unicode="&#x163;" horiz-adv-x="444" 
d="M122 407h-85v120h50q20 0 31.5 13t11.5 34v97h147v-143h138v-121h-138v-216q0 -63 68 -63h68v-128h-107q-87 0 -135.5 48t-48.5 135v224zM296 -229h-94l15 176h124z" />
    <glyph glyph-name="Tcaron" unicode="&#x164;" 
d="M222 563h-195v137h550v-137h-196v-563h-159v563zM243 780l-105 151h104l62 -52h8l63 52h103l-105 -151h-130z" />
    <glyph glyph-name="tcaron" unicode="&#x165;" horiz-adv-x="436" 
d="M122 407h-85v120h50q20 0 31.5 13t11.5 34v97h147v-143h138v-121h-138v-216q0 -63 68 -63h68v-128h-107q-87 0 -135.5 48t-48.5 135v224zM450 568h-107v203h131z" />
    <glyph glyph-name="Tbar" unicode="&#x166;" horiz-adv-x="563" 
d="M222 563h-195v137h550v-137h-196v-151h108v-112h-108v-300h-159v300h-149v112h149v151z" />
    <glyph glyph-name="tbar" unicode="&#x167;" horiz-adv-x="436" 
d="M122 407h-85v120h50q20 0 31.5 13t11.5 34v97h147v-143h138v-121h-138v-66h124v-108h-124v-42q0 -63 68 -63h68v-128h-107q-87 0 -135.5 48t-48.5 135v50h-80v108h80v66z" />
    <glyph glyph-name="Umacron" unicode="&#x16a;" horiz-adv-x="694" 
d="M62 266v434h159v-433q0 -61 33 -96t93 -35q62 0 94 34.5t32 97.5v432h159v-433q0 -125 -79 -203q-79 -77 -206 -77t-207 77q-78 76 -78 202zM486 797h-280v109h280v-109z" />
    <glyph glyph-name="umacron" unicode="&#x16b;" 
d="M63 176v352h155v-304q0 -42 23 -67.5t62 -25.5t64.5 29t25.5 72v296h155v-528h-147v58h-8q-18 -31 -55.5 -51t-85.5 -20q-86 0 -138 52q-51 53 -51 137zM452 620h-280v109h280v-109z" />
    <glyph glyph-name="Uring" unicode="&#x16e;" horiz-adv-x="694" 
d="M62 266v434h159v-433q0 -61 33 -96t93 -35q62 0 94 34.5t32 97.5v432h159v-433q0 -125 -79 -203q-79 -77 -206 -77t-207 77q-78 76 -78 202zM235 846q0 44 29.5 72t75.5 28q47 0 76.5 -28t29.5 -71t-30 -72t-75 -29q-47 0 -76.5 28.5t-29.5 71.5zM341 811q15 0 25 10
t10 26q0 15 -10 25t-26 10q-21 2 -30 -17t0 -37.5t31 -16.5z" />
    <glyph glyph-name="uring" unicode="&#x16f;" 
d="M63 176v352h155v-304q0 -42 23 -67.5t62 -25.5t64.5 29t25.5 72v296h155v-528h-147v58h-8q-18 -31 -55.5 -51t-85.5 -20q-86 0 -138 52q-51 53 -51 137zM201 669q0 43 29.5 71.5t75.5 28.5q47 0 76.5 -28t29.5 -71q0 -44 -29.5 -72.5t-75.5 -28.5t-76 28.5t-30 71.5z
M307 634q35 0 35 36q0 15 -10 25t-26 10q-21 2 -29.5 -17t0 -37.5t30.5 -16.5z" />
    <glyph glyph-name="Uhungarumlaut" unicode="&#x170;" horiz-adv-x="694" 
d="M62 266v434h159v-433q0 -61 33 -96t93 -35q62 0 94 34.5t32 97.5v432h159v-433q0 -125 -79 -203q-79 -77 -206 -77t-207 77q-78 76 -78 202zM300 780h-101l40 155h145zM486 780h-101l40 155h145z" />
    <glyph glyph-name="uhungarumlaut" unicode="&#x171;" 
d="M63 176v352h155v-304q0 -42 23 -67.5t62 -25.5t64.5 29t25.5 72v296h155v-528h-147v58h-8q-18 -31 -55.5 -51t-85.5 -20q-86 0 -138 52q-51 53 -51 137zM266 603h-101l40 155h145zM452 603h-101l40 155h145z" />
    <glyph glyph-name="Uogonek" unicode="&#x172;" horiz-adv-x="694" 
d="M62 266v434h159v-433q0 -61 33 -96t93 -35q62 0 94 34.5t32 97.5v432h159v-433q0 -104 -55 -176t-149 -95l-36 -45q-16 -19 -16 -33q0 -25 30 -25h25v-90h-81q-40 0 -66.5 22t-26.5 59q0 38 35 81l19 24q-114 11 -182 86q-67 74 -67 191z" />
    <glyph glyph-name="uogonek" unicode="&#x173;" 
d="M63 176v352h155v-304q0 -42 23 -67.5t62 -25.5t64.5 29t25.5 72v296h155v-528l-39 -49q-16 -19 -16 -33q0 -25 30 -25h25v-90h-81q-41 0 -67 22t-26 59q0 38 35 81l28 35h-36v58h-8q-18 -31 -55.5 -51t-85.5 -20q-86 0 -138 52q-51 53 -51 137z" />
    <glyph glyph-name="Wcircumflex" unicode="&#x174;" horiz-adv-x="996" 
d="M195 0l-182 700h173l102 -455h8l104 455h195l105 -455h8l102 455h173l-182 -700h-187l-112 473h-8l-113 -473h-186zM436 780h-104l105 151h130l105 -151h-103l-63 52h-8z" />
    <glyph glyph-name="wcircumflex" unicode="&#x175;" horiz-adv-x="875" 
d="M163 0l-140 528h161l70 -339h8l100 339h151l100 -339h8l70 339h161l-140 -528h-170l-101 322h-6l-102 -322h-170zM372 603h-104l105 151h130l105 -151h-103l-63 52h-8z" />
    <glyph glyph-name="Ycircumflex" unicode="&#x176;" horiz-adv-x="668" 
d="M256 271l-243 429h173l143 -269h9l142 269h175l-240 -428v-272h-159v271zM270 780h-104l105 151h130l105 -151h-103l-63 52h-8z" />
    <glyph glyph-name="ycircumflex" unicode="&#x177;" horiz-adv-x="592" 
d="M225 -10l-209 538h162l116 -335h8l110 335h164l-224 -604q-56 -154 -207 -154h-70v137h61q56 0 80 58zM231 603h-104l105 151h130l105 -151h-103l-63 52h-8z" />
    <glyph glyph-name="Ydieresis" unicode="&#x178;" horiz-adv-x="668" 
d="M256 271l-243 429h173l143 -269h9l142 269h175l-240 -428v-272h-159v271zM162 854q0 31 21 52.5t52 21.5q32 0 53 -21.5t21 -52.5q0 -33 -20.5 -53.5t-53.5 -20.5q-31 0 -52 21t-21 53zM434 928q31 0 52 -21.5t21 -52.5q0 -32 -21 -53t-52 -21q-33 0 -53.5 20.5
t-20.5 53.5t20.5 53.5t53.5 20.5z" />
    <glyph glyph-name="Zacute" unicode="&#x179;" horiz-adv-x="625" 
d="M582 0h-539v138l334 419v8h-322v135h525v-137l-336 -419v-8h338v-136zM350 780h-105l49 152h148z" />
    <glyph glyph-name="zacute" unicode="&#x17a;" horiz-adv-x="526" 
d="M480 0h-434v137l228 255v8h-220v128h421v-128l-228 -260v-8h233v-132zM311 603h-105l49 152h148z" />
    <glyph glyph-name="Zdotaccent" unicode="&#x17b;" horiz-adv-x="625" 
d="M582 0h-539v138l334 419v8h-322v135h525v-137l-336 -419v-8h338v-136zM222 848q0 37 24 60.5t63 23.5t63.5 -23.5t24.5 -60.5t-24.5 -60.5t-63.5 -23.5t-63 23.5t-24 60.5z" />
    <glyph glyph-name="zdotaccent" unicode="&#x17c;" horiz-adv-x="526" 
d="M480 0h-434v137l228 255v8h-220v128h421v-128l-228 -260v-8h233v-132zM183 671q0 37 24 60.5t63 23.5t63.5 -23.5t24.5 -60.5t-24.5 -60.5t-63.5 -23.5t-63 23.5t-24 60.5z" />
    <glyph glyph-name="Zcaron" unicode="&#x17d;" horiz-adv-x="625" 
d="M582 0h-539v138l334 419v8h-322v135h525v-137l-336 -419v-8h338v-136zM243 780l-105 151h104l62 -52h8l63 52h103l-105 -151h-130z" />
    <glyph glyph-name="zcaron" unicode="&#x17e;" horiz-adv-x="526" 
d="M480 0h-434v137l228 255v8h-220v128h421v-128l-228 -260v-8h233v-132zM204 603l-105 151h104l62 -52h8l63 52h103l-105 -151h-130z" />
    <glyph glyph-name="florin" unicode="&#x192;" horiz-adv-x="538" 
d="M153 325h-100v122h122l25 133q15 81 72 125.5t143 44.5h84l-16 -130h-52q-70 0 -84 -71l-19 -102h122v-122h-145l-97 -518h-150z" />
    <glyph glyph-name="uni0218" unicode="&#x218;" horiz-adv-x="608" 
d="M28 228h151q3 -44 36.5 -70t90.5 -26q49 0 77 18t28 51q0 30 -27 47.5t-67.5 24t-88 20t-88 32.5t-67.5 64.5t-27 113.5q0 92 67 150q68 60 185 60q114 0 184 -58q71 -57 76 -165h-158q-1 37 -28 59.5t-74 22.5q-44 0 -69 -17.5t-25 -47.5q0 -25 20.5 -40.5t53.5 -23
t72.5 -14.5t79 -20.5t72.5 -34.5t53.5 -62t20.5 -99q0 -100 -73 -163t-202 -63q-127 0 -201 66q-73 66 -72 175zM324 -229h-94l15 176h124z" />
    <glyph glyph-name="uni0219" unicode="&#x219;" horiz-adv-x="531" 
d="M36 162h141q6 -56 86 -56q81 0 81 49q0 19 -16.5 30t-42.5 15.5t-58 8.5t-64 13t-58 24.5t-42.5 48t-16.5 78.5q0 71 58 119q58 49 159 49q95 0 153.5 -44t63.5 -124h-134q-8 54 -83 54q-35 0 -56 -13t-21 -34q0 -20 23 -30t57 -12.5t74 -11t74 -22.5t57 -50t23 -91
q0 -80 -61.5 -128t-170.5 -48t-166 46t-60 129zM286 -229h-94l15 176h124z" />
    <glyph glyph-name="uni021A" unicode="&#x21a;" 
d="M222 563h-195v137h550v-137h-196v-563h-51l-13 -47h6q11 9 32 9q36 0 59 -23t23 -59q0 -38 -28 -61.5t-73 -23.5q-43 0 -70.5 21.5t-27.5 56.5h73q1 -8 8.5 -13.5t16.5 -5.5q26 0 26 27q0 26 -26 26q-15 0 -22 -13l-71 1l18 105h-39v563z" />
    <glyph glyph-name="uni021B" unicode="&#x21b;" horiz-adv-x="444" 
d="M122 407h-85v120h50q20 0 31.5 13t11.5 34v97h147v-143h138v-121h-138v-216q0 -63 68 -63h68v-128h-104l-13 -47h6q10 9 32 9q36 0 59 -23t23 -59q0 -38 -28 -61.5t-73 -23.5q-43 0 -70.5 21.5t-27.5 56.5h74q2 -19 24 -19q26 0 26 27q0 26 -26 26q-15 0 -21 -13l-72 1
l20 113q-57 15 -88.5 61t-31.5 114v224z" />
    <glyph glyph-name="uni0237" unicode="&#x237;" horiz-adv-x="315" 
d="M2 -230v137h36q34 0 53.5 19t19.5 53v549h155v-550q0 -95 -54 -151.5t-144 -56.5h-66z" />
    <glyph glyph-name="circumflex" unicode="&#x2c6;" horiz-adv-x="412" 
d="M140 603h-104l105 151h130l105 -151h-103l-63 52h-8z" />
    <glyph glyph-name="caron" unicode="&#x2c7;" horiz-adv-x="412" 
d="M141 603l-105 151h104l62 -52h8l63 52h103l-105 -151h-130z" />
    <glyph glyph-name="breve" unicode="&#x2d8;" horiz-adv-x="377" 
d="M43 748h92q0 -25 14 -39.5t40 -14.5q24 0 38.5 15t14.5 39h92q0 -70 -38 -108.5t-107 -38.5t-107.5 38.5t-38.5 108.5z" />
    <glyph glyph-name="dotaccent" unicode="&#x2d9;" horiz-adv-x="269" 
d="M47 671q0 37 24 60.5t63 23.5t63.5 -23.5t24.5 -60.5t-24.5 -60.5t-63.5 -23.5t-63 23.5t-24 60.5z" />
    <glyph glyph-name="ring" unicode="&#x2da;" horiz-adv-x="295" 
d="M42 669q0 43 29.5 71.5t75.5 28.5q47 0 76.5 -28t29.5 -71q0 -44 -29.5 -72.5t-75.5 -28.5t-76 28.5t-30 71.5zM148 634q35 0 35 36q0 15 -10 25t-26 10q-21 2 -30 -17t0 -37.5t31 -16.5z" />
    <glyph glyph-name="ogonek" unicode="&#x2db;" horiz-adv-x="260" 
d="M43 -116q0 38 35 81l28 35h111l-39 -49q-16 -19 -16 -33q0 -25 30 -25h25v-90h-81q-40 0 -66.5 22t-26.5 59z" />
    <glyph glyph-name="tilde" unicode="&#x2dc;" horiz-adv-x="440" 
d="M133 599h-93q0 71 31 108.5t83 37.5q29 0 69 -21t49 -21q32 0 35 42h93q0 -70 -31 -108.5t-82 -38.5q-27 0 -66.5 21t-52.5 21q-32 0 -35 -41z" />
    <glyph glyph-name="hungarumlaut" unicode="&#x2dd;" horiz-adv-x="459" 
d="M146 603h-101l40 155h145zM332 603h-101l40 155h145z" />
    <glyph glyph-name="uni0326" unicode="&#x326;" horiz-adv-x="0" 
d="M-82 -229h-94l15 176h124z" />
    <glyph glyph-name="Wgrave" unicode="&#x1e80;" horiz-adv-x="996" 
d="M195 0l-182 700h173l102 -455h8l104 455h195l105 -455h8l102 455h173l-182 -700h-187l-112 473h-8l-113 -473h-186zM462 780l-93 152h149l48 -152h-104z" />
    <glyph glyph-name="wgrave" unicode="&#x1e81;" horiz-adv-x="875" 
d="M163 0l-140 528h161l70 -339h8l100 339h151l100 -339h8l70 339h161l-140 -528h-170l-101 322h-6l-102 -322h-170zM398 603l-93 152h149l48 -152h-104z" />
    <glyph glyph-name="Wacute" unicode="&#x1e82;" horiz-adv-x="996" 
d="M195 0l-182 700h173l102 -455h8l104 455h195l105 -455h8l102 455h173l-182 -700h-187l-112 473h-8l-113 -473h-186zM544 780h-105l49 152h148z" />
    <glyph glyph-name="wacute" unicode="&#x1e83;" horiz-adv-x="875" 
d="M163 0l-140 528h161l70 -339h8l100 339h151l100 -339h8l70 339h161l-140 -528h-170l-101 322h-6l-102 -322h-170zM481 603h-105l49 152h148z" />
    <glyph glyph-name="Wdieresis" unicode="&#x1e84;" horiz-adv-x="996" 
d="M195 0l-182 700h173l102 -455h8l104 455h195l105 -455h8l102 455h173l-182 -700h-187l-112 473h-8l-113 -473h-186zM327 854q0 31 21 52.5t52 21.5q32 0 53 -21.5t21 -52.5q0 -33 -20.5 -53.5t-53.5 -20.5q-31 0 -52 21t-21 53zM599 928q31 0 52 -21.5t21 -52.5
q0 -32 -21 -53t-52 -21q-33 0 -53.5 20.5t-20.5 53.5t20.5 53.5t53.5 20.5z" />
    <glyph glyph-name="wdieresis" unicode="&#x1e85;" horiz-adv-x="875" 
d="M163 0l-140 528h161l70 -339h8l100 339h151l100 -339h8l70 339h161l-140 -528h-170l-101 322h-6l-102 -322h-170zM264 677q0 31 21 52.5t52 21.5q32 0 53 -21.5t21 -52.5q0 -33 -20.5 -53.5t-53.5 -20.5q-31 0 -52 21t-21 53zM536 751q31 0 52 -21.5t21 -52.5
q0 -32 -21 -53t-52 -21q-33 0 -53.5 20.5t-20.5 52.5q0 33 20.5 54t53.5 21z" />
    <glyph glyph-name="uni1E9E" unicode="&#x1e9e;" horiz-adv-x="698" 
d="M227 0h-158v484q0 92 63.5 154t175.5 62h292v-145l-126 -135v-10l14 -1q72 -4 125 -60q52 -55 52 -141q2 -82 -60 -145.5t-151 -62.5h-176v137h149q31 0 52.5 21t21.5 51q0 31 -21.5 52t-52.5 21h-128v145l115 128v10h-86q-47 0 -74 -27t-27 -70v-468z" />
    <glyph glyph-name="Ygrave" unicode="&#x1ef2;" horiz-adv-x="668" 
d="M256 271l-243 429h173l143 -269h9l142 269h175l-240 -428v-272h-159v271zM296 780l-93 152h149l48 -152h-104z" />
    <glyph glyph-name="ygrave" unicode="&#x1ef3;" horiz-adv-x="592" 
d="M225 -10l-209 538h162l116 -335h8l110 335h164l-224 -604q-56 -154 -207 -154h-70v137h61q56 0 80 58zM257 603l-93 152h149l48 -152h-104z" />
    <glyph glyph-name="uni2000" unicode="&#x2000;" horiz-adv-x="473" 
 />
    <glyph glyph-name="uni2001" unicode="&#x2001;" horiz-adv-x="946" 
 />
    <glyph glyph-name="uni2002" unicode="&#x2002;" horiz-adv-x="473" 
 />
    <glyph glyph-name="uni2003" unicode="&#x2003;" horiz-adv-x="946" 
 />
    <glyph glyph-name="uni2004" unicode="&#x2004;" horiz-adv-x="315" 
 />
    <glyph glyph-name="uni2005" unicode="&#x2005;" horiz-adv-x="236" 
 />
    <glyph glyph-name="uni2006" unicode="&#x2006;" horiz-adv-x="157" 
 />
    <glyph glyph-name="uni2007" unicode="&#x2007;" horiz-adv-x="157" 
 />
    <glyph glyph-name="uni2008" unicode="&#x2008;" horiz-adv-x="118" 
 />
    <glyph glyph-name="uni2009" unicode="&#x2009;" horiz-adv-x="189" 
 />
    <glyph glyph-name="uni200A" unicode="&#x200a;" horiz-adv-x="52" 
 />
    <glyph glyph-name="uni2010" unicode="&#x2010;" horiz-adv-x="384" 
d="M335 240h-286v131h286v-131z" />
    <glyph glyph-name="uni2011" unicode="&#x2011;" horiz-adv-x="384" 
d="M335 240h-286v131h286v-131z" />
    <glyph glyph-name="figuredash" unicode="&#x2012;" horiz-adv-x="384" 
d="M335 240h-286v131h286v-131z" />
    <glyph glyph-name="endash" unicode="&#x2013;" horiz-adv-x="649" 
d="M600 241h-551v130h551v-130z" />
    <glyph glyph-name="emdash" unicode="&#x2014;" horiz-adv-x="901" 
d="M852 241h-803v129h803v-129z" />
    <glyph glyph-name="quoteleft" unicode="&#x2018;" horiz-adv-x="275" 
d="M204 438h-151l59 262h111z" />
    <glyph glyph-name="quoteright" unicode="&#x2019;" horiz-adv-x="275" 
d="M164 438h-111l18 262h151z" />
    <glyph glyph-name="quotesinglbase" unicode="&#x201a;" horiz-adv-x="273" 
d="M157 -131h-111l18 262h151z" />
    <glyph glyph-name="quotedblleft" unicode="&#x201c;" horiz-adv-x="486" 
d="M204 438h-151l59 262h104zM415 438h-151l59 262h111z" />
    <glyph glyph-name="quotedblright" unicode="&#x201d;" horiz-adv-x="486" 
d="M164 438h-111l18 262h151zM374 438h-104l12 262h151z" />
    <glyph glyph-name="quotedblbase" unicode="&#x201e;" horiz-adv-x="492" 
d="M164 -131h-111l18 262h151zM374 -131h-104l12 262h151z" />
    <glyph glyph-name="dagger" unicode="&#x2020;" horiz-adv-x="466" 
d="M162 400h-123v125h123v175h139v-175h126v-125h-126v-400h-139v400z" />
    <glyph glyph-name="daggerdbl" unicode="&#x2021;" horiz-adv-x="466" 
d="M162 150h-123v125h123v150h-123v125h123v150h139v-150h126v-125h-126v-150h126v-125h-126v-150h-139v150z" />
    <glyph glyph-name="bullet" unicode="&#x2022;" horiz-adv-x="464" 
d="M109 188q-49 49 -49 122t49 122q50 50 123 50t123 -50q49 -49 49 -122t-49 -122q-50 -50 -123 -50t-123 50z" />
    <glyph glyph-name="uni202F" unicode="&#x202f;" horiz-adv-x="189" 
 />
    <glyph glyph-name="perthousand" unicode="&#x2030;" horiz-adv-x="1173" 
d="M63 455v126q0 59 40 95.5t101 36.5q62 0 101.5 -36.5t39.5 -95.5v-126q0 -59 -39.5 -95.5t-101.5 -36.5q-61 0 -101 36.5t-40 95.5zM162 579v-122q0 -19 11.5 -31.5t30.5 -12.5q20 0 31.5 12.5t11.5 31.5v122q3 26 -20 37t-45.5 0t-19.5 -37zM253 26l-86 62l416 593
l86 -62zM491 119v126q0 59 39.5 95.5t100.5 36.5q63 0 102.5 -36.5t39.5 -95.5v-126q0 -58 -40 -95t-102 -37q-61 0 -100.5 37t-39.5 95zM590 243v-122q0 -19 11 -31.5t31 -12.5q18 0 30 13t12 31v122q0 19 -11.5 31t-30.5 12q-20 0 -31 -12t-11 -31zM828 119v126
q0 59 40 95.5t101 36.5q62 0 101.5 -36.5t39.5 -95.5v-126q0 -58 -39.5 -95t-101.5 -37q-61 0 -101 37t-40 95zM927 243v-122q0 -18 12 -31t30 -13t30 13t12 31v122q0 19 -11.5 31t-30.5 12t-30.5 -12t-11.5 -31z" />
    <glyph glyph-name="guilsinglleft" unicode="&#x2039;" horiz-adv-x="328" 
d="M270 87l-212 171v68l212 171v-134l-86 -68v-6l86 -68v-134z" />
    <glyph glyph-name="guilsinglright" unicode="&#x203a;" horiz-adv-x="328" 
d="M270 258l-212 -171v134l86 68v6l-86 68v134l212 -171v-68z" />
    <glyph glyph-name="fraction" unicode="&#x2044;" horiz-adv-x="515" 
d="M126 -41h-130l393 782h130z" />
    <glyph glyph-name="uni205F" unicode="&#x205f;" horiz-adv-x="236" 
 />
    <glyph glyph-name="Euro" unicode="&#x20ac;" horiz-adv-x="624" 
d="M65 242h-45v85h45v43h-45v85h45v25q0 107 73 170t172 63q110 0 177 -67q68 -66 68 -176h-157q0 44 -24 69t-64 25t-64 -25t-24 -69v-15h123v-85h-123v-43h123v-85h-123v-12q0 -42 24.5 -68t63.5 -26t63.5 25.5t24.5 67.5h157q0 -109 -69 -176q-69 -66 -176 -66
q-99 0 -172 63t-73 170v22z" />
    <glyph glyph-name="uni2116" unicode="&#x2116;" horiz-adv-x="1170" 
d="M222 0h-153v700h174l269 -434h6v434h153v-700h-174l-269 436h-6v-436zM745 533q0 76 52 128t132 52t132 -52t52 -128q0 -75 -52 -126q-53 -51 -132 -51t-132 51q-52 51 -52 126zM1098 182h-339v127h339v-127zM862 533q0 -27 19 -46t48 -19t48 19t19 46q0 28 -19 47.5
t-48 19.5t-48 -19.5t-19 -47.5z" />
    <glyph glyph-name="trademark" unicode="&#x2122;" horiz-adv-x="866" 
d="M139 606h-89v94h287v-94h-89v-266h-109v266zM497 340h-105v360h117l92 -197h6l93 197h117v-360h-106v168h-5l-78 -168h-48l-78 168h-5v-168z" />
    <glyph glyph-name="arrowleft" unicode="&#x2190;" horiz-adv-x="814" 
d="M328 -3l-303 302v104l303 303l97 -96l-169 -169v-6h508v-166h-508v-6l169 -169z" />
    <glyph glyph-name="arrowup" unicode="&#x2191;" horiz-adv-x="779" 
d="M132 339l-97 97l304 303h104l302 -303l-98 -97l-168 169h-6v-508h-167v508h-6z" />
    <glyph glyph-name="arrowright" unicode="&#x2192;" horiz-adv-x="814" 
d="M558 269h-508v166h508v6l-169 169l97 96l303 -303v-104l-303 -302l-97 97l169 169v6z" />
    <glyph glyph-name="arrowdown" unicode="&#x2193;" horiz-adv-x="779" 
d="M339 -39l-304 303l97 97l168 -169h6v508h167v-508h6l168 169l98 -97l-302 -303h-104z" />
    <glyph glyph-name="uni2196" unicode="&#x2196;" horiz-adv-x="671" 
d="M19 217l-2 428l74 73h429l1 -137l-239 1l-5 -4l359 -359l-117 -118l-359 359l-4 -4v-239h-137z" />
    <glyph glyph-name="uni2197" unicode="&#x2197;" horiz-adv-x="671" 
d="M152 101l-117 118l359 359l-5 4l-239 -1l1 137h429l74 -73l-2 -428h-137v239l-4 4z" />
    <glyph glyph-name="uni2198" unicode="&#x2198;" horiz-adv-x="670" 
d="M382 105l-359 359l117 118l359 -359l4 4v239h137v-430l-74 -73l-427 1v138l238 -1z" />
    <glyph glyph-name="uni2199" unicode="&#x2199;" horiz-adv-x="670" 
d="M104 -37l-74 73v430h137v-239l4 -4l359 359l118 -118l-359 -359l4 -4l239 1v-138z" />
    <glyph glyph-name="minus" unicode="&#x2212;" horiz-adv-x="501" 
d="M496 251h-491v120h491v-120z" />
    <glyph glyph-name="uni25FC" unicode="&#x25fc;" horiz-adv-x="530" 
d="M530 0h-530v530h530v-530z" />
    <glyph glyph-name="_1" horiz-adv-x="0" 
 />
    <glyph glyph-name="CR" horiz-adv-x="333" 
 />
    <glyph glyph-name="i.loclTRK" horiz-adv-x="269" 
d="M55 671q0 37 24.5 60.5t63.5 23.5t63.5 -23.5t24.5 -60.5t-24.5 -60.5t-63.5 -23.5t-63.5 23.5t-24.5 60.5zM221 0h-155v528h155v-528z" />
    <glyph glyph-name="zero.tf" horiz-adv-x="607" 
d="M59 220v260q0 106 73 169.5t171 63.5q100 0 173 -63t73 -170v-260q0 -107 -73 -170t-173 -63q-98 0 -171 63.5t-73 169.5zM215 470v-240q0 -42 24.5 -68t63.5 -26q40 0 64.5 25.5t24.5 68.5v240q0 43 -24.5 68.5t-64.5 25.5q-39 0 -63.5 -26t-24.5 -68z" />
    <glyph glyph-name="one.tf" horiz-adv-x="607" 
d="M322 476h-163v117q96 0 135.5 25.5t39.5 81.5h145v-700h-157v476z" />
    <glyph glyph-name="two.tf" horiz-adv-x="607" 
d="M210 485h-146q0 94 62.5 161t171.5 67q111 0 176 -61q67 -61 67 -152q0 -68 -32 -116.5t-99 -88.5l-140 -82q-48 -29 -48 -68v-8h318v-137h-475v123q0 68 31.5 117t101.5 92l130 80q29 19 42 37.5t13 44.5q0 33 -23.5 53.5t-62.5 20.5q-38 0 -62.5 -24t-24.5 -59z" />
    <glyph glyph-name="three.tf" horiz-adv-x="607" 
d="M63 216h145q1 -34 25.5 -56.5t62.5 -22.5q41 0 66.5 24t25.5 61q0 36 -26 60.5t-68 24.5h-99v119l141 127v7h-261v141h452v-137l-145 -131v-6q72 -13 117 -71q46 -55 46 -134q0 -97 -67.5 -165.5t-179.5 -68.5q-110 0 -172.5 67.5t-62.5 160.5z" />
    <glyph glyph-name="four.tf" horiz-adv-x="607" 
d="M342 123h-305v132l174 445h162l-165 -431v-6h134v144h157v-144h71v-140h-71v-123h-157v123z" />
    <glyph glyph-name="five.tf" horiz-adv-x="607" 
d="M61 213h145q3 -34 27.5 -55.5t63.5 -21.5q41 0 66.5 25.5t25.5 62.5q0 39 -26 64t-69 25q-48 0 -75 -36h-149l28 424h406v-141h-271l-9 -142h4q44 31 100 31q93 1 156.5 -67t61.5 -158q0 -100 -68.5 -168t-178.5 -68q-108 0 -172 64t-66 161z" />
    <glyph glyph-name="six.tf" horiz-adv-x="607" 
d="M52 228q0 68 36 136l187 336h182l-151 -247l4 -4q12 5 31 5q35 0 71 -13.5t69 -39.5t53.5 -71t20.5 -102q1 -102 -75.5 -173t-176.5 -68q-103 0 -177 67.5t-74 173.5zM303 136q40 0 66.5 26.5t26.5 65.5q0 40 -27 67q-25 27 -66 27q-40 0 -67 -28q-26 -28 -26 -66
q0 -39 26.5 -65.5t66.5 -26.5z" />
    <glyph glyph-name="seven.tf" horiz-adv-x="607" 
d="M365 560h-294v141h466v-135l-239 -566h-173l240 553v7z" />
    <glyph glyph-name="eight.tf" horiz-adv-x="607" 
d="M49 199q0 114 101 171v8q-77 53 -77 146q0 83 65 136q67 53 166 53q101 0 166 -53t65 -136q0 -92 -78 -146v-8q102 -57 102 -171q0 -94 -71 -153q-70 -58 -184 -58q-115 0 -185 58t-70 153zM206 211q0 -36 27 -60t71 -24t70.5 23.5t26.5 60.5q0 39 -27 63t-70 24
t-70.5 -24t-27.5 -63zM224 503q0 -31 23 -52.5t57 -21.5t56.5 21.5t22.5 52.5t-22 52.5t-57 21.5t-57.5 -21.5t-22.5 -52.5z" />
    <glyph glyph-name="nine.tf" horiz-adv-x="607" 
d="M52 472q-1 102 76 172.5t177 68.5q102 0 176 -67.5t74 -173.5q0 -72 -36 -136l-186 -336h-183l152 247l-4 4q-15 -5 -32 -5q-35 0 -71 13.5t-69 39.5t-53.5 71t-20.5 102zM211 472q0 -40 26.5 -67t67.5 -27q39 0 65.5 27.5t26.5 66.5t-26 65.5t-66 26.5
q-41 0 -67.5 -26.5t-26.5 -65.5z" />
    <glyph glyph-name="caron.Slovak" horiz-adv-x="231" 
d="M157 497h-107v203h131z" />
    <glyph glyph-name="NULL" horiz-adv-x="0" 
 />
    </font>
</defs>
</svg>
